<svg xmlns="http://www.w3.org/2000/svg" width="141.823" height="45.001" viewBox="0 0 141.823 45.001">
	<defs>
		<style>
			.a{fill:#fff;}
			.b{stroke:#80868a;}
		</style>
	</defs>
	<g transform="translate(0 0.5)">
		<path class="a" d="M140.66,38.532a4.234,4.234,0,0,1-4.1,4.305H4.5A4.23,4.23,0,0,1,.4,38.532V4.705A4.234,4.234,0,0,1,4.5.4H136.558a4.23,4.23,0,0,1,4.1,4.305V38.532Z" transform="translate(0.381 0.381)"/>
		<path d="M136.94,44H4.884A4.955,4.955,0,0,1,0,38.884V5.116A4.955,4.955,0,0,1,4.884,0H136.94a4.955,4.955,0,0,1,4.884,5.116V38.884A4.955,4.955,0,0,1,136.94,44Z"/>
		<path class="b" d="M140.66,39.937a4.323,4.323,0,0,1-4.1,4.464H4.5A4.316,4.316,0,0,1,.4,39.937V4.864A4.323,4.323,0,0,1,4.5.4H136.558a4.316,4.316,0,0,1,4.1,4.464V39.937Z" transform="translate(0.381 -0.4)"/>
		<path class="a" d="M25.036,14.523a5.911,5.911,0,0,1,2.93-5.079,6.928,6.928,0,0,0-4.884-2.735c-2.149-.2-4.1,1.172-5.079,1.172-1.172,0-2.735-1.172-4.493-1.172A6.419,6.419,0,0,0,8.04,10.03C5.7,14.133,7.454,20.188,9.8,23.509c1.172,1.563,2.54,3.516,4.3,3.321,1.758,0,2.344-1.172,4.493-1.172,1.953,0,2.735,1.172,4.493.977,1.758,0,2.93-1.563,4.1-3.321a21.186,21.186,0,0,0,1.953-3.907C28.552,19.8,25.036,18.43,25.036,14.523Z" transform="translate(6.611 7.576)"/>
		<path class="a" d="M16.422,7.6a5.243,5.243,0,0,0,1.367-4.3,6.262,6.262,0,0,0-3.907,1.953,5.8,5.8,0,0,0-1.367,4.1C13.882,9.747,15.445,8.77,16.422,7.6Z" transform="translate(11.904 3.506)"/>
		<g transform="translate(44.54 20.753)">
			<path class="a" d="M34.716,23.865H32.372L31,19.763H26.512l-1.367,4.1H22.8L27.293,9.8h2.735ZM30.614,18l-1.172-3.712a18.183,18.183,0,0,1-.781-2.735h0a20.758,20.758,0,0,0-.586,2.735L26.9,18Z" transform="translate(-22.8 -9.409)"/>
			<path class="a" d="M39.472,16.779a5.5,5.5,0,0,1-1.367,4.1,3.887,3.887,0,0,1-3.126,1.367,3.084,3.084,0,0,1-2.93-1.367v5.274H29.9V11.9h1.953l.2,1.563h0A3.838,3.838,0,0,1,35.37,11.7a3.515,3.515,0,0,1,2.93,1.367A5.632,5.632,0,0,1,39.472,16.779Zm-2.344.2a4.166,4.166,0,0,0-.586-2.344,2.4,2.4,0,0,0-1.953-.977,2.6,2.6,0,0,0-1.563.586,3.5,3.5,0,0,0-.977,1.367,1.968,1.968,0,0,1-.2.586v1.758A3.3,3.3,0,0,0,32.44,19.9a1.9,1.9,0,0,0,1.758.781,2.4,2.4,0,0,0,1.953-.977A3.942,3.942,0,0,0,37.128,16.974Z" transform="translate(-16.03 -7.598)"/>
			<path class="a" d="M45.472,16.779a5.5,5.5,0,0,1-1.367,4.1,3.887,3.887,0,0,1-3.126,1.367,3.084,3.084,0,0,1-2.93-1.367v5.274H35.9V11.9h1.953l.2,1.563h0A3.838,3.838,0,0,1,41.37,11.7a3.515,3.515,0,0,1,2.93,1.367A5.632,5.632,0,0,1,45.472,16.779Zm-2.344.2a4.166,4.166,0,0,0-.586-2.344,2.4,2.4,0,0,0-1.953-.977,2.6,2.6,0,0,0-1.563.586,3.5,3.5,0,0,0-.977,1.367,1.968,1.968,0,0,1-.2.586v1.758A3.3,3.3,0,0,0,38.44,19.9a1.9,1.9,0,0,0,1.758.781,2.4,2.4,0,0,0,1.953-.977A3.942,3.942,0,0,0,43.128,16.974Z" transform="translate(-10.309 -7.598)"/>
			<path class="a" d="M51.691,20.149a3.976,3.976,0,0,1-1.172,2.93,5.833,5.833,0,0,1-3.907,1.172A6.985,6.985,0,0,1,42.9,23.47l.586-1.953a6.421,6.421,0,0,0,3.321.781,2.916,2.916,0,0,0,1.953-.586,2.412,2.412,0,0,0,.781-1.563,1.773,1.773,0,0,0-.586-1.367A5.64,5.64,0,0,0,47,17.609c-2.54-.977-3.712-2.344-3.712-4.1a2.956,2.956,0,0,1,1.367-2.735A4.776,4.776,0,0,1,48.174,9.6a6.849,6.849,0,0,1,3.126.586l-.781,2.149a6.24,6.24,0,0,0-2.735-.586,3.3,3.3,0,0,0-1.953.586,1.688,1.688,0,0,0-.586,1.172,1.773,1.773,0,0,0,.586,1.367,5.64,5.64,0,0,0,1.953,1.172A5.557,5.557,0,0,1,50.519,17.8C51.5,18.2,51.691,19.172,51.691,20.149Z" transform="translate(-3.635 -9.6)"/>
			<path class="a" d="M54.347,14.7h-2.54v4.884c0,1.172.391,1.953,1.367,1.953a1.464,1.464,0,0,0,.977-.2V23.1a4.336,4.336,0,0,1-1.758.2,2.668,2.668,0,0,1-2.149-.781,3.534,3.534,0,0,1-.781-2.735V14.7H47.9V12.944h1.563V11.186l2.149-.586v2.54h2.54V14.7Z" transform="translate(1.133 -8.647)"/>
			<path class="a" d="M61.763,16.874A5.631,5.631,0,0,1,60.4,20.781a5,5,0,0,1-3.712,1.563,4.292,4.292,0,0,1-3.516-1.563A4.863,4.863,0,0,1,51.8,17.07a5.321,5.321,0,0,1,1.367-3.907A5,5,0,0,1,56.879,11.6,4.292,4.292,0,0,1,60.4,13.163,5.157,5.157,0,0,1,61.763,16.874Zm-2.344.2a4.166,4.166,0,0,0-.586-2.344,2.149,2.149,0,0,0-1.953-1.172,2.451,2.451,0,0,0-2.149,1.172,4.64,4.64,0,0,0-.586,2.344,4.166,4.166,0,0,0,.586,2.344,2.214,2.214,0,0,0,3.907,0A3.754,3.754,0,0,0,59.419,17.07Z" transform="translate(4.851 -7.693)"/>
			<path class="a" d="M63.174,13.753h-.781a2.052,2.052,0,0,0-1.758.977,3.3,3.3,0,0,0-.586,1.953v5.274H57.9V12h1.953v1.953h0a3.038,3.038,0,0,1,1.172-1.563,2.6,2.6,0,0,1,1.563-.586h.586v1.953Z" transform="translate(10.667 -7.502)"/>
			<path class="a" d="M70.091,16.293v.977H63.449a3.235,3.235,0,0,0,.977,2.344,4.1,4.1,0,0,0,2.149.781A11.529,11.529,0,0,0,69.309,20l.391,1.563a9.125,9.125,0,0,1-3.321.586A4.72,4.72,0,0,1,61.3,17.074a5.632,5.632,0,0,1,1.172-3.712A3.808,3.808,0,0,1,65.988,11.8a4.173,4.173,0,0,1,3.321,1.563A5.825,5.825,0,0,1,70.091,16.293Zm-2.149-.586a5.7,5.7,0,0,0-.391-1.758,2.071,2.071,0,0,0-3.516,0,2.388,2.388,0,0,0-.586,1.758Z" transform="translate(13.909 -7.502)"/>
		</g>
		<g transform="translate(45.516 7.235)">
			<path class="a" d="M28.965,10.537H27.793l-.586-1.953H25.058l-.586,1.953H23.3L25.449,3.7h1.367ZM27.012,7.8l-.586-1.758c0-.2-.2-.586-.391-1.367h0a4.969,4.969,0,0,1-.391,1.367L25.058,7.8Z" transform="translate(-23.3 -3.309)"/>
			<path class="a" d="M31.388,4.7,29.435,9.584h-.977L26.7,4.7h1.172l.781,2.54c.2.391.2.781.391,1.172h0a2.777,2.777,0,0,1,.391-1.172l.781-2.54Z" transform="translate(-20.058 -2.356)"/>
			<path class="a" d="M32.53,9.679V9.093h0a1.773,1.773,0,0,1-1.367.586A1.393,1.393,0,0,1,29.6,8.312c0-1.172.977-1.953,2.93-1.953h0c-.2-.586-.391-.977-1.172-.977a2.823,2.823,0,0,0-1.367.391l-.2-.781A3.9,3.9,0,0,1,31.553,4.6c1.367,0,1.953.586,1.953,2.149v2.93Zm0-2.344c-1.172,0-1.758.391-1.758.977a.716.716,0,0,0,.781.781,1.094,1.094,0,0,0,1.172-.977V7.335Z" transform="translate(-17.293 -2.451)"/>
			<path class="a" d="M33.186,4.872a.518.518,0,0,1-.586-.586.624.624,0,0,1,.586-.586.518.518,0,0,1,.586.586A.624.624,0,0,1,33.186,4.872Zm.586,5.665H32.6V5.653h1.172Z" transform="translate(-14.433 -3.309)"/>
			<path class="a" d="M35.272,10.728H34.1V3.5h1.172Z" transform="translate(-13.002 -3.5)"/>
			<path class="a" d="M38.53,9.679V9.093h0a1.773,1.773,0,0,1-1.367.586A1.393,1.393,0,0,1,35.6,8.312c0-1.172.977-1.953,2.93-1.953h0a1.238,1.238,0,0,0-1.172-.977,2.823,2.823,0,0,0-1.367.391l-.2-.781A3.9,3.9,0,0,1,37.554,4.6c1.367,0,1.953.586,1.953,2.149v2.93Zm-.2-2.344c-1.172,0-1.758.391-1.758.977a.716.716,0,0,0,.781.781,1.094,1.094,0,0,0,1.172-.977V7.335Z" transform="translate(-11.572 -2.451)"/>
			<path class="a" d="M41.14,10.828a2.03,2.03,0,0,1-1.563-.781h0v.781H38.6V3.6h1.172V6.53h0a1.585,1.585,0,0,1,1.563-.781c1.172,0,1.953.977,1.953,2.54A2.4,2.4,0,0,1,41.14,10.828Zm-.2-4.3A1.306,1.306,0,0,0,39.772,7.9v.781a1.26,1.26,0,0,0,1.172,1.172c.781,0,1.367-.586,1.367-1.758C42.116,7.116,41.726,6.53,40.944,6.53Z" transform="translate(-8.712 -3.405)"/>
			<path class="a" d="M42.972,10.728H41.8V3.5h1.172Z" transform="translate(-5.66 -3.5)"/>
			<path class="a" d="M47.693,7.435H44.372A1.438,1.438,0,0,0,45.935,9,2.9,2.9,0,0,0,47.3,8.8l.2.781a3.9,3.9,0,0,1-1.758.391,2.36,2.36,0,0,1-2.54-2.54A2.484,2.484,0,0,1,45.544,4.7a2.217,2.217,0,0,1,2.149,2.344S47.693,7.24,47.693,7.435Zm-1.172-.781c0-.781-.391-1.367-1.172-1.367a1.306,1.306,0,0,0-1.172,1.367Z" transform="translate(-4.326 -2.356)"/>
			<path class="a" d="M50.044,9.779A2.422,2.422,0,0,1,47.7,7.24,2.36,2.36,0,0,1,50.24,4.7a2.312,2.312,0,0,1,2.344,2.54A2.586,2.586,0,0,1,50.044,9.779Zm0-4.3A1.578,1.578,0,0,0,48.677,7.24a1.411,1.411,0,1,0,2.735,0C51.412,6.067,50.826,5.481,50.044,5.481Z" transform="translate(-0.035 -2.356)"/>
			<path class="a" d="M55.3,9.584H54.126V6.849c0-.781-.391-1.367-.977-1.367a1.26,1.26,0,0,0-1.172,1.172v2.93H51V4.7h.977v.781h0A1.777,1.777,0,0,1,53.54,4.7c.977,0,1.758.781,1.758,2.149V9.584Z" transform="translate(3.112 -2.356)"/>
			<path class="a" d="M58.33,6.149H57.158V8.493c0,.586.2.977.586.977h.586v.781c-.2,0-.586.2-.781.2-.781,0-1.367-.391-1.367-1.758V6.149H55.4V5.367h.781V4.391L57.353,4V5.172h1.172v.977Z" transform="translate(7.307 -3.023)"/>
			<path class="a" d="M62.093,10.728H60.921V7.993c0-.977-.391-1.367-.977-1.367A1.126,1.126,0,0,0,58.772,7.8v2.93H57.6V3.5h1.172V6.43h0a1.585,1.585,0,0,1,1.563-.781c.977,0,1.758.781,1.758,2.149v2.93Z" transform="translate(9.405 -3.5)"/>
			<path class="a" d="M64.893,7.435H61.572A1.438,1.438,0,0,0,63.135,9,2.9,2.9,0,0,0,64.5,8.8l.2.781a3.9,3.9,0,0,1-1.758.391,2.36,2.36,0,0,1-2.54-2.54A2.484,2.484,0,0,1,62.744,4.7a2.217,2.217,0,0,1,2.149,2.344C65.088,7.044,65.088,7.24,64.893,7.435Zm-.977-.781c0-.781-.391-1.367-.977-1.367a1.306,1.306,0,0,0-1.172,1.367Z" transform="translate(12.074 -2.356)"/>
		</g>
	</g>
</svg>