<svg xmlns="http://www.w3.org/2000/svg" xmlns:xlink="https://www.w3.org/1999/xlink" width="141.578" height="45.001" viewBox="0 0 141.578 45.001">
  <defs>
    <clipPath id="clip-path">
      <path id="Path_7738" data-name="Path 7738" d="M24.435,12.9,18.52,9.545S7.872,3.629,7.083,3.235c-.592-.2-1.183,0-1.183.789V29.658c0,.592.394.789.986.394S18.52,23.545,18.52,23.545l5.915-3.352s4.93-2.761,5.718-3.155q.887-.592,0-1.183C29.562,15.855,24.435,12.9,24.435,12.9Z" transform="translate(-5.9 -3.164)"/>
    </clipPath>
    <linearGradient id="linear-gradient" x1="0.497" y1="-0.003" x2="0.497" y2="1.003" gradientUnits="objectBoundingBox">
      <stop offset="0" stop-color="#257cb0"/>
      <stop offset="0.286" stop-color="#4a93b5"/>
      <stop offset="0.767" stop-color="#78bcbb"/>
      <stop offset="1" stop-color="#89cfbd"/>
    </linearGradient>
    <linearGradient id="linear-gradient-2" x1="-0.003" y1="0.501" x2="0.997" y2="0.501" gradientUnits="objectBoundingBox">
      <stop offset="0" stop-color="#52c1ad"/>
      <stop offset="1" stop-color="#dee89a"/>
    </linearGradient>
    <linearGradient id="linear-gradient-3" x1="0.497" x2="0.497" y2="1" gradientUnits="objectBoundingBox">
      <stop offset="0" stop-color="#ec413d"/>
      <stop offset="0.167" stop-color="#da4452"/>
      <stop offset="0.575" stop-color="#b0487a"/>
      <stop offset="0.862" stop-color="#954a92"/>
      <stop offset="1" stop-color="#8a4a9d"/>
    </linearGradient>
    <linearGradient id="linear-gradient-4" x1="0.497" y1="0.003" x2="0.497" y2="0.999" gradientUnits="objectBoundingBox">
      <stop offset="0" stop-color="#f58879"/>
      <stop offset="0.119" stop-color="#f69079"/>
      <stop offset="0.713" stop-color="#fcb877"/>
      <stop offset="1" stop-color="#fec874"/>
    </linearGradient>
  </defs>
  <g id="Group_3371" data-name="Group 3371" transform="translate(0 0.5)">
    <g id="Group_3362" data-name="Group 3362">
      <path id="Path_7714" data-name="Path 7714" d="M140.3,38.387a4.058,4.058,0,0,1-3.944,4.141H4.444A4.058,4.058,0,0,1,.5,38.387V4.641A4.058,4.058,0,0,1,4.444.5H136.162a4.058,4.058,0,0,1,3.944,4.141l.2,33.747Z" transform="translate(0.486 0.486)" fill="#fff"/>
      <path id="Path_7715" data-name="Path 7715" d="M136.648,44H4.93A5,5,0,0,1,0,38.836V5.164A5,5,0,0,1,4.93,0H136.648a5,5,0,0,1,4.93,5.164V38.836A5,5,0,0,1,136.648,44Z"/>
      <path id="Path_7716" data-name="Path 7716" d="M140.3,40.166a4.166,4.166,0,0,1-3.944,4.335H4.444A4.166,4.166,0,0,1,.5,40.166V4.835A4.166,4.166,0,0,1,4.444.5H136.162a4.166,4.166,0,0,1,3.944,4.335l.2,35.331Z" transform="translate(0.486 -0.5)" stroke="#80868a" stroke-width="1"/>
    </g>
    <g id="Group_3363" data-name="Group 3363" transform="translate(45.944 6.889)">
      <path id="Path_7718" data-name="Path 7718" d="M26.455,3.6a2.628,2.628,0,0,1,1.972.789l-.592.789a1.79,1.79,0,0,0-1.38-.592c-1.183,0-1.972.986-1.972,2.563s.789,2.563,2.169,2.563a1.506,1.506,0,0,0,.986-.394V7.938h-1.38V6.755h2.366V9.713a3.153,3.153,0,0,1-2.169.789C24.68,10.5,23.3,9.318,23.3,6.952A3.165,3.165,0,0,1,26.455,3.6Z" transform="translate(-23.3 -3.008)" fill="#e1e1e1"/>
      <path id="Path_7719" data-name="Path 7719" d="M28.966,4.5a2.126,2.126,0,0,1,2.169,2.366v.592H27.783a1.5,1.5,0,0,0,1.577,1.38,2.8,2.8,0,0,0,1.183-.394l.394.789a3.18,3.18,0,0,1-1.775.592A2.54,2.54,0,0,1,26.6,7.063,2.447,2.447,0,0,1,28.966,4.5Zm.986,2.169c0-.789-.394-1.38-.986-1.38s-1.183.394-1.183,1.38Z" transform="translate(-20.093 -2.134)" fill="#e1e1e1"/>
      <path id="Path_7720" data-name="Path 7720" d="M29.889,6.166H29.1V5.18h.789l.2-1.38h.986V5.18h1.38v.986h-1.38V8.532c0,.592.2.986.789.986a.724.724,0,0,0,.592-.2l.2.986a8.54,8.54,0,0,1-.986.2c-1.183,0-1.577-.789-1.577-1.775V6.166Z" transform="translate(-17.663 -2.814)" fill="#e1e1e1"/>
      <path id="Path_7721" data-name="Path 7721" d="M32.3,4.089a.848.848,0,0,1,.789-.789.722.722,0,0,1,.789.789c0,.394-.394.592-.789.592C32.694,4.877,32.3,4.483,32.3,4.089Zm.2,1.577H33.68v5.127H32.5Z" transform="translate(-14.554 -3.3)" fill="#e1e1e1"/>
      <path id="Path_7722" data-name="Path 7722" d="M34.289,6.166H33.5V5.18h.789l.2-1.38h.986V5.18h1.38v.986h-1.38V8.532c0,.592.2.986.789.986a.724.724,0,0,0,.592-.2l.2.986a8.54,8.54,0,0,1-.986.2c-1.183,0-1.577-.789-1.577-1.775V6.166Z" transform="translate(-13.387 -2.814)" fill="#e1e1e1"/>
      <path id="Path_7723" data-name="Path 7723" d="M39.077,4.5c1.38,0,2.366.986,2.366,2.761a2.394,2.394,0,1,1-4.732,0A2.309,2.309,0,0,1,39.077,4.5Zm0,4.338q1.183,0,1.183-1.775c0-.986-.394-1.775-1.183-1.775s-1.183.592-1.183,1.775A1.359,1.359,0,0,0,39.077,8.838Z" transform="translate(-10.288 -2.134)" fill="#e1e1e1"/>
      <path id="Path_7724" data-name="Path 7724" d="M39.7,4.5h.986v.789h0A2.5,2.5,0,0,1,42.461,4.5c1.183,0,1.577.789,1.577,1.972V9.627H42.855V6.669c0-.789-.2-1.183-.789-1.183a1.7,1.7,0,0,0-1.183.592V9.627H39.7V4.5Z" transform="translate(-7.362 -2.134)" fill="#e1e1e1"/>
    </g>
    <g id="Group_3364" data-name="Group 3364" transform="translate(102.338 21.635)">
      <path id="Path_7725" data-name="Path 7725" d="M55.844,20.576a4.641,4.641,0,0,1-1.577-.394,5.228,5.228,0,0,1-1.183-.986h0v4.93H51.9V12.1h.986l.2,1.183h0a5.228,5.228,0,0,1,1.183-.986,3.715,3.715,0,0,1,1.577-.394,2.929,2.929,0,0,1,2.563,1.183,5.017,5.017,0,0,1,.986,3.155,5.017,5.017,0,0,1-.986,3.155A2.93,2.93,0,0,1,55.844,20.576Zm-.2-7.69a1.922,1.922,0,0,0-1.775.789,3.172,3.172,0,0,0-.592,2.169v.2a4.474,4.474,0,0,0,.592,2.563,2.077,2.077,0,0,0,1.972.789,1.922,1.922,0,0,0,1.775-.789,4.205,4.205,0,0,0,.592-2.366,4.205,4.205,0,0,0-.592-2.366A2.738,2.738,0,0,0,55.646,12.886Z" transform="translate(-51.9 -8.548)" fill="#fff"/>
      <path id="Path_7726" data-name="Path 7726" d="M57.783,22.031H56.6V10.2h1.183Z" transform="translate(-47.332 -10.2)" fill="#fff"/>
      <path id="Path_7727" data-name="Path 7727" d="M63.718,20.476l-.2-1.183h0a2.629,2.629,0,0,1-1.183.986,3.844,3.844,0,0,1-1.577.2,2.944,2.944,0,0,1-1.972-.592A2.5,2.5,0,0,1,58,18.11c0-1.775,1.38-2.563,4.141-2.761h1.38v-.592a2.3,2.3,0,0,0-.394-1.38c-.2-.394-.789-.394-1.38-.394a5.25,5.25,0,0,0-2.366.592l-.394-.986A9.613,9.613,0,0,1,60.366,12a4.342,4.342,0,0,1,1.577-.2,3.172,3.172,0,0,1,2.169.592,3.153,3.153,0,0,1,.789,2.169v5.718H63.718Zm-2.958-.789a2.41,2.41,0,0,0,1.775-.592,2.41,2.41,0,0,0,.592-1.775v-.789H61.944a5.277,5.277,0,0,0-2.169.394,1.535,1.535,0,0,0-.592,1.38,1.506,1.506,0,0,0,.394.986A2.8,2.8,0,0,0,60.761,19.687Z" transform="translate(-45.972 -8.645)" fill="#fff"/>
      <path id="Path_7728" data-name="Path 7728" d="M61.7,12h1.38l1.775,4.732c.394,1.183.592,1.972.789,2.366h0a8.036,8.036,0,0,1,.394-1.38c.2-.592.986-2.563,2.169-5.718h1.38l-3.549,9.465a5.693,5.693,0,0,1-1.183,1.972,2.41,2.41,0,0,1-1.775.592,2.5,2.5,0,0,1-1.183-.2v-.986h.986a1.688,1.688,0,0,0,1.775-1.38l.394-1.183Z" transform="translate(-42.376 -8.451)" fill="#fff"/>
    </g>
    <g id="Group_3366" data-name="Group 3366" transform="translate(44.366 21.127)">
      <path id="Path_7729" data-name="Path 7729" d="M45.3,12.789a2.982,2.982,0,0,1,1.183,2.366,3.293,3.293,0,0,1-1.38,2.563c-.2.2-.592.394-.592.789a1.024,1.024,0,0,0,.394.789l.592.394a2.736,2.736,0,0,1,1.38,2.366c0,1.577-1.577,3.352-4.535,3.352-2.563,0-3.746-1.183-3.746-2.563a2.749,2.749,0,0,1,1.38-2.169,8.131,8.131,0,0,1,3.352-.789c-.2-.394-.592-.592-.592-1.183,0-.394,0-.394.2-.592h-.592a2.867,2.867,0,0,1-2.958-2.761,3.082,3.082,0,0,1,1.183-2.366A4.966,4.966,0,0,1,43.727,12h3.549l-1.183.592H45.3Zm-1.38,7.69H43.53a6.792,6.792,0,0,0-1.775.2c-.394.2-1.577.592-1.577,1.775s1.183,2.169,3.155,2.169c1.775,0,2.563-.789,2.563-1.972C45.9,21.859,45.3,21.465,43.924,20.479Zm.592-3.352a1.667,1.667,0,0,0,.394-1.183c0-1.183-.789-3.155-2.169-3.155a1.405,1.405,0,0,0-1.183.592,1.664,1.664,0,0,0-.394,1.38c0,1.183.592,3.155,2.169,3.155A4.125,4.125,0,0,0,44.515,17.127Z" transform="translate(-6.854 -7.465)" fill="#fff"/>
      <path id="Path_7730" data-name="Path 7730" d="M38.538,20.379A4.206,4.206,0,0,1,34.2,16.238,4.422,4.422,0,0,1,38.735,11.9a4.04,4.04,0,0,1,4.141,4.141A4.246,4.246,0,0,1,38.538,20.379ZM40.707,19a3.331,3.331,0,0,0,.592-1.972c0-1.577-.789-4.535-2.958-4.535a2.239,2.239,0,0,0-1.577.592,2.965,2.965,0,0,0-.789,2.169c0,1.775.789,4.535,2.958,4.535A2.937,2.937,0,0,0,40.707,19Z" transform="translate(-11.13 -7.562)" fill="#fff"/>
      <path id="Path_7731" data-name="Path 7731" d="M33.638,20.379A4.206,4.206,0,0,1,29.3,16.238,4.422,4.422,0,0,1,33.835,11.9a4.04,4.04,0,0,1,4.141,4.141A4.023,4.023,0,0,1,33.638,20.379ZM35.807,19a3.331,3.331,0,0,0,.592-1.972c0-1.577-.789-4.535-2.958-4.535a2.239,2.239,0,0,0-1.577.592,2.965,2.965,0,0,0-.789,2.169c0,1.775.789,4.535,2.958,4.535A2.5,2.5,0,0,0,35.807,19Z" transform="translate(-15.892 -7.562)" fill="#fff"/>
      <path id="Path_7732" data-name="Path 7732" d="M34.725,21.831l-2.563.592a15.221,15.221,0,0,1-2.958.394c-4.93,0-6.7-3.549-6.7-6.31C22.5,13.155,25.063,10,29.6,10a13.315,13.315,0,0,1,2.761.394,5.054,5.054,0,0,1,2.366,1.183l-1.38,1.38-.592.2.394-.789A5.125,5.125,0,0,0,29.4,10.789a4.93,4.93,0,0,0-4.93,5.127,6.268,6.268,0,0,0,6.31,6.507,4.6,4.6,0,0,0,2.169-.394V19.268l-2.563.2,1.38-.789h3.549l-.394.394-.2.2v2.563Z" transform="translate(-22.5 -9.408)" fill="#fff"/>
      <path id="Path_7733" data-name="Path 7733" d="M46.646,21.728c-.592,0-.789-.2-.789-.789V10.686c0-.592.2-.789.789-.986H44.083l-1.183.592h1.38V21.137c0,.394,0,.394-.394.986h3.155l.592-.394Z" transform="translate(-2.675 -9.7)" fill="#fff"/>
      <path id="Path_7734" data-name="Path 7734" d="M51.607,19.593c-.2.2-.394.2-.592.394a5.757,5.757,0,0,1-1.775.394,4.132,4.132,0,0,1-2.366-.592A4.58,4.58,0,0,1,45.1,16.044,3.815,3.815,0,0,1,49.044,12.1a5.758,5.758,0,0,1,1.775.394A2.76,2.76,0,0,1,52,14.269l-4.141,1.577h-.986A3.958,3.958,0,0,0,50.424,19.4a5.718,5.718,0,0,0,2.169-.592ZM50.03,14.269c.394-.2.592-.2.592-.394A1.738,1.738,0,0,0,48.846,12.3a2.088,2.088,0,0,0-1.972,2.366v.986Z" transform="translate(-0.537 -7.368)" fill="#fff"/>
      <g id="Group_3365" data-name="Group 3365" transform="translate(52.254 4.338)">
        <path id="Path_7735" data-name="Path 7735" d="M49.592,12.1V13.28h-.2l.2-1.183H49v-.2h.986v.2Z" transform="translate(-49 -11.9)" fill="#fff"/>
        <path id="Path_7736" data-name="Path 7736" d="M50.586,13.183V12h0l-.394,1.183h-.2L49.8,12h0v1.183h-.2V12h.2l.394.986h0L50.586,12h.2l-.2,1.183Z" transform="translate(-48.417 -11.803)" fill="#fff"/>
      </g>
    </g>
    <g id="PLAY_1_" transform="translate(11.634 6.239)">
      <g id="Group_3367" data-name="Group 3367" clip-path="url(#clip-path)">
        <path id="Path_7737" data-name="Path 7737" d="M5.9,3V30.606L20.492,16.8Z" transform="translate(-5.9 -3.323)" fill="url(#linear-gradient)"/>
      </g>
      <g id="Group_3368" data-name="Group 3368" clip-path="url(#clip-path)">
        <path id="Path_7739" data-name="Path 7739" d="M24.435,13.154,18.52,10,5.9,2.9v.2L20.492,16.9Z" transform="translate(-5.9 -3.42)" fill="url(#linear-gradient-2)"/>
      </g>
      <g id="Group_3369" data-name="Group 3369" clip-path="url(#clip-path)">
        <path id="Path_7741" data-name="Path 7741" d="M5.9,23.8V24l12.62-6.9,5.915-3.352L20.492,10Z" transform="translate(-5.9 3.48)" fill="url(#linear-gradient-3)"/>
      </g>
      <g id="Group_3370" data-name="Group 3370" clip-path="url(#clip-path)">
        <path id="Path_7743" data-name="Path 7743" d="M17.244,8.1,13.3,11.846l3.944,3.746,6.7-3.746Z" transform="translate(1.292 1.633)" fill="url(#linear-gradient-4)"/>
      </g>
    </g>
  </g>
</svg>
