<svg xmlns="http://www.w3.org/2000/svg" width="80" height="80" viewBox="0 0 80 80">
  <g id="Group_8087" data-name="Group 8087" transform="translate(-651 -3069)">
    <rect id="PROTECTING_CHILDREN_" data-name="PROTECTING CHILDREN " width="80" height="80" transform="translate(651 3069)" fill="#fff" opacity="0.002"/>
    <path id="Union_357" data-name="Union 357" d="M62.834,62.745V56.629H46.972a12.339,12.339,0,0,1-22.715,0H8.4v6.116a1.4,1.4,0,0,1-2.8,0V56.489A7.006,7.006,0,0,1,0,49.631V45.709a1.4,1.4,0,0,1,2.8,0v3.922a4.2,4.2,0,0,0,4.2,4.2H21.11V49.351H10.059a1.4,1.4,0,0,1,0-2.8H23.28V36.685a12.283,12.283,0,0,1,.676-4.03,5.4,5.4,0,0,1-8.564-3.142h-2.7a9.859,9.859,0,0,0-8.359,4.6,1.4,1.4,0,0,1-1.185.649,1.424,1.424,0,0,1-.747-.217,1.4,1.4,0,0,1-.432-1.934,12.646,12.646,0,0,1,10.723-5.9h2.573V24.665a10.091,10.091,0,0,1-4.684-8.512v-5.4A10.765,10.765,0,0,1,21.339,0h8.612a1.4,1.4,0,0,1,1.4,1.4V8.8a5.651,5.651,0,0,1-.59,2.513v4.01a10.947,10.947,0,0,1-4.681,9.317v2.071H28.36a12.268,12.268,0,0,1,7.254-2.364q.384,0,.759.022a15.03,15.03,0,0,1-.351-3.235V16.242a14.975,14.975,0,0,1,29.951,0v4.894A14.912,14.912,0,0,1,63.421,29.5a11.739,11.739,0,0,1,8.237,11.185v8.944a7.01,7.01,0,0,1-6.024,6.931v6.183a1.4,1.4,0,1,1-2.8,0ZM30.746,50.907a5.181,5.181,0,0,1,.051.683A5.051,5.051,0,0,1,27.253,56.4a9.545,9.545,0,0,0,16.789-.118A5.036,5.036,0,0,1,45.155,46.6V36.5Zm19.764,2.923H64.66a4.2,4.2,0,0,0,4.2-4.2V40.687a8.925,8.925,0,0,0-8.913-8.913H56.069a5.213,5.213,0,0,1-8.269,2.97,12.256,12.256,0,0,1,.155,1.94v9.867H61.563a1.4,1.4,0,0,1,0,2.8H50.509ZM43.625,51.59a2.243,2.243,0,0,0,2.239,2.239H47.71V49.351H45.864A2.243,2.243,0,0,0,43.625,51.59ZM23.909,53.829h1.849a2.239,2.239,0,0,0,0-4.479H23.909Zm2.171-7.267a5.03,5.03,0,0,1,3.407,1.647l4.151-4.151L26.082,36.5C26.082,36.564,26.079,46.562,26.079,46.562Zm5.72-9.877a3.815,3.815,0,1,0,3.815-3.816A3.816,3.816,0,0,0,31.8,36.685Zm10.333-1.123,2.358-2.36a9.535,9.535,0,0,0-17.754,0l2.361,2.36a6.612,6.612,0,0,1,13.034,0Zm6.432-4.949a2.418,2.418,0,1,0,4.836,0V28.17a8.971,8.971,0,0,1-4.836-.009Zm-30.5-2.25a2.607,2.607,0,0,0,5.214,0V25.905a10.181,10.181,0,0,1-5.214-.006ZM54.4,10.2a6.307,6.307,0,0,1-.548,2.588,3.042,3.042,0,0,0,2.245.993h2.537a1.4,1.4,0,0,1,1.4,1.4v4.285A9.038,9.038,0,0,1,56.2,26.843v2.132s3.984.006,4.1.009a12.131,12.131,0,0,0,2.868-7.848V16.242a12.176,12.176,0,1,0-24.352,0v4.894a12.148,12.148,0,0,0,.613,3.818,12.376,12.376,0,0,1,5.8,4.022h.527V26.821a9.034,9.034,0,0,1-3.8-7.36V15.176a1.4,1.4,0,0,1,1.4-1.4h4.66A3.582,3.582,0,0,0,51.6,10.2a1.4,1.4,0,1,1,2.8,0Zm-9.639,9.265a6.237,6.237,0,1,0,12.474,0V16.576H56.1a5.836,5.836,0,0,1-3.937-1.528,6.359,6.359,0,0,1-4.136,1.528H44.762Zm-31.38-3.308a7.3,7.3,0,0,0,7.29,7.293c4.225,0,7.29-3.419,7.29-8.12V14a5.674,5.674,0,0,1-2.3.487H13.382Zm0-5.4v.932H25.666A2.889,2.889,0,0,0,28.551,8.8v-6H21.339A7.966,7.966,0,0,0,13.382,10.754ZM.408,40.4A1.4,1.4,0,1,1,2.8,39.408a1.41,1.41,0,0,1-.414.992,1.383,1.383,0,0,1-.986.408A1.4,1.4,0,0,1,.408,40.4Z" transform="translate(654 3075.002)" fill="#121212"/>
  </g>
</svg>
