<svg xmlns="http://www.w3.org/2000/svg" width="81.604" height="80" viewBox="0 0 81.604 80">
  <g id="Group_8088" data-name="Group 8088" transform="translate(-650.699 -3069)">
    <rect id="Rectangle_9923" data-name="Rectangle 9923" width="80" height="80" transform="translate(651.001 3069)" fill="#fff" opacity="0.002"/>
    <path id="Union_358" data-name="Union 358" d="M18256,16633.467v-16.451l18.357-33.271V16580h4.688v2h31.73v-2h4.688v3.248l20.539,33.709v16.506Zm42.346-4.686h32.967v-8.82h-32.967Zm-19.3,0h14.611v-10.533s-12.375-21.314-14.611-25.189Zm-18.355-10.561v10.561h13.668v-35.723C18270.8,16599.221,18260.689,16618.221,18260.689,16618.221Zm36.662-2.945h32.133l-17.416-28.58h-31.3Zm5.232-8.541-7.947-13.059h13.064l7.941,13.055v0Zm2.053-4.053h4.2l-3.029-4.951h-4.2Z" transform="translate(-17604.5 -13497.505)" stroke="#fff" stroke-width="1.6"/>
  </g>
</svg>
