<svg xmlns="http://www.w3.org/2000/svg" width="80" height="80" viewBox="0 0 80 80">
  <g id="Group_8093" data-name="Group 8093" transform="translate(-651 -3069)">
    <rect id="Rectangle_9923" data-name="Rectangle 9923" width="80" height="80" transform="translate(651 3069)" fill="#fff" opacity="0.002"/>
    <path id="Path_22074" data-name="Path 22074" d="M84.15,27.359l-3.44-8.6,3.44-8.6a1.366,1.366,0,0,0-1.268-1.873H66.945V5.1a1.366,1.366,0,0,0-1.366-1.366H48.732V1.366a1.366,1.366,0,0,0-2.732,0V63.752a1.366,1.366,0,0,0,2.732,0V24.679H59.66v3.187a1.369,1.369,0,0,0,1.366,1.366H82.882a1.366,1.366,0,0,0,1.268-1.873ZM64.213,21.947H48.732V6.466H64.213Zm.11,4.553,2.221-2.221a1.382,1.382,0,0,0,.4-.966V11.019H80.864l-2.893,7.233a1.367,1.367,0,0,0,0,1.015L80.864,26.5Z" transform="translate(616 3075)"/>
    <path id="Path_22075" data-name="Path 22075" d="M26.518,39.731A8.162,8.162,0,0,0,16.361,26.988,8.166,8.166,0,0,0,6.192,39.731,11.6,11.6,0,0,0,0,50.04v3.5a1.168,1.168,0,0,0,1.168,1.168H31.542a1.168,1.168,0,0,0,1.168-1.168v-3.5A11.6,11.6,0,0,0,26.518,39.731Zm-5.49-11.886A5.833,5.833,0,0,1,23.428,39c-.09.041-.18.078-.271.117a5.726,5.726,0,0,1-.889.277c-.058.013-.117.02-.176.032a5.843,5.843,0,0,1-1.028.1c-.155,0-.312-.012-.467-.026a.883.883,0,0,1-.175-.012,5.9,5.9,0,0,1-1.91-.563c-.022-.011-.048-.009-.07-.019-.117-.056-.234-.105-.338-.168.009-.012.015-.025.025-.036a8.2,8.2,0,0,0,1.251-2.279l.036-.1a8.239,8.239,0,0,0,.31-1.2c.011-.06.019-.117.028-.181a7.457,7.457,0,0,0,0-2.509c-.009-.061-.018-.117-.028-.181a8.241,8.241,0,0,0-.31-1.2l-.036-.1a8.2,8.2,0,0,0-1.251-2.279c-.009-.012-.015-.025-.025-.036A5.8,5.8,0,0,1,21.028,27.845ZM5.842,33.686A5.826,5.826,0,0,1,15.7,29.466c.068.065.134.131.2.2a6.007,6.007,0,0,1,.554.672c.051.072.1.15.146.224a5.746,5.746,0,0,1,.429.789c.029.067.051.134.077.2a5.71,5.71,0,0,1,.29.935c.008.035.011.07.018.106a5.5,5.5,0,0,1,0,2.2c-.007.036-.009.071-.018.106a5.7,5.7,0,0,1-.29.935c-.026.067-.048.134-.077.2a5.767,5.767,0,0,1-.429.787c-.048.075-.095.152-.146.224a5.992,5.992,0,0,1-.554.672c-.065.068-.132.133-.2.2A5.831,5.831,0,0,1,14.087,39c-.095.043-.19.083-.287.117a5.876,5.876,0,0,1-.867.269c-.074.016-.15.026-.224.039a5.8,5.8,0,0,1-.961.1h-.128a5.789,5.789,0,0,1-.961-.1c-.075-.013-.151-.022-.224-.039a5.873,5.873,0,0,1-.867-.269L9.279,39A5.84,5.84,0,0,1,5.842,33.686ZM21.028,52.376H2.337V50.04a9.287,9.287,0,0,1,6.212-8.8,8.152,8.152,0,0,0,6.266,0,9.386,9.386,0,0,1,1.138.5c.243.125.467.267.7.411.152.095.306.187.452.291.225.16.438.334.647.513.134.117.267.234.394.35.193.182.374.375.548.572.125.143.246.287.362.437.153.2.3.4.435.6.117.175.221.357.324.54.117.2.224.4.322.611s.185.438.269.661c.074.194.152.387.213.584.082.271.139.551.2.832.035.166.081.328.106.5a9.662,9.662,0,0,1,.106,1.4v2.336Zm9.345,0H23.364V50.04c0-.366-.021-.728-.054-1.086-.009-.105-.026-.209-.037-.314-.032-.258-.068-.514-.117-.768q-.032-.162-.067-.326-.084-.39-.2-.773c-.025-.084-.047-.169-.072-.252a11.575,11.575,0,0,0-1.408-2.952l-.046-.067q-.3-.447-.644-.866l-.008-.011a10.6,10.6,0,0,0-.753-.838h.048a8.268,8.268,0,0,0,.994.07h.064a8.262,8.262,0,0,0,.921-.06c.1-.012.19-.029.286-.044q.373-.057.736-.148c.069-.018.139-.034.209-.054a7.954,7.954,0,0,0,.935-.318,9.287,9.287,0,0,1,6.217,8.806v2.336Z" transform="translate(673 3085.288)" stroke="#121212" stroke-width="0.5"/>
  </g>
</svg>
