<svg xmlns="http://www.w3.org/2000/svg" width="80" height="80" viewBox="0 0 80 80">
  <g id="Group_8089" data-name="Group 8089" transform="translate(-651 -3069)">
    <rect id="Rectangle_9923" data-name="Rectangle 9923" width="80" height="80" transform="translate(651 3069)" fill="#fff" opacity="0.002"/>
    <path id="Union_359" data-name="Union 359" d="M18257.27,16645a1.27,1.27,0,0,1,0-2.539h2.227v-5.689a1.266,1.266,0,0,1,.963-1.232l5.9-1.471,2.113-5.1-3.131-5.211a1.27,1.27,0,0,1,.189-1.551l4.92-4.922a1.27,1.27,0,0,1,1.551-.189l5.213,3.133,5.1-2.115,1.471-5.9a1.27,1.27,0,0,1,1.232-.963h6.957a1.268,1.268,0,0,1,1.23.963l1.469,5.9,5.105,2.115,5.211-3.133a1.273,1.273,0,0,1,1.551.189l4.922,4.922a1.273,1.273,0,0,1,.191,1.551l-3.133,5.211,2.115,5.1,5.9,1.471a1.268,1.268,0,0,1,.963,1.232v5.689h2.229a1.27,1.27,0,0,1,0,2.539Zm36.109-17.525a13.68,13.68,0,0,1,8.609,14.986h12.975v-4.7l-5.559-1.387a1.26,1.26,0,0,1-.865-.744l-2.605-6.287a1.259,1.259,0,0,1,.086-1.141l2.949-4.908-3.516-3.518-4.912,2.951a1.261,1.261,0,0,1-1.139.084l-6.285-2.6a1.273,1.273,0,0,1-.748-.867l-1.383-5.559h-4.973l-1.387,5.559a1.272,1.272,0,0,1-.744.867l-6.287,2.6a1.266,1.266,0,0,1-1.141-.084l-4.91-2.951-3.518,3.518,2.953,4.908a1.271,1.271,0,0,1,.084,1.141l-2.605,6.287a1.26,1.26,0,0,1-.865.744l-5.559,1.387v4.7h12.975a13.678,13.678,0,0,1,3.822-11.879,13.533,13.533,0,0,1,4.84-3.125,1.269,1.269,0,0,1,.9,2.375,11.011,11.011,0,0,0-3.939,2.545,11.137,11.137,0,0,0-3.041,10.084h21.82a11.134,11.134,0,0,0-6.937-12.613,1.271,1.271,0,0,1,.453-2.457A1.292,1.292,0,0,1,18293.379,16627.477Zm-4.838,1.643h-.041a1.27,1.27,0,0,1,0-2.539h.057a1.27,1.27,0,0,1-.006,2.539Zm-32.168-6.924a1.274,1.274,0,0,1,0-1.8l17.434-17.436a1.271,1.271,0,1,1,1.8,1.8l-2.051,2.049,6.881,6.881a1.269,1.269,0,1,1-1.795,1.793l-6.881-6.879-13.592,13.592a1.276,1.276,0,0,1-1.795,0Zm39.9-8.57a1.261,1.261,0,1,1,.895.373A1.259,1.259,0,0,1,18296.273,16613.625Zm3.141-3.141a1.267,1.267,0,0,1,0-1.8l12.883-12.887-7.086-7.086-15.992,15.99,2.023,2.02a1.27,1.27,0,1,1-1.8,1.795l-17.686-17.686-13.59,13.59a1.273,1.273,0,0,1-1.8,0,1.272,1.272,0,0,1,0-1.795l14.488-14.486a1.271,1.271,0,0,1,1.8,0l14.766,14.766,15.988-15.99-4.75-4.752a1.267,1.267,0,0,1,.9-2.164h20.17a1.268,1.268,0,0,1,1.27,1.27v20.166a1.271,1.271,0,0,1-.783,1.176,1.289,1.289,0,0,1-.486.094,1.27,1.27,0,0,1-.9-.369l-4.738-4.738-12.885,12.885a1.271,1.271,0,0,1-1.795,0Zm19.047-12.109v-15.834h-15.836Z" transform="translate(-17597 -13503.002)" stroke="#121212" stroke-width="0.1"/>
  </g>
</svg>
