<svg xmlns="http://www.w3.org/2000/svg" width="80" height="80" viewBox="0 0 80 80">
  <g id="Group_8090" data-name="Group 8090" transform="translate(-651 -3069)">
    <rect id="Rectangle_9923" data-name="Rectangle 9923" width="80" height="80" transform="translate(651 3069)" fill="#fff" opacity="0.002"/>
    <path id="Union_360" data-name="Union 360" d="M18301.83,16645v-8.7l-13.33-10-13.33,10v8.7H18256v-9.648a9.6,9.6,0,0,1,18.561-3.352l12.035-9.027v-8.568h-7.617v-9.521a9.521,9.521,0,0,1,19.043,0v9.521h-7.617v8.568l12.037,9.027a9.534,9.534,0,0,1,8.91-6.17,7.617,7.617,0,0,1,0-15.234,7.618,7.618,0,1,1,0,15.234,9.624,9.624,0,0,1,9.648,9.521V16645Zm3.809-9.648v5.84h11.553v-5.84a5.854,5.854,0,0,0-5.84-5.713A5.719,5.719,0,0,0,18305.639,16635.354Zm-45.83,0v5.84h11.553v-5.84a5.719,5.719,0,0,0-5.713-5.713A5.854,5.854,0,0,0,18259.809,16635.354Zm47.734-17.139a3.813,3.813,0,0,0,3.809,3.809,3.811,3.811,0,1,0,0-7.617A3.813,3.813,0,0,0,18307.543,16618.215Zm-24.756-13.33v5.713h11.426v-5.713a5.713,5.713,0,0,0-11.426,0Zm-24.756,13.33a7.617,7.617,0,1,1,7.617,7.617A7.626,7.626,0,0,1,18258.031,16618.215Zm3.809,0a3.809,3.809,0,1,0,3.809-3.809A3.813,3.813,0,0,0,18261.84,16618.215Zm19.043-30.469a7.618,7.618,0,1,1,15.234,0,7.617,7.617,0,0,1-15.234,0Zm3.809,0a3.809,3.809,0,0,0,7.617,0,3.811,3.811,0,1,0-7.617,0Z" transform="translate(-17597 -13503.002)" stroke="#fff" stroke-width="1"/>
  </g>
</svg>
