<svg xmlns="http://www.w3.org/2000/svg" width="356" height="332" viewBox="0 0 356 332">
  <g id="Group_14671" data-name="Group 14671" transform="translate(23838 12922.802)">
    <rect id="Rectangle_10239" data-name="Rectangle 10239" width="356" height="332" transform="translate(-23838 -12922.802)" fill="#fff" opacity="0"/>
    <g id="chart_3_" data-name="chart (3)" transform="translate(-23948.949 -12964.805)">
      <text id="Total_1.571B" data-name="Total $1.571B" transform="translate(231.964 207.487)" fill="#120009" font-size="17" font-family="Helvetica Neue" font-weight="700"><tspan x="0" y="0">Total $1.571B</tspan></text>
      <g id="Group_14663" data-name="Group 14663" transform="translate(166.961 80.624)">
        <g id="Group_14662" data-name="Group 14662">
          <path id="Path_31849" data-name="Path 31849" d="M289.969,16.252a6.041,6.041,0,0,1,6.359-6.034A120.451,120.451,0,0,1,399.737,80.857a6.041,6.041,0,0,1-3.308,8.118l-33.7,13.148a6.041,6.041,0,0,1-7.638-3,72.271,72.271,0,0,0-59.54-40.672,6.041,6.041,0,0,1-5.577-6.022Z" transform="translate(-169.533 -10.21)" fill="#e6ae06" stroke="#fff" stroke-linejoin="round" stroke-width="2"/>
          <path id="Path_31850" data-name="Path 31850" d="M357.426,89.085a6.041,6.041,0,0,1,7.929,3.74A120.451,120.451,0,1,1,244.421,10.231a6.041,6.041,0,0,1,6.369,6.024l.05,36.171a6.041,6.041,0,0,1-5.567,6.031,72.271,72.271,0,1,0,74.85,51.12,6.041,6.041,0,0,1,3.592-7.38Z" transform="translate(-130.489 -10.213)" fill="#9f0056" stroke="#fff" stroke-linejoin="round" stroke-width="2"/>
        </g>
      </g>
      <g id="Group_14666" data-name="Group 14666" transform="translate(153.949 46)">
        <path id="Path_31851" data-name="Path 31851" d="M394.939,21.344h-4.569l-8.255,12.069L380.05,36.43" transform="translate(-198.098 -6.408)" fill="none" stroke="#e6ae06" stroke-width="1"/>
        <path id="Path_31852" data-name="Path 31852" d="M188.658,321.154v-4.921l8.255-12.069,2.064-3.017" transform="translate(-147.8 -25.938)" fill="none" stroke="#9f0056" stroke-width="1"/>
        <g id="Group_14664" data-name="Group 14664" transform="translate(205.667)">
          <g id="Group" transform="translate(0)">
            <text id="Humanitarian_aid" data-name="Humanitarian aid" transform="translate(0 12)" fill="#fff" stroke="#fff" stroke-linejoin="round" stroke-width="2" font-size="12" font-family="Helvetica Neue" font-weight="700"><tspan x="0" y="0">Humanitarian aid</tspan></text>
            <text id="_" data-name="​" transform="translate(0 24.794)" fill="#fff" stroke="#fff" stroke-linejoin="round" stroke-width="2" font-size="12" font-family="Helvetica Neue" font-weight="700"><tspan x="0" y="0">​</tspan></text>
            <text id="_300.0M" data-name="$300.0M" transform="translate(0 24.794)" fill="#fff" stroke="#fff" stroke-linejoin="round" stroke-width="2" font-size="12" font-family="Helvetica Neue" font-weight="700"><tspan x="0" y="0">$300.0M</tspan></text>
            <text id="_2" data-name="​" transform="translate(0 12)" fill="#fff" stroke="#fff" stroke-linejoin="round" stroke-width="2" font-size="12" font-family="Helvetica Neue" font-weight="700"><tspan x="0" y="0">​</tspan></text>
            <text id="Humanitarian_aid-2" data-name="Humanitarian aid" transform="translate(0 12)" font-size="12" font-family="Helvetica Neue" font-weight="700"><tspan x="0" y="0">Humanitarian aid</tspan></text>
            <text id="_3" data-name="​" transform="translate(0 24.794)" font-size="12" font-family="Helvetica Neue" font-weight="700"><tspan x="0" y="0">​</tspan></text>
            <text id="_300.0M-2" data-name="$300.0M" transform="translate(0 24.794)" font-size="12" font-family="Helvetica Neue" font-weight="700"><tspan x="0" y="0">$300.0M</tspan></text>
          </g>
        </g>
        <g id="Group_14665" data-name="Group 14665" transform="translate(0 297.007)">
          <g id="Group-2" data-name="Group" transform="translate(0 0)">
            <text id="Development_aid" data-name="Development aid" transform="translate(0 12)" fill="#fff" stroke="#fff" stroke-linejoin="round" stroke-width="2" font-size="12" font-family="Helvetica Neue" font-weight="700"><tspan x="0" y="0">Development aid</tspan></text>
            <text id="_4" data-name="​" transform="translate(0 24.794)" fill="#fff" stroke="#fff" stroke-linejoin="round" stroke-width="2" font-size="12" font-family="Helvetica Neue" font-weight="700"><tspan x="0" y="0">​</tspan></text>
            <text id="_1271.0M" data-name="$1271.0M" transform="translate(0 24.794)" fill="#fff" stroke="#fff" stroke-linejoin="round" stroke-width="2" font-size="12" font-family="Helvetica Neue" font-weight="700"><tspan x="0" y="0">$1271.0M</tspan></text>
            <text id="_5" data-name="​" transform="translate(0 12)" fill="#fff" stroke="#fff" stroke-linejoin="round" stroke-width="2" font-size="12" font-family="Helvetica Neue" font-weight="700"><tspan x="0" y="0">​</tspan></text>
            <text id="Development_aid-2" data-name="Development aid" transform="translate(0 12)" font-size="12" font-family="Helvetica Neue" font-weight="700"><tspan x="0" y="0">Development aid</tspan></text>
            <text id="_6" data-name="​" transform="translate(0 24.794)" font-size="12" font-family="Helvetica Neue" font-weight="700"><tspan x="0" y="0">​</tspan></text>
            <text id="_1271.0M-2" data-name="$1271.0M" transform="translate(0 24.794)" font-size="12" font-family="Helvetica Neue" font-weight="700"><tspan x="0" y="0">$1271.0M</tspan></text>
          </g>
        </g>
      </g>
    </g>
  </g>
</svg>
