<svg xmlns="http://www.w3.org/2000/svg" width="356" height="338.003" viewBox="0 0 356 338.003">
  <g id="Group_14670" data-name="Group 14670" transform="translate(24282 12925.805)">
    <rect id="Rectangle_10238" data-name="Rectangle 10238" width="356" height="335" transform="translate(-24282 -12922.802)" fill="#fff" opacity="0"/>
    <g id="chart_2_" data-name="chart (2)" transform="translate(-24396.617 -12958.628)">
      <text id="Total_300M" data-name="Total $300M" transform="translate(238.811 209.273)" fill="#120009" font-size="17" font-family="Helvetica Neue" font-weight="700"><tspan x="0" y="0">Total $300M</tspan></text>
      <g id="Group_14654" data-name="Group 14654" transform="translate(166.176 83.408)">
        <g id="Group_14653" data-name="Group 14653" transform="translate(0 0)">
          <path id="Path_31839" data-name="Path 31839" d="M289.974,45.591a7.337,7.337,0,0,1,7.8-7.324A122.9,122.9,0,0,1,314.2,40.428a7.337,7.337,0,0,1,5.642,9.092l-8.951,33.4a7.337,7.337,0,0,1-8.337,5.331q-2.934-.507-5.9-.776a7.337,7.337,0,0,1-6.674-7.305Z" transform="translate(-167.104 -38.253)" fill="#ffda6a" stroke="#fff" stroke-linejoin="round" stroke-width="2"/>
          <path id="Path_31840" data-name="Path 31840" d="M321.832,50.081a7.337,7.337,0,0,1,9.437-5.044,122.894,122.894,0,0,1,36.655,19.873,7.337,7.337,0,0,1,.923,10.66l-23.083,25.752a7.337,7.337,0,0,1-9.846.987,73.735,73.735,0,0,0-18.525-10.043,7.337,7.337,0,0,1-4.546-8.789Z" transform="translate(-168.979 -38.783)" fill="#ffcd39" stroke="#fff" stroke-linejoin="round" stroke-width="2"/>
          <path id="Path_31841" data-name="Path 31841" d="M371.766,78.228a7.337,7.337,0,0,1,10.7-.234,122.893,122.893,0,0,1,6.358,165.057,7.337,7.337,0,0,1-10.684.59l-25.019-23.875a7.337,7.337,0,0,1-.679-9.872,73.736,73.736,0,0,0-3.7-96.042,7.337,7.337,0,0,1-.082-9.895Z" transform="translate(-171.812 -41.364)" fill="#ffc107" stroke="#fff" stroke-linejoin="round" stroke-width="2"/>
          <path id="Path_31842" data-name="Path 31842" d="M362.712,253.391a7.337,7.337,0,0,1-.1,10.7A122.893,122.893,0,0,1,161.96,210.024a7.337,7.337,0,0,1,5.289-9.3l33.62-8.106a7.337,7.337,0,0,1,8.667,4.774,73.736,73.736,0,0,0,118.287,31.873,7.337,7.337,0,0,1,9.893.227Z" transform="translate(-156.466 -51.03)" fill="#cc9a06" stroke="#fff" stroke-linejoin="round" stroke-width="2"/>
          <path id="Path_31843" data-name="Path 31843" d="M166.756,187.834a7.337,7.337,0,0,1-8.941-5.878A122.893,122.893,0,0,1,270.92,38.281a7.337,7.337,0,0,1,7.813,7.311l.048,34.583a7.337,7.337,0,0,1-6.663,7.316,73.736,73.736,0,0,0-66.188,84.076,7.337,7.337,0,0,1-5.547,8.194Z" transform="translate(-155.999 -38.254)" fill="#997404" stroke="#fff" stroke-linejoin="round" stroke-width="2"/>
        </g>
      </g>
      <g id="Group_14660" data-name="Group 14660" transform="translate(132.217 34.823)">
        <path id="Path_31844" data-name="Path 31844" d="M314.672,18h-4.51l-2.123,16.069-.49,3.707" transform="translate(-134.29 9.276)" fill="none" stroke="#ffda6a" stroke-width="1"/>
        <path id="Path_31845" data-name="Path 31845" d="M368.225,36.745,355.7,49.8l-1.784,3.287" transform="translate(-137.311 8.055)" fill="none" stroke="#ffcd39" stroke-width="1"/>
        <path id="Path_31853" data-name="Path 31853" d="M18.709,0,6.183,13.055,0,12.405" transform="matrix(-0.105, -0.995, 0.995, -0.105, 266.851, 259.765)" fill="none" stroke="#fec107" stroke-width="1"/>
        <path id="Path_31847" data-name="Path 31847" d="M244.837,319.413h4.674l3.9-14.44.975-3.61" transform="translate(-130.205 -9.183)" fill="none" stroke="#cc9a06" stroke-width="1"/>
        <path id="Path_31848" data-name="Path 31848" d="M164.085,76.629h4.674L180.5,85.893l2.936,2.316" transform="translate(-102.488 -41.286)" fill="none" stroke="#997404" stroke-width="1"/>
        <g id="Group_14655" data-name="Group 14655" transform="translate(164.896 0.122)">
          <g id="Group" transform="translate(0)">
            <text id="Emergency_WASH" data-name="Emergency WASH" transform="translate(0 9)" fill="#fff" stroke="#fff" stroke-linejoin="round" stroke-width="2" font-size="9" font-family="Helvetica Neue" font-weight="700"><tspan x="0" y="0">Emergency WASH</tspan></text>
            <text id="_" data-name="​" transform="translate(0 18.659)" fill="#fff" stroke="#fff" stroke-linejoin="round" stroke-width="2" font-size="9" font-family="Helvetica Neue" font-weight="700"><tspan x="0" y="0">​</tspan></text>
            <text id="_11.2M" data-name="$11.2M" transform="translate(0 18.659)" fill="#fff" stroke="#fff" stroke-linejoin="round" stroke-width="2" font-size="9" font-family="Helvetica Neue" font-weight="700"><tspan x="0" y="0">$11.2M</tspan></text>
            <text id="_2" data-name="​" transform="translate(0 9)" fill="#fff" stroke="#fff" stroke-linejoin="round" stroke-width="2" font-size="9" font-family="Helvetica Neue" font-weight="700"><tspan x="0" y="0">​</tspan></text>
            <text id="Emergency_WASH-2" data-name="Emergency WASH" transform="translate(0 9)" font-size="9" font-family="Helvetica Neue" font-weight="700"><tspan x="0" y="0">Emergency WASH</tspan></text>
            <text id="_3" data-name="​" transform="translate(0 18.659)" font-size="9" font-family="Helvetica Neue" font-weight="700"><tspan x="0" y="0">​</tspan></text>
            <text id="_11.2M-2" data-name="$11.2M" transform="translate(0 18.659)" font-size="9" font-family="Helvetica Neue" font-weight="700"><tspan x="0" y="0">$11.2M</tspan></text>
          </g>
        </g>
        <g id="Group_14656" data-name="Group 14656" transform="translate(237.798 24.959)">
          <g id="Group-2" data-name="Group">
            <text id="Emergency_education" data-name="Emergency education" transform="translate(0 9)" fill="#fff" stroke="#fff" stroke-linejoin="round" stroke-width="2" font-size="9" font-family="Helvetica Neue" font-weight="700"><tspan x="0" y="0">Emergency education</tspan></text>
            <text id="_4" data-name="​" transform="translate(0 18.659)" fill="#fff" stroke="#fff" stroke-linejoin="round" stroke-width="2" font-size="9" font-family="Helvetica Neue" font-weight="700"><tspan x="0" y="0">​</tspan></text>
            <text id="_20.0M" data-name="$20.0M" transform="translate(0 18.659)" fill="#fff" stroke="#fff" stroke-linejoin="round" stroke-width="2" font-size="9" font-family="Helvetica Neue" font-weight="700"><tspan x="0" y="0">$20.0M</tspan></text>
            <text id="_5" data-name="​" transform="translate(0 9)" fill="#fff" stroke="#fff" stroke-linejoin="round" stroke-width="2" font-size="9" font-family="Helvetica Neue" font-weight="700"><tspan x="0" y="0">​</tspan></text>
            <text id="Emergency_education-2" data-name="Emergency education" transform="translate(0 9)" font-size="9" font-family="Helvetica Neue" font-weight="700"><tspan x="0" y="0">Emergency education</tspan></text>
            <text id="_6" data-name="​" transform="translate(0 18.659)" font-size="9" font-family="Helvetica Neue" font-weight="700"><tspan x="0" y="0">​</tspan></text>
            <text id="_20.0M-2" data-name="$20.0M" transform="translate(0 18.659)" font-size="9" font-family="Helvetica Neue" font-weight="700"><tspan x="0" y="0">$20.0M</tspan></text>
          </g>
        </g>
        <g id="Group_14657" data-name="Group 14657" transform="translate(261.926 261.715)">
          <g id="Group-3" data-name="Group" transform="translate(0 0)">
            <text id="Shelter_NFIs" data-name="Shelter &amp; NFIs" transform="translate(0 9)" fill="#fff" stroke="#fff" stroke-linejoin="round" stroke-width="2" font-size="9" font-family="Helvetica Neue" font-weight="700"><tspan x="0" y="0">Shelter &amp; NFIs</tspan></text>
            <text id="_7" data-name="​" transform="translate(0 18.659)" fill="#fff" stroke="#fff" stroke-linejoin="round" stroke-width="2" font-size="9" font-family="Helvetica Neue" font-weight="700"><tspan x="0" y="0">​</tspan></text>
            <text id="_68.3M" data-name="$68.3M" transform="translate(0 18.659)" fill="#fff" stroke="#fff" stroke-linejoin="round" stroke-width="2" font-size="9" font-family="Helvetica Neue" font-weight="700"><tspan x="0" y="0">$68.3M</tspan></text>
            <text id="_8" data-name="​" transform="translate(0 9)" fill="#fff" stroke="#fff" stroke-linejoin="round" stroke-width="2" font-size="9" font-family="Helvetica Neue" font-weight="700"><tspan x="0" y="0">​</tspan></text>
            <text id="Shelter_NFIs-2" data-name="Shelter &amp; NFIs" transform="translate(0 9)" font-size="9" font-family="Helvetica Neue" font-weight="700"><tspan x="0" y="0">Shelter &amp; NFIs</tspan></text>
            <text id="_9" data-name="​" transform="translate(0 18.659)" font-size="9" font-family="Helvetica Neue" font-weight="700"><tspan x="0" y="0">​</tspan></text>
            <text id="_68.3M-2" data-name="$68.3M" transform="translate(0 18.659)" font-size="9" font-family="Helvetica Neue" font-weight="700"><tspan x="0" y="0">$68.3M</tspan></text>
          </g>
        </g>
        <g id="Group_14658" data-name="Group 14658" transform="translate(36.774 307.241)">
          <g id="Group-4" data-name="Group" transform="translate(0 0)">
            <text id="Food_nutrition" data-name="Food &amp; nutrition" transform="translate(0 9)" fill="#fff" stroke="#fff" stroke-linejoin="round" stroke-width="2" font-size="9" font-family="Helvetica Neue" font-weight="700"><tspan x="0" y="0">Food &amp; nutrition</tspan></text>
            <text id="_10" data-name="​" transform="translate(0 18.659)" fill="#fff" stroke="#fff" stroke-linejoin="round" stroke-width="2" font-size="9" font-family="Helvetica Neue" font-weight="700"><tspan x="0" y="0">​</tspan></text>
            <text id="_91.4M" data-name="$91.4M" transform="translate(0 18.659)" fill="#fff" stroke="#fff" stroke-linejoin="round" stroke-width="2" font-size="9" font-family="Helvetica Neue" font-weight="700"><tspan x="0" y="0">$91.4M</tspan></text>
            <text id="_11" data-name="​" transform="translate(0 9)" fill="#fff" stroke="#fff" stroke-linejoin="round" stroke-width="2" font-size="9" font-family="Helvetica Neue" font-weight="700"><tspan x="0" y="0">​</tspan></text>
            <text id="Food_nutrition-2" data-name="Food &amp; nutrition" transform="translate(0 9)" font-size="9" font-family="Helvetica Neue" font-weight="700"><tspan x="0" y="0">Food &amp; nutrition</tspan></text>
            <text id="_12" data-name="​" transform="translate(0 18.659)" font-size="9" font-family="Helvetica Neue" font-weight="700"><tspan x="0" y="0">​</tspan></text>
            <text id="_91.4M-2" data-name="$91.4M" transform="translate(0 18.659)" font-size="9" font-family="Helvetica Neue" font-weight="700"><tspan x="0" y="0">$91.4M</tspan></text>
          </g>
        </g>
        <g id="Group_14659" data-name="Group 14659" transform="translate(0 0)">
          <g id="Group-5" data-name="Group" transform="translate(0 0)">
            <text id="Emergency_health" data-name="Emergency health" transform="translate(0 9)" fill="#fff" stroke="#fff" stroke-linejoin="round" stroke-width="2" font-size="9" font-family="Helvetica Neue" font-weight="700"><tspan x="0" y="0">Emergency health</tspan></text>
            <text id="_13" data-name="​" transform="translate(0 18.659)" fill="#fff" stroke="#fff" stroke-linejoin="round" stroke-width="2" font-size="9" font-family="Helvetica Neue" font-weight="700"><tspan x="0" y="0">​</tspan></text>
            <text id="_77.0M" data-name="$77.0M" transform="translate(0 18.659)" fill="#fff" stroke="#fff" stroke-linejoin="round" stroke-width="2" font-size="9" font-family="Helvetica Neue" font-weight="700"><tspan x="0" y="0">$77.0M</tspan></text>
            <text id="_14" data-name="​" transform="translate(0 9)" fill="#fff" stroke="#fff" stroke-linejoin="round" stroke-width="2" font-size="9" font-family="Helvetica Neue" font-weight="700"><tspan x="0" y="0">​</tspan></text>
            <text id="Emergency_health-2" data-name="Emergency health" transform="translate(0 9)" font-size="9" font-family="Helvetica Neue" font-weight="700"><tspan x="0" y="0">Emergency health</tspan></text>
            <text id="_15" data-name="​" transform="translate(0 18.659)" font-size="9" font-family="Helvetica Neue" font-weight="700"><tspan x="0" y="0">​</tspan></text>
            <text id="_77.0M-2" data-name="$77.0M" transform="translate(0 18.659)" font-size="9" font-family="Helvetica Neue" font-weight="700"><tspan x="0" y="0">$77.0M</tspan></text>
          </g>
        </g>
      </g>
    </g>
  </g>
</svg>
