<svg xmlns="http://www.w3.org/2000/svg" width="359.002" height="335.001" viewBox="0 0 359.002 335.001">
  <g id="Group_14669" data-name="Group 14669" transform="translate(24727 12922.805)">
    <rect id="Rectangle_10237" data-name="Rectangle 10237" width="356" height="335" transform="translate(-24726 -12922.804)" fill="#fff" opacity="0"/>
    <g id="chart_1_" data-name="chart (1)" transform="translate(-24822.176 -12954.408)">
      <text id="Total_1.271B" data-name="Total $1.271B" transform="translate(212.877 208.398)" fill="#120009" font-size="17" font-family="Helvetica Neue" font-weight="700"><tspan x="0" y="0">Total $1.271B</tspan></text>
      <g id="Group_14643" data-name="Group 14643" transform="translate(147.395 80.437)">
        <g id="Group_14642" data-name="Group 14642">
          <path id="Path_31825" data-name="Path 31825" d="M272.975,45.656a7.4,7.4,0,0,1,7.874-7.383,121.582,121.582,0,0,1,32.233,6.544,7.4,7.4,0,0,1,4.372,9.869L304.212,85.937a7.4,7.4,0,0,1-9.057,4.161A72.949,72.949,0,0,0,279.7,86.96a7.4,7.4,0,0,1-6.717-7.364Z" transform="translate(-151.41 -38.258)" fill="#d0669f" stroke="#fff" stroke-linejoin="round" stroke-width="2"/>
          <path id="Path_31826" data-name="Path 31826" d="M320.065,55.707A7.4,7.4,0,0,1,330.2,51.994,121.582,121.582,0,0,1,367.164,80.7a7.4,7.4,0,0,1-1.088,10.739L339.1,112.032a7.4,7.4,0,0,1-9.929-.869,72.948,72.948,0,0,0-19.076-14.814,7.4,7.4,0,0,1-3.3-9.4Z" transform="translate(-153.916 -39.234)" fill="#c1337f" stroke="#fff" stroke-linejoin="round" stroke-width="2"/>
          <path id="Path_31827" data-name="Path 31827" d="M368.595,94.695a7.4,7.4,0,0,1,10.644,1.792,121.582,121.582,0,0,1,6.342,10.7,7.4,7.4,0,0,1-3.538,10.2l-31,13.809a7.4,7.4,0,0,1-9.46-3.138q-.85-1.515-1.771-2.988a7.4,7.4,0,0,1,1.789-9.805Z" transform="translate(-156.366 -42.401)" fill="#b1005f" stroke="#fff" stroke-linejoin="round" stroke-width="2"/>
          <path id="Path_31828" data-name="Path 31828" d="M382.7,119.421a7.4,7.4,0,0,1,9.943,4.2q.113.305.224.611a7.4,7.4,0,0,1-4.888,9.623l-33.543,9.754a6.316,6.316,0,0,1-7.668-3.823q.3.844.614,1.681a6.316,6.316,0,0,1,3.394-7.868Z" transform="translate(-156.976 -44.332)" fill="#8e004c" stroke="#fff" stroke-linejoin="round" stroke-width="2"/>
          <path id="Path_31829" data-name="Path 31829" d="M372.524,134.484a7.4,7.4,0,0,1,9.281,5.511,121.581,121.581,0,1,1-235.069-9.1,7.4,7.4,0,0,1,9.679-4.776l31.772,11.938a7.4,7.4,0,0,1,4.533,8.877,72.949,72.949,0,1,0,142,5.5,7.4,7.4,0,0,1,5.205-8.5Z" transform="translate(-141.492 -44.849)" fill="#6a0039" stroke="#fff" stroke-linejoin="round" stroke-width="2"/>
          <path id="Path_31830" data-name="Path 31830" d="M157.287,119.809a7.4,7.4,0,0,1-4.129-9.973,121.581,121.581,0,0,1,75.032-66.059,7.4,7.4,0,0,1,9.369,5.359l7.85,33.02a7.4,7.4,0,0,1-4.83,8.719,72.949,72.949,0,0,0-42.271,37.216,7.4,7.4,0,0,1-9.26,3.687Z" transform="translate(-142.323 -38.649)" fill="#470026" stroke="#fff" stroke-linejoin="round" stroke-width="2"/>
          <path id="Path_31831" data-name="Path 31831" d="M244.6,48.72a7.4,7.4,0,0,1,5.964-9A121.58,121.58,0,0,1,262.8,38.287a7.4,7.4,0,0,1,7.886,7.37l.047,33.941a7.4,7.4,0,0,1-6.705,7.374q-1.693.159-3.377.4a7.4,7.4,0,0,1-8.231-5.621Z" transform="translate(-149.255 -38.259)" fill="#e099bf" stroke="#fff" stroke-linejoin="round" stroke-width="2"/>
        </g>
      </g>
      <g id="Group_14651" data-name="Group 14651" transform="translate(97.176 33.604)">
        <path id="Path_31832" data-name="Path 31832" d="M307.577,14.6l-4.368,5.084L300,35.06l-.739,3.624" transform="translate(-112.655 10.36)" fill="none" stroke="#d0669f" stroke-width="1"/>
        <path id="Path_31833" data-name="Path 31833" d="M366.944,45.108l-7.191,1.321-6.041,17.7" transform="translate(-123.56 -1.113)" fill="none" stroke="#c1337f" stroke-width="1"/>
        <path id="Path_31834" data-name="Path 31834" d="M400.74,82.621l1.091,9.121L389.317,99.09l-3.182,1.885" transform="translate(-109.726 5.229)" fill="none" stroke="#b1005f" stroke-width="1"/>
        <path id="Path_31835" data-name="Path 31835" d="M423.495,194.168V133.057l-26.974-8.668" transform="translate(-110.509 2.079)" fill="none" stroke="#8e004c" stroke-width="1"/>
        <path id="Path_31836" data-name="Path 31836" d="M262.059,319.376h4.623l.58-14.782.145-3.7" transform="translate(-100.367 -11.235)" fill="none" stroke="#6a0039" stroke-width="1"/>
        <path id="Path_31837" data-name="Path 31837" d="M167.918,55.764h4.623l9.772,11.106,2.443,2.776" transform="translate(-93.266 7.255)" fill="none" stroke="#470026" stroke-width="1"/>
        <path id="Path_31838" data-name="Path 31838" d="M250.409,19.025h4.623l1.718,14.693.429,3.673" transform="translate(-99.488 10.026)" fill="none" stroke="#e099bf" stroke-width="1"/>
        <g id="Group_14644" data-name="Group 14644" transform="translate(189.678 0)">
          <g id="Group" transform="translate(0 0)">
            <text id="Food_security" data-name="Food security" transform="translate(0 9)" fill="#fff" stroke="#fff" stroke-linejoin="round" stroke-width="2" font-size="9" font-family="Helvetica Neue" font-weight="700"><tspan x="0" y="0">Food security</tspan></text>
            <text id="_" data-name="​" transform="translate(0 19.983)" fill="#fff" stroke="#fff" stroke-linejoin="round" stroke-width="2" font-size="10" font-family="Helvetica Neue" font-weight="700"><tspan x="0" y="0">​</tspan></text>
            <text id="_77.4M" data-name="$77.4M" transform="translate(0 19.983)" fill="#fff" stroke="#fff" stroke-linejoin="round" stroke-width="2" font-size="10" font-family="Helvetica Neue" font-weight="700"><tspan x="0" y="0">$77.4M</tspan></text>
            <text id="_2" data-name="​" transform="translate(0 10)" fill="#fff" stroke="#fff" stroke-linejoin="round" stroke-width="2" font-size="10" font-family="Helvetica Neue" font-weight="700"><tspan x="0" y="0">​</tspan></text>
            <text id="Food_security-2" data-name="Food security" transform="translate(0 9)" font-size="9" font-family="Helvetica Neue" font-weight="700"><tspan x="0" y="0">Food security</tspan></text>
            <text id="_3" data-name="​" transform="translate(0 19.983)" font-size="10" font-family="Helvetica Neue" font-weight="700"><tspan x="0" y="0">​</tspan></text>
            <text id="_77.4M-2" data-name="$77.4M" transform="translate(0 19.983)" font-size="10" font-family="Helvetica Neue" font-weight="700"><tspan x="0" y="0">$77.4M</tspan></text>
          </g>
        </g>
        <g id="Group_14645" data-name="Group 14645" transform="translate(250.796 25.672)">
          <g id="Group-2" data-name="Group" transform="translate(0 0)">
            <text id="Social_housing" data-name="Social housing" transform="translate(0 9)" fill="#fff" stroke="#fff" stroke-linejoin="round" stroke-width="2" font-size="9" font-family="Helvetica Neue" font-weight="700"><tspan x="0" y="0">Social housing</tspan></text>
            <text id="_4" data-name="​" transform="translate(0 19.983)" fill="#fff" stroke="#fff" stroke-linejoin="round" stroke-width="2" font-size="10" font-family="Helvetica Neue" font-weight="700"><tspan x="0" y="0">​</tspan></text>
            <text id="_99.6M" data-name="$99.6M" transform="translate(0 19.983)" fill="#fff" stroke="#fff" stroke-linejoin="round" stroke-width="2" font-size="10" font-family="Helvetica Neue" font-weight="700"><tspan x="0" y="0">$99.6M</tspan></text>
            <text id="_5" data-name="​" transform="translate(0 10)" fill="#fff" stroke="#fff" stroke-linejoin="round" stroke-width="2" font-size="10" font-family="Helvetica Neue" font-weight="700"><tspan x="0" y="0">​</tspan></text>
            <text id="Social_housing-2" data-name="Social housing" transform="translate(0 9)" font-size="9" font-family="Helvetica Neue" font-weight="700"><tspan x="0" y="0">Social housing</tspan></text>
            <text id="_6" data-name="​" transform="translate(0 19.983)" font-size="10" font-family="Helvetica Neue" font-weight="700"><tspan x="0" y="0">​</tspan></text>
            <text id="_99.6M-2" data-name="$99.6M" transform="translate(0 19.983)" font-size="10" font-family="Helvetica Neue" font-weight="700"><tspan x="0" y="0">$99.6M</tspan></text>
          </g>
        </g>
        <g id="Group_14646" data-name="Group 14646" transform="translate(268.887 58.959)">
          <g id="Group-3" data-name="Group" transform="translate(0 0)">
            <text id="Health_and_nutrition" data-name="Health and nutrition" transform="translate(0 9)" fill="#fff" stroke="#fff" stroke-linejoin="round" stroke-width="2" font-size="9" font-family="Helvetica Neue" font-weight="700"><tspan x="0" y="0">Health and nutrition</tspan></text>
            <text id="_7" data-name="​" transform="translate(0 19.983)" fill="#fff" stroke="#fff" stroke-linejoin="round" stroke-width="2" font-size="10" font-family="Helvetica Neue" font-weight="700"><tspan x="0" y="0">​</tspan></text>
            <text id="_44.8M" data-name="$44.8M" transform="translate(0 19.983)" fill="#fff" stroke="#fff" stroke-linejoin="round" stroke-width="2" font-size="10" font-family="Helvetica Neue" font-weight="700"><tspan x="0" y="0">$44.8M</tspan></text>
            <text id="_8" data-name="​" transform="translate(0 10)" fill="#fff" stroke="#fff" stroke-linejoin="round" stroke-width="2" font-size="10" font-family="Helvetica Neue" font-weight="700"><tspan x="0" y="0">​</tspan></text>
            <text id="Health_nutrition" data-name="Health &amp; nutrition" transform="translate(0 9)" font-size="9" font-family="Helvetica Neue" font-weight="700"><tspan x="0" y="0">Health &amp; nutrition</tspan></text>
            <text id="_9" data-name="​" transform="translate(0 19.983)" font-size="10" font-family="Helvetica Neue" font-weight="700"><tspan x="0" y="0">​</tspan></text>
            <text id="_44.8M-2" data-name="$44.8M" transform="translate(0 19.983)" font-size="10" font-family="Helvetica Neue" font-weight="700"><tspan x="0" y="0">$44.8M</tspan></text>
          </g>
        </g>
        <g id="Group_14647" data-name="Group 14647" transform="translate(292.002 198.831)">
          <g id="Group-4" data-name="Group" transform="translate(0 0)">
            <text id="Economic_empowerment" data-name="Economic
empowerment" transform="translate(0 9)" fill="#fff" stroke="#fff" stroke-linejoin="round" stroke-width="2" font-size="9" font-family="Helvetica Neue" font-weight="700"><tspan x="0" y="0">Economic</tspan><tspan x="0" y="11">empowerment</tspan></text>
            <text id="_10" data-name="​" transform="translate(0 19.983)" fill="#fff" stroke="#fff" stroke-linejoin="round" stroke-width="2" font-size="10" font-family="Helvetica Neue" font-weight="700"><tspan x="0" y="0">​</tspan></text>
            <text id="_26.3M" data-name="$26.3M" transform="translate(0 35.701)" fill="#fff" stroke="#fff" stroke-linejoin="round" stroke-width="2" font-size="10" font-family="Helvetica Neue" font-weight="700"><tspan x="0" y="0">$26.3M</tspan></text>
            <text id="_11" data-name="​" transform="translate(0 10)" fill="#fff" stroke="#fff" stroke-linejoin="round" stroke-width="2" font-size="10" font-family="Helvetica Neue" font-weight="700"><tspan x="0" y="0">​</tspan></text>
            <text id="Economic_empowerment-2" data-name="Economic
empowerment" transform="translate(0 9)" font-size="9" font-family="Helvetica Neue" font-weight="700"><tspan x="0" y="0">Economic</tspan><tspan x="0" y="11">empowerment</tspan></text>
            <text id="_12" data-name="​" transform="translate(0 19.983)" font-size="10" font-family="Helvetica Neue" font-weight="700"><tspan x="0" y="0">​</tspan></text>
            <text id="_26.3M-2" data-name="$26.3M" transform="translate(0 35.701)" font-size="10" font-family="Helvetica Neue" font-weight="700"><tspan x="0" y="0">$26.3M</tspan></text>
          </g>
        </g>
        <g id="Group_14648" data-name="Group 14648" transform="translate(88.1 302.638)">
          <g id="Group-5" data-name="Group" transform="translate(0 0)">
            <text id="Social_welfare" data-name="Social welfare" transform="translate(0 9)" fill="#fff" stroke="#fff" stroke-linejoin="round" stroke-width="2" font-size="9" font-family="Helvetica Neue" font-weight="700"><tspan x="0" y="0">Social welfare</tspan></text>
            <text id="_13" data-name="​" transform="translate(0 19.983)" fill="#fff" stroke="#fff" stroke-linejoin="round" stroke-width="2" font-size="10" font-family="Helvetica Neue" font-weight="700"><tspan x="0" y="0">​</tspan></text>
            <text id="_728.3M" data-name="$728.3M" transform="translate(0 18.983)" fill="#fff" stroke="#fff" stroke-linejoin="round" stroke-width="2" font-size="9" font-family="Helvetica Neue" font-weight="700"><tspan x="0" y="0">$728.3M</tspan></text>
            <text id="_14" data-name="​" transform="translate(0 10)" fill="#fff" stroke="#fff" stroke-linejoin="round" stroke-width="2" font-size="10" font-family="Helvetica Neue" font-weight="700"><tspan x="0" y="0">​</tspan></text>
            <text id="Social_welfare-2" data-name="Social welfare" transform="translate(0 9)" font-size="9" font-family="Helvetica Neue" font-weight="700"><tspan x="0" y="0">Social welfare</tspan></text>
            <text id="_15" data-name="​" transform="translate(0 19.983)" font-size="10" font-family="Helvetica Neue" font-weight="700"><tspan x="0" y="0">​</tspan></text>
            <text id="_728.3M-2" data-name="$728.3M" transform="translate(0 18.983)" font-size="9" font-family="Helvetica Neue" font-weight="700"><tspan x="0" y="0">$728.3M</tspan></text>
          </g>
        </g>
        <g id="Group_14649" data-name="Group 14649" transform="translate(0 27.098)">
          <g id="Group-6" data-name="Group" transform="translate(0 0)">
            <text id="Education" transform="translate(0 9)" fill="#fff" stroke="#fff" stroke-linejoin="round" stroke-width="2" font-size="9" font-family="Helvetica Neue" font-weight="700"><tspan x="0" y="0">Education</tspan></text>
            <text id="_16" data-name="​" transform="translate(0 19.983)" fill="#fff" stroke="#fff" stroke-linejoin="round" stroke-width="2" font-size="10" font-family="Helvetica Neue" font-weight="700"><tspan x="0" y="0">​</tspan></text>
            <text id="_188.2M" data-name="$188.2M" transform="translate(0 18.983)" fill="#fff" stroke="#fff" stroke-linejoin="round" stroke-width="2" font-size="9" font-family="Helvetica Neue" font-weight="700"><tspan x="0" y="0">$188.2M</tspan></text>
            <text id="_17" data-name="​" transform="translate(0 10)" fill="#fff" stroke="#fff" stroke-linejoin="round" stroke-width="2" font-size="10" font-family="Helvetica Neue" font-weight="700"><tspan x="0" y="0">​</tspan></text>
            <text id="Education-2" data-name="Education" transform="translate(0 9)" font-size="9" font-family="Helvetica Neue" font-weight="700"><tspan x="0" y="0">Education</tspan></text>
            <text id="_18" data-name="​" transform="translate(0 19.983)" font-size="10" font-family="Helvetica Neue" font-weight="700"><tspan x="0" y="0">​</tspan></text>
            <text id="_188.2M-2" data-name="$188.2M" transform="translate(0 18.983)" font-size="9" font-family="Helvetica Neue" font-weight="700"><tspan x="0" y="0">$188.2M</tspan></text>
          </g>
        </g>
        <g id="Group_14650" data-name="Group 14650" transform="translate(101.1 11.001)">
          <g id="Group-7" data-name="Group" transform="translate(0 0)">
            <text id="WASH" transform="translate(0 9)" fill="#fff" stroke="#fff" stroke-linejoin="round" stroke-width="2" font-size="9" font-family="Helvetica Neue" font-weight="700"><tspan x="0" y="0">WASH</tspan></text>
            <text id="_19" data-name="​" transform="translate(0 19.983)" fill="#fff" stroke="#fff" stroke-linejoin="round" stroke-width="2" font-size="10" font-family="Helvetica Neue" font-weight="700"><tspan x="0" y="0">​</tspan></text>
            <text id="_44.8M-3" data-name="$44.8M" transform="translate(0 19.983)" fill="#fff" stroke="#fff" stroke-linejoin="round" stroke-width="2" font-size="10" font-family="Helvetica Neue" font-weight="700"><tspan x="0" y="0">$44.8M</tspan></text>
            <text id="_20" data-name="​" transform="translate(0 10)" fill="#fff" stroke="#fff" stroke-linejoin="round" stroke-width="2" font-size="10" font-family="Helvetica Neue" font-weight="700"><tspan x="0" y="0">​</tspan></text>
            <text id="WASH-2" data-name="WASH" transform="translate(0 9)" font-size="9" font-family="Helvetica Neue" font-weight="700"><tspan x="0" y="0">WASH</tspan></text>
            <text id="_21" data-name="​" transform="translate(0 19.983)" font-size="10" font-family="Helvetica Neue" font-weight="700"><tspan x="0" y="0">​</tspan></text>
            <text id="_44.8M-4" data-name="$44.8M" transform="translate(0 19.983)" font-size="10" font-family="Helvetica Neue" font-weight="700"><tspan x="0" y="0">$44.8M</tspan></text>
          </g>
        </g>
      </g>
    </g>
  </g>
</svg>
