<svg id="Group_65375" data-name="Group 65375" xmlns="http://www.w3.org/2000/svg" width="120" height="44" viewBox="0 0 120 44">
  <path id="Path_84979" data-name="Path 84979" d="M8.189,0h103.2a8.265,8.265,0,0,1,8.189,8.339V35.225a8.265,8.265,0,0,1-8.19,8.339H8.19A8.266,8.266,0,0,1,0,35.225V8.339A8.265,8.265,0,0,1,8.189,0Z" transform="translate(0.212 0.218)" fill="#fff"/>
  <path id="Path_84891" data-name="Path 84891" d="M1390.107.431a8.061,8.061,0,0,1,7.978,8.124V35.444a8.062,8.062,0,0,1-7.978,8.125h-103.2a8.061,8.061,0,0,1-7.978-8.125V8.555A8.061,8.061,0,0,1,1286.91.431Zm0-.431h-103.2a8.479,8.479,0,0,0-8.4,8.555V35.444a8.48,8.48,0,0,0,8.4,8.556h103.2a8.48,8.48,0,0,0,8.4-8.556V8.555a8.48,8.48,0,0,0-8.4-8.555" transform="translate(-1278.509)" fill="#5c5a4b"/>
  <path id="Path_84892" data-name="Path 84892" d="M1512.515,20c.036-.013-.036.012,0,0" transform="translate(-1413.434 -11.287)" fill="#5c5a4b"/>
  <path id="Path_84893" data-name="Path 84893" d="M1512.527,20h0" transform="translate(-1413.446 -11.292)" fill="#5c5a4b"/>
  <path id="Path_84894" data-name="Path 84894" d="M1509.477,38.21h-.024a10.194,10.194,0,0,1-3.028-.459,5.208,5.208,0,0,1-2.581-2.03,14.517,14.517,0,0,1-1.9-7.136v-.009a14.531,14.531,0,0,1,1.9-7.137,5.224,5.224,0,0,1,2.581-2.03,10.414,10.414,0,0,1,6.1,0,5.235,5.235,0,0,1,2.583,2.03,14.553,14.553,0,0,1,1.9,7.137v.009a14.539,14.539,0,0,1-1.9,7.136,5.275,5.275,0,0,1-2.6,2.032,10.023,10.023,0,0,1-3.009.456Zm6.951-9.629h0a16.558,16.558,0,0,0-1.2-6.088,4.76,4.76,0,0,0-3.215-2.954,10.19,10.19,0,0,0-5.095,0,4.758,4.758,0,0,0-3.213,2.954,15.962,15.962,0,0,0,0,12.178,4.758,4.758,0,0,0,3.213,2.954,10.137,10.137,0,0,0,5.095,0,4.759,4.759,0,0,0,3.215-2.954,16.565,16.565,0,0,0,1.2-6.09" transform="translate(-1407.344 -10.842)" fill="#5c5a4b"/>
  <path id="Path_84895" data-name="Path 84895" d="M1522.015,30.713a2.116,2.116,0,0,1-.122-.222" transform="translate(-1418.848 -17.345)" fill="#5c5a4b"/>
  <path id="Path_84896" data-name="Path 84896" d="M1520.254,59.49c-.008-.391.363-.587.6-.845a.27.27,0,0,0,.041-.288.17.17,0,0,0-.12-.11.215.215,0,0,0-.2.04.324.324,0,0,0-.089.256l-.26.016a.524.524,0,0,1,.1-.4A.58.58,0,0,1,1520.8,58a.471.471,0,0,1,.364.263.5.5,0,0,1-.07.517c-.152.168-.351.259-.479.449l.655-.04c.006.082.01.164.014.239Z" transform="translate(-1417.88 -32.999)" fill="#5c5a4b"/>
  <path id="Path_84897" data-name="Path 84897" d="M1513.791,57.462l0,.013-.426,1.346-.274-.092.293-.921,0-.016c-.109-.041-.241-.078-.345-.116l.055-.175a.4.4,0,0,0,.4-.041.473.473,0,0,0,.076-.071Z" transform="translate(-1413.743 -32.653)" fill="#5c5a4b"/>
  <path id="Path_84898" data-name="Path 84898" d="M1525.418,58.095a.358.358,0,0,0-.249-.281l-.084-.018a.321.321,0,0,0,.137-.309.349.349,0,0,0-.24-.273.617.617,0,0,0-.352,0,.641.641,0,0,0-.314.165.355.355,0,0,0-.085.357.3.3,0,0,0,.257.209l-.064.057a.364.364,0,0,0-.094.367.421.421,0,0,0,.289.31.759.759,0,0,0,.36-.005.729.729,0,0,0,.322-.169.432.432,0,0,0,.116-.412m-.9-.384a.186.186,0,0,1,.026-.214.282.282,0,0,1,.135-.077.26.26,0,0,1,.156,0,.191.191,0,0,1,.119.179.172.172,0,0,1-.056.125.3.3,0,0,1-.13.064.292.292,0,0,1-.142,0,.173.173,0,0,1-.108-.085m.572.65a.312.312,0,0,1-.163.089.306.306,0,0,1-.186,0,.218.218,0,0,1-.131-.142.223.223,0,0,1,.076-.246.489.489,0,0,1,.133-.06.422.422,0,0,1,.144-.009.211.211,0,0,1,.179.179.217.217,0,0,1-.051.189" transform="translate(-1420.186 -32.54)" fill="#5c5a4b"/>
  <path id="Path_84899" data-name="Path 84899" d="M1517.178,59.027a.363.363,0,0,0-.156-.345l-.074-.043a.31.31,0,0,0,.219-.253.356.356,0,0,0-.149-.336.644.644,0,0,0-.337-.1.637.637,0,0,0-.346.061.353.353,0,0,0-.188.315.315.315,0,0,0,.188.277l-.079.034a.357.357,0,0,0-.2.323.429.429,0,0,0,.188.383.769.769,0,0,0,.7.044.425.425,0,0,0,.231-.357m-.747-.642a.189.189,0,0,1,.087-.2.295.295,0,0,1,.3.02.189.189,0,0,1,.063.207.177.177,0,0,1-.091.1.286.286,0,0,1-.141.02.28.28,0,0,1-.138-.038.167.167,0,0,1-.077-.113m.357.794a.317.317,0,0,1-.183.037.329.329,0,0,1-.177-.058.222.222,0,0,1-.084-.178.218.218,0,0,1,.142-.209.429.429,0,0,1,.145-.018.389.389,0,0,1,.141.036.224.224,0,0,1,.015.389" transform="translate(-1415.484 -32.969)" fill="#5c5a4b"/>
  <path id="Path_84900" data-name="Path 84900" d="M1531.373,28.716l-1.274.564-.111-.271,1.272-.566Z" transform="translate(-1423.515 -16.182)" fill="#5c5a4b"/>
  <path id="Path_84901" data-name="Path 84901" d="M1521.479,21.965l-.327-1.467.3.03c.06.364.122.776.193,1.082.132-.286.272-.677.4-1.019l.3.031-.6,1.371Z" transform="translate(-1418.421 -11.663)" fill="#5c5a4b"/>
  <path id="Path_84902" data-name="Path 84902" d="M1507.884,25.345l-.309.57-.262-.149.354-.654-.2-.116-.5.915,1.21.7.5-.916-.2-.115-.358.656-.338-.2.312-.57Z" transform="translate(-1410.245 -14.222)" fill="#5c5a4b"/>
  <path id="Path_84903" data-name="Path 84903" d="M1505.579,39.45a.379.379,0,0,0-.392-.206.385.385,0,0,0-.306.263.286.286,0,0,0-.234-.212.32.32,0,0,0-.339.143,3.217,3.217,0,0,0-.061.957h1.377v-.1a2.645,2.645,0,0,0-.047-.839m-.782.645h-.342c.012-.326-.04-.5.154-.522.114-.009.144.017.171.09a1.8,1.8,0,0,1,.016.432m.6,0h-.388c.007-.317-.043-.5.141-.54a.193.193,0,0,1,.19.038c.08.078.056.208.057.5" transform="translate(-1408.673 -22.327)" fill="#5c5a4b"/>
  <path id="Path_84904" data-name="Path 84904" d="M1531.914,30.815l.22-.058.28,1.114-.223.059-.1-.412-1.114.3-.071-.29,1.113-.295Z" transform="translate(-1424.044 -17.499)" fill="#5c5a4b"/>
  <path id="Path_84905" data-name="Path 84905" d="M1515.7,22.079a.641.641,0,0,0,.4-.209.346.346,0,0,0,.082-.295l-.159-1.021-.282.047.16,1.02a.215.215,0,0,1-.109.2.3.3,0,0,1-.126.044.33.33,0,0,1-.132,0,.2.2,0,0,1-.163-.151l-.161-1.019-.281.047.16,1.019a.343.343,0,0,0,.17.255.627.627,0,0,0,.441.068Z" transform="translate(-1414.833 -11.695)" fill="#5c5a4b"/>
  <path id="Path_84906" data-name="Path 84906" d="M1532.84,35.146l-1.442-.3.039.289.314.059.068.511-.285.145.039.29,1.306-.691Zm-.8.45-.047-.353.6.093h0Z" transform="translate(-1424.329 -19.828)" fill="#5c5a4b"/>
  <path id="Path_84907" data-name="Path 84907" d="M1532.874,40.028l.027,0,.032-.008.023-.009a.292.292,0,0,0,.108-.278.251.251,0,0,0-.127-.246.12.12,0,0,0-.144.034c-.157.238-.049.743-.451.831a.4.4,0,0,1-.421-.193.866.866,0,0,1,.008-.811.427.427,0,0,1,.342-.189l.018.274a.259.259,0,0,0-.211.145.448.448,0,0,0,.058.454.151.151,0,0,0,.169.012c.162-.118.129-.412.209-.61a.411.411,0,0,1,.178-.212.4.4,0,0,1,.439.075.743.743,0,0,1,.108.744.413.413,0,0,1-.366.265l-.017-.272Z" transform="translate(-1424.573 -22.277)" fill="#5c5a4b"/>
  <path id="Path_84908" data-name="Path 84908" d="M1505.929,35.193a.675.675,0,0,0-.069-.453.334.334,0,0,0-.249-.175l-.991-.158-.045.289.992.162a.2.2,0,0,1,.146.165.34.34,0,0,1,0,.138.317.317,0,0,1-.044.129.2.2,0,0,1-.19.111l-.991-.158-.044.29.992.16a.327.327,0,0,0,.288-.087.671.671,0,0,0,.2-.409Z" transform="translate(-1408.789 -19.576)" fill="#5c5a4b"/>
  <path id="Path_84909" data-name="Path 84909" d="M1511.233,22.214l-.254.16.3,1.477.244-.151-.073-.319.428-.269.244.212.242-.152Zm.168.923-.152-.6v0h0v0l.448.416Z" transform="translate(-1412.555 -12.64)" fill="#5c5a4b"/>
  <path id="Path_84910" data-name="Path 84910" d="M1525.862,22.153l-.584-.252.116-.283.67.289.088-.218-.939-.4-.536,1.315.94.4.09-.218-.673-.29.149-.368.588.254Z" transform="translate(-1420.453 -12.111)" fill="#5c5a4b"/>
  <path id="Path_84911" data-name="Path 84911" d="M1506.278,30.06a.315.315,0,0,0-.084-.256.4.4,0,0,0-.315-.11c-.309.049-.351.412-.521.99l1.328.408.084-.286-.525-.16-.02-.007a1.788,1.788,0,0,1,.112-.334c.094-.226.447,0,.586-.025L1507,30c-.237.014-.553-.2-.724.064m-.275.51-.349-.1c.077-.243.111-.489.277-.475a.219.219,0,0,1,.152.081c.065.082-.018.265-.08.5" transform="translate(-1409.313 -16.894)" fill="#5c5a4b"/>
  <path id="Path_84912" data-name="Path 84912" d="M1528.927,24.017l-1.1.865.174.236.436-.341.018-.013a1.855,1.855,0,0,1,.2.29c.121.212-.263.373-.324.5l.173.235c.13-.206.487-.341.375-.64a.29.29,0,0,0,.253.081.4.4,0,0,0,.271-.2c.143-.287-.119-.534-.472-1.016m.206.887a.217.217,0,0,1-.151.079c-.1.005-.2-.172-.345-.362l.286-.226c.148.206.32.38.21.51" transform="translate(-1422.269 -13.666)" fill="#5c5a4b"/>
  <path id="Path_84913" data-name="Path 84913" d="M1516.959,26.461a2.471,2.471,0,0,0-1.585-1.4,7.984,7.984,0,0,0-2.111-.288h-.024a7.971,7.971,0,0,0-2.112.288,2.468,2.468,0,0,0-1.585,1.4,14.395,14.395,0,0,0,0,10.817,2.467,2.467,0,0,0,1.585,1.4,8.007,8.007,0,0,0,2.112.288h.024a8.02,8.02,0,0,0,2.111-.288,2.469,2.469,0,0,0,1.585-1.4,14.395,14.395,0,0,0,0-10.817m-1.225,4.024c.019,0,.112-.02.114-.08V29.151c.167-.04.337-.1.495-.133v.755c.1-.012.144-.024.262-.043v1l-.3.046-.095.4h-1.074l-.16-.358c-.26-.025-.279-.025-.541-.045a6.021,6.021,0,0,0,.671-1.009v-.509l.485-.064V30.4c0,.042.06.085.12.085Zm-.632-4.608a.421.421,0,0,1,.532.509c-.1.348-.475.412-.779.494l-.168-.234c.063-.3.1-.645.416-.769m-.939,1.388.122.222-.307.346c-.083-.082-.091-.09-.172-.179.158-.17.174-.189.357-.389m-3.8-.471v0a.587.587,0,0,0,.314.36c-.018-.088-.093-.167-.116-.259a.678.678,0,0,1,.05-.594.561.561,0,0,1,.325-.216.714.714,0,0,0,0,.476,1.212,1.212,0,0,0,.152-.134.529.529,0,0,1,.056-.048,1.485,1.485,0,0,1,.174.921l-.047.129c-.019-.213-.054-.315-.194-.393-.019.124.06.213.078.376a.685.685,0,0,1-.139.645h-.39a1.558,1.558,0,0,1-.26-1.261m.9,1.426v.227h-.208l-.09.766a.812.812,0,0,0-.3-.179c-.053-.325-.058-.348-.086-.587h-.2v-.227c.346,0,.539,0,.889,0m-1.51,3.271h2.388V32.2l-2.388,0Zm.924-1.433a.332.332,0,0,1,.273.1c-.012.414-.012.408-.021.844h-.221v-.069c-.009-.33-.022-.546-.03-.871m-.15,5.043a.679.679,0,0,1-.169-.022.539.539,0,0,1-.337-.226l-.016-.033-.016-.043-.019-.046-.007-.072V33.323c-.011-.169-.071-.172-.205-.274l.048-.016.526-.177a.485.485,0,0,1,.1.3V34.2c0,.069.056.107.131.111.092,0,.127-.035.135-.108.007-.468-.008-.6,0-1.024a.39.39,0,0,1,.253-.317.514.514,0,0,1,.451.022c.235.114.223.585.22.968a.506.506,0,0,0-.2-.1.277.277,0,0,0-.231.047.31.31,0,0,0-.085.264c-.006.443.042.747-.175.922a.627.627,0,0,1-.4.108m.7,1.445a.438.438,0,0,1-.179-.26c-.1-.454.436-.617.561-.992a3.338,3.338,0,0,1,.556-1.784,3.6,3.6,0,0,1,.971-2.416,3.678,3.678,0,0,0-.174-.585.291.291,0,0,1-.216-.088.5.5,0,0,1-.092-.239,3.481,3.481,0,0,1-.8.793c-.055.032-.126-.036-.227-.133-.371-.3-.436-.987-1-.957-.258-.089-.246-.4-.289-.635a.4.4,0,0,1,.367-.023c.354.194.59.606.925.88a1.356,1.356,0,0,0,.252.205,2,2,0,0,0,.545-.661.52.52,0,0,1,.464-.246l.134-.164-.071-.409a2.923,2.923,0,0,1-.346-.576c.049-.234.078-.506.308-.635.152-.1.274.123.4-.016a.259.259,0,0,1,.231.059,1.207,1.207,0,0,1,.211.528,3.7,3.7,0,0,1-.232.54c-.019.038-.072.051-.107.08a.569.569,0,0,0,.094.232.524.524,0,0,0,.216.011.635.635,0,0,1,.463-.355l.4-.265c-.063-.309.13-.58.023-.887a.783.783,0,0,1-.341-.58,1.074,1.074,0,0,1,.187-.372l.013.016a2.014,2.014,0,0,1,.483.846,8.075,8.075,0,0,1,.052,1.259,4.169,4.169,0,0,1-.714.512l-.181.356c-.022.366-.126.7-.182,1.052a2.408,2.408,0,0,1,.2,1.4,1.413,1.413,0,0,1-.48.5l-.405.334c.407.461.309.984.326,1.652,0,.162.278.3.128.479-.125.207-.321.374-.288.645a.662.662,0,0,1-.563.259.05.05,0,0,1-.054-.052,2.33,2.33,0,0,1,.157-.3c.145-.229.078-.543.258-.756a8.731,8.731,0,0,1-.433-1.487l0-.034a.856.856,0,0,0,.009.675,2.849,2.849,0,0,0-.833,1.7,8.046,8.046,0,0,0-.539.926c-.043.055-.122.006-.171-.022m2.65-1.639a.7.7,0,0,1,.561.434.778.778,0,0,1-.086.72.728.728,0,0,1-.72.29.742.742,0,0,1-.469-.332c.149-.052.363-.141.4-.29a1.1,1.1,0,0,1,.261-.606.23.23,0,0,0,.049-.216m.222-.207,0-2.107c.293,0,.387,0,.691,0V34.7Zm-1.489,3.216a.7.7,0,0,1-.714.053.738.738,0,0,1-.294-.3.6.6,0,0,1-.075-.268h1.367a.66.66,0,0,1-.283.512m.936.053h-.471V37.1h-.732v-.348h.736l.231-.282c.111.135.121.145.237.282h.735V37.1h-.736Zm1.472-.3a.745.745,0,0,1-.295.3.7.7,0,0,1-.714-.053.662.662,0,0,1-.283-.512h1.367a.589.589,0,0,1-.075.268m.528-4.348c.315.32.6.61.88.9a.419.419,0,0,1,.12.437,1.378,1.378,0,0,1-.126.226.433.433,0,0,0-.145-.321c-.385-.388-1.05-.927-1.1-1.157a1.611,1.611,0,0,1-.043-.517c.112-.09.2-.168.336-.275a1.171,1.171,0,0,0,.081.713m.652-.715c.148.123.221.192.359.328.08.358-.13.562-.285.814l-.62-.609v-.354c.074-.083.1-.113.186-.2l.174.216v.6c.248-.122.186-.482.186-.794m-.147,3.214c-.073.083-.1.114-.185.2l-.174-.216v-.6c-.246.124-.186.482-.186.794-.146-.122-.219-.191-.359-.327-.079-.358.129-.563.286-.815l.619.609Zm.523-.1c-.111.09-.2.167-.337.274.01-.272.047-.551-.08-.712-.314-.319-.6-.61-.88-.9a.419.419,0,0,1-.12-.438,1.231,1.231,0,0,1,.126-.224.42.42,0,0,0,.147.32c.382.388,1.048.928,1.1,1.157a1.626,1.626,0,0,1,.042.519m.24-3.517-2.389,0V31.49h2.389Z" transform="translate(-1411.118 -14.143)" fill="#5c5a4b"/>
  <path id="Path_84914" data-name="Path 84914" d="M1509.763,67.007v0l-.256.887h.513l-.256-.887Zm-6.124-.068c-.12-.008-.342.007-.544,0v.55a5.3,5.3,0,0,0,.58-.013c.122-.013.2-.127.2-.282a.249.249,0,0,0-.236-.255m-6.59.832c-.2-.011-.393-.011-.544-.011v.005l0,.592a5.1,5.1,0,0,0,.584-.017.265.265,0,0,0,.218-.284.284.284,0,0,0-.256-.285m-2.974,1.52h21.6V66.027h-21.6Zm2.974-.582h-.975V66.591h1a.541.541,0,0,1,.592.5.4.4,0,0,1-.309.487.552.552,0,0,1,.381.565c0,.24-.18.565-.686.565m3.851-.572a.518.518,0,0,1-.189.417.948.948,0,0,1-.632.209h-.007a.939.939,0,0,1-.63-.209.516.516,0,0,1-.192-.417V66.6h.425v1.541a.3.3,0,0,0,.205.261.43.43,0,0,0,.2.035.42.42,0,0,0,.193-.035.305.305,0,0,0,.2-.261V66.6h.427Zm3.018.573c-.1,0,.049-.842-.305-.863-.2-.014-.323-.005-.521,0l0,.865h-.429V66.589c.395,0,.62,0,.976,0,.318.017.636.148.657.5a.5.5,0,0,1-.415.577c.491.108.31.7.44,1.035Zm3.521-1.775h-1.083v.457h.944v.367h-.945v.593h1.084v.354h-1.515V66.585h1.515Zm2.846,1.775-.149-.463h-.745l-.151.463h-.422l.722-2.122h.445l.72,2.122Zm3.4-.575a.513.513,0,0,1-.192.415.929.929,0,0,1-.631.209h-.005a.939.939,0,0,1-.632-.209.524.524,0,0,1-.191-.415V66.592h.428v1.543a.3.3,0,0,0,.2.261.478.478,0,0,0,.2.034.451.451,0,0,0,.193-.034.314.314,0,0,0,.205-.261V66.592h.426Zm-16.662-.7c.149,0,.241-.1.241-.276a.231.231,0,0,0-.258-.236h-.5v.511Z" transform="translate(-1402.807 -37.581)" fill="#5c5a4b"/>
  <path id="Path_84915" data-name="Path 84915" d="M1510.162,75.676v0l-.258.89h.515l-.257-.89Zm-7.269-.066c-.122-.01-.343,0-.544,0v.547a5.023,5.023,0,0,0,.577-.013.251.251,0,0,0,.2-.282.246.246,0,0,0-.236-.252m-8.818,2.361h21.6V74.705h-21.6Zm2.941-.587h-.4l-.7-2.122h.451c.143.53.3,1.129.446,1.574.149-.445.3-1.044.444-1.572h.446Zm3.307-1.314v.366h-.946v.594h1.083l0,.353h-1.516V75.26h1.516l0,.351h-1.082v.457Zm2.848,1.307c-.1,0,.047-.84-.306-.863-.2-.011-.322,0-.52,0l0,.863h-.429V75.256c.393,0,.621.007.975.007.317.017.636.148.656.5a.494.494,0,0,1-.413.576c.491.111.307.7.439,1.033Zm2.354.007h-.432V75.261h.432Zm2.863-1.76h-.615v1.76h-.429l0-1.76h-.617v-.347h1.664Zm2.294,1.76-.151-.463h-.744l-.149.463h-.423l.724-2.122h.443l.723,2.122Zm2.274.048c-.628,0-.87-.4-.87-.712l.4-.016a.419.419,0,0,0,.442.388c.22,0,.468-.047.468-.3,0-.452-1.241-.186-1.241-.9a.7.7,0,0,1,.8-.706c.757,0,.825.529.825.663l-.4.015c0-.172-.1-.332-.38-.332-.3,0-.421.135-.421.284,0,.381,1.247.185,1.247.9,0,.473-.358.715-.865.715" transform="translate(-1402.807 -42.52)" fill="#ac002a"/>
  <path id="Path_84916" data-name="Path 84916" d="M1302,36.521l.674.177a2.378,2.378,0,0,1-.763,1.318,2.052,2.052,0,0,1-1.347.454,2.351,2.351,0,0,1-1.34-.349,2.163,2.163,0,0,1-.786-1.01,3.735,3.735,0,0,1-.27-1.421,3.23,3.23,0,0,1,.3-1.444,2.132,2.132,0,0,1,.866-.936,2.453,2.453,0,0,1,1.236-.32,2.033,2.033,0,0,1,1.286.4,2.111,2.111,0,0,1,.727,1.139l-.664.163a1.645,1.645,0,0,0-.514-.843,1.339,1.339,0,0,0-.849-.263,1.606,1.606,0,0,0-.983.292,1.545,1.545,0,0,0-.554.786,3.273,3.273,0,0,0-.16,1.018,3.341,3.341,0,0,0,.19,1.18,1.454,1.454,0,0,0,.589.753,1.606,1.606,0,0,0,.866.25,1.417,1.417,0,0,0,.959-.34,1.762,1.762,0,0,0,.532-1.008" transform="translate(-1289.846 -18.786)" fill="#5c5a4b"/>
  <path id="Path_84917" data-name="Path 84917" d="M1317.2,38.5V33.2h3.686v.626h-3.011v1.622h2.82v.622h-2.82v1.8H1321V38.5Z" transform="translate(-1300.82 -18.902)" fill="#5c5a4b"/>
  <path id="Path_84918" data-name="Path 84918" d="M1334.8,38.5V33.2h2.26a2.9,2.9,0,0,1,1.036.143,1.145,1.145,0,0,1,.567.5,1.549,1.549,0,0,1,.212.8,1.363,1.363,0,0,1-.351.951,1.749,1.749,0,0,1-1.085.492,1.753,1.753,0,0,1,.407.263,3.669,3.669,0,0,1,.56.7l.887,1.442h-.849l-.674-1.1q-.3-.477-.487-.73a1.546,1.546,0,0,0-.343-.354,1,1,0,0,0-.308-.141,1.986,1.986,0,0,0-.375-.025h-.782V38.5Zm.675-2.96h1.449a2.087,2.087,0,0,0,.723-.1.776.776,0,0,0,.4-.318.885.885,0,0,0,.135-.476.8.8,0,0,0-.262-.618,1.2,1.2,0,0,0-.829-.242h-1.613Z" transform="translate(-1310.968 -18.903)" fill="#5c5a4b"/>
  <path id="Path_84919" data-name="Path 84919" d="M1353.786,38.5V33.822h-1.68V33.2h4.04v.626h-1.686V38.5Z" transform="translate(-1320.946 -18.902)" fill="#5c5a4b"/>
  <rect id="Rectangle_20737" data-name="Rectangle 20737" width="0.675" height="5.299" transform="translate(38.713 14.294)" fill="#5c5a4b"/>
  <path id="Path_84920" data-name="Path 84920" d="M1380.821,38.5V33.2h3.438v.626H1381.5v1.641h2.392v.625H1381.5V38.5Z" transform="translate(-1337.504 -18.902)" fill="#5c5a4b"/>
  <rect id="Rectangle_20738" data-name="Rectangle 20738" width="0.675" height="5.299" transform="translate(50.453 14.294)" fill="#5c5a4b"/>
  <path id="Path_84921" data-name="Path 84921" d="M1408.5,38.5V33.2h3.685v.626h-3.011v1.622h2.82v.622h-2.82v1.8h3.129V38.5Z" transform="translate(-1353.464 -18.902)" fill="#5c5a4b"/>
  <path id="Path_84922" data-name="Path 84922" d="M1426.075,38.5V33.2h1.756a4.108,4.108,0,0,1,.907.076,1.71,1.71,0,0,1,.748.379,2.165,2.165,0,0,1,.6.906,3.693,3.693,0,0,1,.2,1.26,3.842,3.842,0,0,1-.135,1.07,2.656,2.656,0,0,1-.347.772,1.884,1.884,0,0,1-.465.481,1.854,1.854,0,0,1-.608.266,3.375,3.375,0,0,1-.819.09Zm.675-.625h1.088a2.536,2.536,0,0,0,.791-.1,1.121,1.121,0,0,0,.458-.274,1.69,1.69,0,0,0,.374-.671,3.389,3.389,0,0,0,.134-1.021,2.55,2.55,0,0,0-.262-1.278,1.345,1.345,0,0,0-.638-.6,2.544,2.544,0,0,0-.873-.108h-1.071Z" transform="translate(-1363.598 -18.903)" fill="#5c5a4b"/>
  <rect id="Rectangle_20739" data-name="Rectangle 20739" width="1.346" height="6.857" transform="translate(8.691 22.699)" fill="#ac002a"/>
  <path id="Path_84923" data-name="Path 84923" d="M1311.041,57.215l1.31-.131a1.659,1.659,0,0,0,.48,1,1.422,1.422,0,0,0,.975.318,1.469,1.469,0,0,0,.98-.283.849.849,0,0,0,.33-.661.635.635,0,0,0-.139-.414,1.106,1.106,0,0,0-.484-.3q-.236-.084-1.078-.3a3.606,3.606,0,0,1-1.519-.678,1.826,1.826,0,0,1,.507-3.055,3.254,3.254,0,0,1,1.312-.239,2.761,2.761,0,0,1,1.89.566,2.023,2.023,0,0,1,.667,1.511l-1.346.061a1.191,1.191,0,0,0-.371-.76,1.332,1.332,0,0,0-.853-.232,1.5,1.5,0,0,0-.919.248.5.5,0,0,0-.214.425.532.532,0,0,0,.2.416,3.47,3.47,0,0,0,1.237.459,6.379,6.379,0,0,1,1.453.494,1.888,1.888,0,0,1,.737.7,2.211,2.211,0,0,1-.052,2.2,1.926,1.926,0,0,1-.9.765,3.686,3.686,0,0,1-1.451.25,2.833,2.833,0,0,1-1.942-.6,2.64,2.64,0,0,1-.81-1.751" transform="translate(-1297.268 -29.89)" fill="#ac002a"/>
  <path id="Path_84924" data-name="Path 84924" d="M1332.477,56.06a4.48,4.48,0,0,1,.3-1.759,3.258,3.258,0,0,1,.621-.94,2.592,2.592,0,0,1,.862-.617,3.577,3.577,0,0,1,1.437-.271,3.085,3.085,0,0,1,2.358.94,4.3,4.3,0,0,1,.007,5.214,3.061,3.061,0,0,1-2.347.938,3.092,3.092,0,0,1-2.365-.933,3.6,3.6,0,0,1-.877-2.57m1.387-.047a2.618,2.618,0,0,0,.523,1.766,1.764,1.764,0,0,0,2.649,0,2.672,2.672,0,0,0,.516-1.789,2.629,2.629,0,0,0-.5-1.759,1.827,1.827,0,0,0-2.677.007,2.642,2.642,0,0,0-.509,1.771" transform="translate(-1309.628 -29.89)" fill="#ac002a"/>
  <path id="Path_84925" data-name="Path 84925" d="M1372.4,59.968h-1.22V55.239a4.181,4.181,0,0,1-1.576.951V55.052a3.511,3.511,0,0,0,1.038-.61,2.312,2.312,0,0,0,.768-1.047h.99Z" transform="translate(-1331.036 -30.412)" fill="#ac002a"/>
  <path id="Path_84926" data-name="Path 84926" d="M1385.739,56.435a1.424,1.424,0,0,1-.688-.565,1.5,1.5,0,0,1-.215-.788,1.605,1.605,0,0,1,.5-1.21,2.32,2.32,0,0,1,2.822,0,1.6,1.6,0,0,1,.5,1.21,1.435,1.435,0,0,1-.877,1.352,1.659,1.659,0,0,1,1.081,1.608,1.938,1.938,0,0,1-2.057,2.041,2.215,2.215,0,0,1-1.446-.469,1.849,1.849,0,0,1-.682-1.518,1.922,1.922,0,0,1,.256-.975,1.664,1.664,0,0,1,.808-.686m.139,1.541a1.176,1.176,0,0,0,.258.809.827.827,0,0,0,.645.29.8.8,0,0,0,.625-.279,1.181,1.181,0,0,0,.247-.806,1.062,1.062,0,0,0-.252-.739.822.822,0,0,0-.638-.279.755.755,0,0,0-.667.317,1.183,1.183,0,0,0-.219.688m.113-2.8a.8.8,0,0,0,.207.585.733.733,0,0,0,.549.21.744.744,0,0,0,.556-.212.8.8,0,0,0,.208-.587.777.777,0,0,0-.207-.565.726.726,0,0,0-.545-.212.746.746,0,0,0-.56.214.779.779,0,0,0-.208.567" transform="translate(-1339.726 -30.413)" fill="#ac002a"/>
  <path id="Path_84927" data-name="Path 84927" d="M1404.5,58.8v1.165h-4.277a3.089,3.089,0,0,1,.417-1.252,8.272,8.272,0,0,1,1.372-1.57,8.814,8.814,0,0,0,1.012-1.072,1.4,1.4,0,0,0,.251-.768.886.886,0,0,0-.219-.645.911.911,0,0,0-1.213.011,1.236,1.236,0,0,0-.261.786l-1.216-.125a2.071,2.071,0,0,1,.682-1.487,2.248,2.248,0,0,1,1.432-.451,2.038,2.038,0,0,1,1.481.522,1.739,1.739,0,0,1,.538,1.3,2.316,2.316,0,0,1-.155.841,3.434,3.434,0,0,1-.488.837,8.011,8.011,0,0,1-.8.835q-.578.545-.732.723a2.218,2.218,0,0,0-.25.349Z" transform="translate(-1348.692 -30.412)" fill="#ac002a"/>
  <path id="Path_84928" data-name="Path 84928" d="M1416.37,58.454l1.181-.134a.89.89,0,0,0,.226.549.66.66,0,0,0,.482.179.781.781,0,0,0,.643-.357,3.111,3.111,0,0,0,.339-1.482,1.441,1.441,0,0,1-1.151.549,1.7,1.7,0,0,1-1.3-.6,2.21,2.21,0,0,1-.545-1.551,2.244,2.244,0,0,1,.576-1.605,1.926,1.926,0,0,1,1.465-.609,1.952,1.952,0,0,1,1.589.77,4.065,4.065,0,0,1,.621,2.534,4.115,4.115,0,0,1-.647,2.59,2.07,2.07,0,0,1-1.684.795,1.751,1.751,0,0,1-1.208-.408,1.99,1.99,0,0,1-.59-1.221m2.761-2.741a1.459,1.459,0,0,0-.271-.942.793.793,0,0,0-.627-.335.7.7,0,0,0-.562.275,1.43,1.43,0,0,0-.224.9,1.457,1.457,0,0,0,.243.931.764.764,0,0,0,1.2.012,1.274,1.274,0,0,0,.24-.84" transform="translate(-1357.931 -30.413)" fill="#ac002a"/>
  <path id="Path_84929" data-name="Path 84929" d="M1432.4,58.435l1.216-.13a1.077,1.077,0,0,0,.308.672.821.821,0,0,0,.59.248.811.811,0,0,0,.647-.319,1.486,1.486,0,0,0,.265-.962,1.346,1.346,0,0,0-.263-.9.864.864,0,0,0-.684-.3,1.23,1.23,0,0,0-.942.477l-.99-.148.625-3.406h3.226v1.174h-2.3l-.19,1.112a1.827,1.827,0,0,1,2.21.4,2.224,2.224,0,0,1,.563,1.576,2.4,2.4,0,0,1-.456,1.443,2,2,0,0,1-1.723.866,2.1,2.1,0,0,1-1.437-.486,2.018,2.018,0,0,1-.664-1.308" transform="translate(-1367.242 -30.564)" fill="#ac002a"/>
  <rect id="Rectangle_20740" data-name="Rectangle 20740" width="2.396" height="1.255" transform="translate(71.98 26.552)" fill="#ac002a"/>
  <path id="Path_84930" data-name="Path 84930" d="M1462.991,59.968h-1.221V55.239a4.18,4.18,0,0,1-1.575.951V55.052a3.5,3.5,0,0,0,1.037-.61A2.31,2.31,0,0,0,1462,53.4h.99Z" transform="translate(-1383.272 -30.412)" fill="#ac002a"/>
</svg>
