<?xml version="1.0" encoding="UTF-8"?>
<svg id="Group_65376" xmlns="http://www.w3.org/2000/svg" version="1.1" viewBox="0 0 120 44">
  <!-- Generator: Adobe Illustrator 29.0.1, SVG Export Plug-In . SVG Version: 2.1.0 Build 192)  -->
  <defs>
    <style>
      .st0 {
        fill: #5c5a4b;
      }

      .st1 {
        fill: #fff;
      }

      .st2 {
        fill: #ac002a;
      }
    </style>
  </defs>
  <path id="Path_84978" class="st1" d="M8.4.2h103.2c4.6,0,8.2,3.8,8.2,8.3v26.9c0,4.6-3.6,8.3-8.2,8.3H8.4c-4.6,0-8.2-3.8-8.2-8.3V8.6C.2,4,3.8.3,8.4.2Z"/>
  <path id="Path_84931" class="st0" d="M111.6.4c4.4,0,8,3.7,8,8.1v26.9c0,4.4-3.5,8.1-8,8.1H8.4c-4.4,0-8-3.7-8-8.1V8.6C.4,4.1,4,.5,8.4.4h103.2ZM111.6,0H8.4C3.7,0,0,3.9,0,8.6v26.9c0,4.7,3.7,8.5,8.4,8.6h103.2c4.7,0,8.4-3.9,8.4-8.6V8.6c0-4.7-3.7-8.5-8.4-8.6"/>
  <path id="Path_84932" class="st0" d="M99.1,8.7s0,0,0,0"/>
  <path id="Path_84933" class="st0" d="M99.1,8.7h0"/>
  <path id="Path_84934" class="st0" d="M102.1,27.4h0c-1,0-2-.2-3-.5-1.1-.4-2-1.1-2.6-2-1.2-2.2-1.9-4.6-1.9-7.1h0c0-2.5.7-5,1.9-7.1.6-.9,1.5-1.6,2.6-2,2-.6,4.1-.6,6.1,0,1.1.4,2,1.1,2.6,2,1.2,2.2,1.9,4.6,1.9,7.1h0c0,2.5-.7,5-1.9,7.1-.6.9-1.5,1.7-2.6,2-1,.3-2,.5-3,.5h0ZM109.1,17.7h0c0-2.1-.4-4.2-1.2-6.1-.5-1.4-1.7-2.5-3.2-3-1.7-.4-3.4-.4-5.1,0-1.5.4-2.7,1.5-3.2,3-1.6,3.9-1.6,8.3,0,12.2.5,1.4,1.7,2.5,3.2,3,1.7.4,3.4.4,5.1,0,1.5-.4,2.7-1.5,3.2-3,.8-1.9,1.2-4,1.2-6.1"/>
  <path id="Path_84935" class="st0" d="M103.2,13.4c0,0,0-.1-.1-.2"/>
  <path id="Path_84936" class="st0" d="M102.4,26.5c0-.4.4-.6.6-.8,0,0,0-.2,0-.3,0,0,0,0-.1-.1,0,0-.1,0-.2,0,0,0,0,.2,0,.3h-.3c0-.1,0-.3,0-.4.1-.1.3-.2.5-.2.2,0,.3.1.4.3,0,.2,0,.4,0,.5-.2.2-.4.3-.5.4h.7s0,.1,0,.2h-1Z"/>
  <path id="Path_84937" class="st0" d="M100,24.8h0s-.4,1.4-.4,1.4h-.3c0,0,.3-1,.3-1h0c-.1,0-.2,0-.3-.1v-.2c.2,0,.3,0,.5,0,0,0,0,0,0,0h.2Z"/>
  <path id="Path_84938" class="st0" d="M105.2,25.6c0-.1-.1-.2-.2-.3h0c.1,0,.2-.2.1-.3,0-.1-.1-.2-.2-.3-.1,0-.2,0-.4,0-.1,0-.2,0-.3.2,0,0-.1.2,0,.4,0,.1.1.2.3.2h0c0,.2-.1.3,0,.4,0,.1.1.3.3.3.1,0,.2,0,.4,0,.1,0,.2,0,.3-.2.1-.1.2-.3.1-.4M104.3,25.2c0,0,0-.2,0-.2,0,0,0,0,.1,0,0,0,.1,0,.2,0,0,0,.1.1.1.2,0,0,0,0,0,.1,0,0,0,0-.1,0,0,0,0,0-.1,0,0,0,0,0-.1,0M104.9,25.8s-.1,0-.2,0c0,0-.1,0-.2,0,0,0-.1,0-.1-.1,0,0,0-.2,0-.2,0,0,0,0,.1,0,0,0,0,0,.1,0,0,0,.2,0,.2.2,0,0,0,.1,0,.2"/>
  <path id="Path_84939" class="st0" d="M101.7,26.1c0-.1,0-.3-.2-.3h0c.1,0,.2-.2.2-.3,0-.1,0-.3-.1-.3-.1,0-.2,0-.3,0-.1,0-.2,0-.3,0-.1,0-.2.2-.2.3,0,.1,0,.2.2.3h0c-.1,0-.2.2-.2.4,0,.2,0,.3.2.4.2.1.5.1.7,0,.1,0,.2-.2.2-.4M100.9,25.4c0,0,0-.2,0-.2,0,0,.2,0,.3,0,0,0,0,.1,0,.2,0,0,0,0,0,0,0,0,0,0-.1,0,0,0,0,0-.1,0,0,0,0,0,0-.1M101.3,26.2c0,0-.1,0-.2,0,0,0-.1,0-.2,0,0,0,0-.1,0-.2,0,0,0-.2.1-.2,0,0,0,0,.1,0,0,0,0,0,.1,0,.1,0,.2.2,0,.3,0,0,0,0,0,0"/>
  <path id="Path_84940" class="st0" d="M107.9,12.5l-1.3.6v-.3c-.1,0,1.2-.6,1.2-.6v.3Z"/>
  <path id="Path_84941" class="st0" d="M103.1,10.3l-.3-1.5h.3c0,.4.1.8.2,1.1.1-.3.3-.7.4-1h.3s-.6,1.4-.6,1.4h-.3Z"/>
  <path id="Path_84942" class="st0" d="M97.6,11.1l-.3.6h-.3c0-.1.4-.8.4-.8h-.2c0-.1-.5.8-.5.8l1.2.7.5-.9h-.2c0-.1-.4.5-.4.5l-.3-.2.3-.6h-.2Z"/>
  <path id="Path_84943" class="st0" d="M96.9,17.1c0-.1-.2-.2-.4-.2-.1,0-.3.1-.3.3,0-.1-.1-.2-.2-.2-.1,0-.3,0-.3.1,0,.3,0,.6,0,1h1.4c0-.4,0-.7,0-.9M96.1,17.8h-.3c0-.3,0-.5.2-.5.1,0,.1,0,.2,0,0,.1,0,.3,0,.4M96.7,17.8h-.4c0-.3,0-.5.1-.5,0,0,.1,0,.2,0,0,0,0,.2,0,.5"/>
  <path id="Path_84944" class="st0" d="M107.9,13.3h.2c0,0,.3,1.1.3,1.1h-.2c0,0,0-.4,0-.4l-1.1.3v-.3c0,0,1-.3,1-.3v-.4Z"/>
  <path id="Path_84945" class="st0" d="M100.9,10.4c.2,0,.3,0,.4-.2,0,0,.1-.2,0-.3l-.2-1h-.3s.2,1.1.2,1.1c0,0,0,.2-.1.2,0,0,0,0-.1,0,0,0,0,0-.1,0,0,0-.1,0-.2-.2l-.2-1h-.3s.2,1.1.2,1.1c0,.1,0,.2.2.3.1,0,.3.1.4,0h0Z"/>
  <path id="Path_84946" class="st0" d="M108.5,15.3l-1.4-.3v.3s.4,0,.4,0v.5c0,0-.2.1-.2.1v.3s1.3-.7,1.3-.7v-.3ZM107.7,15.8v-.4s.6,0,.6,0h0l-.6.3Z"/>
  <path id="Path_84947" class="st0" d="M108.3,17.8h0s0,0,0,0c0,0,.1-.2.1-.3,0-.1,0-.2-.1-.2,0,0-.1,0-.1,0-.2.2,0,.7-.5.8-.2,0-.3,0-.4-.2-.1-.3-.1-.6,0-.8,0-.1.2-.2.3-.2v.3c0,0-.2,0-.2.1,0,.2,0,.3,0,.5,0,0,.1,0,.2,0,.2-.1.1-.4.2-.6,0,0,0-.2.2-.2.1,0,.3,0,.4,0,.2.2.2.5.1.7,0,.2-.2.3-.4.3v-.3s0,0,0,0Z"/>
  <path id="Path_84948" class="st0" d="M97.1,15.6c0-.2,0-.3,0-.5,0,0-.1-.2-.2-.2l-1-.2v.3s.9.2.9.2c0,0,.1,0,.1.2,0,0,0,0,0,.1,0,0,0,0,0,.1,0,0-.1.1-.2.1l-1-.2v.3s.9.2.9.2c.1,0,.2,0,.3,0,.1-.1.2-.3.2-.4h0Z"/>
  <path id="Path_84949" class="st0" d="M98.7,9.6l-.3.2.3,1.5.2-.2v-.3c0,0,.4-.3.4-.3l.2.2.2-.2-1.1-1ZM98.8,10.5l-.2-.6h0l.4.4-.3.2Z"/>
  <path id="Path_84950" class="st0" d="M105.4,10l-.6-.3v-.3c.1,0,.8.3.8.3v-.2c0,0-.8-.4-.8-.4l-.5,1.3.9.4v-.2c0,0-.6-.3-.6-.3v-.4c.1,0,.7.3.7.3v-.2Z"/>
  <path id="Path_84951" class="st0" d="M97,13.2c0,0,0-.2,0-.3,0,0-.2-.1-.3-.1-.3,0-.4.4-.5,1l1.3.4v-.3c0,0-.4-.2-.4-.2h0c0-.1,0-.2.1-.3,0-.2.4,0,.6,0v-.3c-.2,0-.5-.2-.6,0M96.7,13.7h-.3c0-.3.1-.6.3-.6,0,0,.1,0,.2,0,0,0,0,.3,0,.5"/>
  <path id="Path_84952" class="st0" d="M106.7,10.4l-1.1.9.2.2.4-.3h0c0,0,.1.2.2.3.1.2-.3.4-.3.5l.2.2c.1-.2.5-.3.4-.6,0,0,.2,0,.3,0,.1,0,.2,0,.3-.2.1-.3-.1-.5-.5-1M106.9,11.2s0,0-.2,0c-.1,0-.2-.2-.3-.4l.3-.2c.1.2.3.4.2.5"/>
  <path id="Path_84953" class="st0" d="M105.8,12.3c-.3-.7-.9-1.2-1.6-1.4-.7-.2-1.4-.3-2.1-.3h0c-.7,0-1.4,0-2.1.3-.7.2-1.3.7-1.6,1.4-1.4,3.5-1.4,7.3,0,10.8.3.7.9,1.2,1.6,1.4.7.2,1.4.3,2.1.3h0c.7,0,1.4,0,2.1-.3.7-.2,1.3-.7,1.6-1.4,1.4-3.5,1.4-7.3,0-10.8M104.6,16.3s.1,0,.1,0v-1.3c.2,0,.3-.1.5-.1v.8c0,0,.1,0,.3,0v1h-.3s0,.4,0,.4h-1.1l-.2-.4c-.3,0-.3,0-.5,0,.3-.3.5-.7.7-1v-.5h.5c0,0,0,1.1,0,1.1,0,0,0,0,.1,0h0ZM104,11.7c.2,0,.5,0,.5.3,0,0,0,.2,0,.2,0,.3-.5.4-.8.5l-.2-.2c0-.3,0-.6.4-.8M103,13.1v.2c.1,0-.2.3-.2.3,0,0,0,0-.2-.2.2-.2.2-.2.4-.4M99.2,12.7h0c0,.2.2.3.3.4,0,0,0-.2-.1-.3,0-.2,0-.4,0-.6,0-.1.2-.2.3-.2,0,.2,0,.3,0,.5,0,0,.1,0,.2-.1,0,0,0,0,0,0,.2.3.2.6.2.9h0c0,0,0-.2-.2-.3,0,.1,0,.2,0,.4,0,.2,0,.5-.1.6h-.4c-.3-.4-.4-.8-.3-1.3M100.2,14.1v.2h-.2v.8c-.2,0-.3-.1-.4-.2,0-.3,0-.3,0-.6h-.2v-.2h.9M98.6,17.3h2.4v.7h-2.4v-.7ZM99.6,15.9c.1,0,.2,0,.3.1,0,.4,0,.4,0,.8h-.2c0-.4,0-.6,0-.9M99.4,21c0,0-.1,0-.2,0-.1,0-.3-.1-.3-.2h0s0,0,0,0h0s0-.1,0-.1v-1.3c0-.2,0-.2-.2-.3h0s.5-.2.5-.2c0,0,.1.2,0,.3v1c0,0,0,.1.1.1,0,0,.1,0,.1-.1,0-.5,0-.6,0-1,0-.1.1-.3.3-.3.1,0,.3,0,.4,0,.2.1.2.6.2,1,0,0-.1,0-.2,0,0,0-.2,0-.2,0,0,0,0,.2,0,.3,0,.4,0,.7-.2.9-.1,0-.3.1-.4.1M100.1,22.4c0,0-.2-.2-.2-.3,0-.5.4-.6.6-1,0-.6.2-1.3.6-1.8,0-.9.4-1.8,1-2.4,0-.2,0-.4-.2-.6,0,0-.2,0-.2,0,0,0,0-.2,0-.2-.2.3-.5.6-.8.8,0,0-.1,0-.2-.1-.4-.3-.4-1-1-1-.3,0-.2-.4-.3-.6.1,0,.2,0,.4,0,.4.2.6.6.9.9,0,0,.2.1.3.2.2-.2.4-.4.5-.7,0-.2.3-.3.5-.2v-.2c.1,0,0-.4,0-.4-.1-.2-.3-.4-.3-.6,0-.2,0-.5.3-.6.2-.1.3.1.4,0,0,0,.2,0,.2,0,.1.2.2.3.2.5,0,.2-.1.4-.2.5,0,0,0,0-.1,0,0,0,0,.2,0,.2,0,0,.1,0,.2,0,0-.2.3-.3.5-.4l.4-.3c0-.3.1-.6,0-.9-.2-.1-.3-.3-.3-.6,0-.1.1-.3.2-.4h0c.2.3.4.5.5.9,0,.4,0,.8,0,1.3-.2.2-.5.4-.7.5l-.2.4c0,.4-.1.7-.2,1.1.2.4.3.9.2,1.4-.1.2-.3.4-.5.5l-.4.3c.4.5.3,1,.3,1.7,0,.2.3.3.1.5-.1.2-.3.4-.3.6-.1.2-.3.3-.6.3,0,0,0,0,0,0,0,0,0,0,0,0,0-.1,0-.2.2-.3.1-.2,0-.5.3-.8-.2-.5-.3-1-.4-1.5h0c0,.2,0,.4,0,.6-.5.5-.8,1.1-.8,1.7-.2.3-.4.6-.5.9,0,0-.1,0-.2,0M102.8,20.8c.3,0,.5.2.6.4,0,.2,0,.5,0,.7-.2.2-.4.3-.7.3-.2,0-.4-.2-.5-.3.1,0,.4-.1.4-.3,0-.2.1-.4.3-.6,0,0,0-.1,0-.2M103,20.6v-2.1h.7v2.1h-.7ZM101.5,23.8c-.2.1-.5.2-.7,0-.1,0-.2-.2-.3-.3,0,0,0-.2,0-.3h1.4c0,.2-.1.4-.3.5M102.5,23.8h-.5v-.9h-.7v-.3h.7l.2-.3c.1.1.1.1.2.3h.7v.3h-.7v.9ZM103.9,23.5c0,.1-.2.2-.3.3-.2.1-.5,0-.7,0-.2-.1-.3-.3-.3-.5h1.4c0,0,0,.2,0,.3M104.5,19.2c.3.3.6.6.9.9.1.1.2.3.1.4,0,0,0,.2-.1.2,0-.1,0-.2-.1-.3-.4-.4-1.1-.9-1.1-1.2,0-.2,0-.3,0-.5.1,0,.2-.2.3-.3,0,.2,0,.5,0,.7M105.1,18.5c.1.1.2.2.4.3,0,.4-.1.6-.3.8l-.6-.6v-.4c0,0,0-.1.2-.2l.2.2v.6c.2-.1.2-.5.2-.8M105,21.7c0,0,0,.1-.2.2l-.2-.2v-.6c-.2.1-.2.5-.2.8-.1-.1-.2-.2-.4-.3,0-.4.1-.6.3-.8l.6.6v.4ZM105.5,21.6c-.1,0-.2.2-.3.3,0-.3,0-.6,0-.7-.3-.3-.6-.6-.9-.9-.1-.1-.2-.3-.1-.4,0,0,0-.2.1-.2,0,.1,0,.2.1.3.4.4,1,.9,1.1,1.2,0,.2,0,.3,0,.5M105.7,18.1h-2.4v-.7h2.4v.7Z"/>
  <path id="Path_84954" class="st0" d="M107,29.4h0l-.3.9h.5l-.3-.9h0ZM100.8,29.4c-.1,0-.3,0-.5,0v.6c.2,0,.4,0,.6,0,.1,0,.2-.1.2-.3,0-.1-.1-.2-.2-.3M94.2,30.2c-.2,0-.4,0-.5,0h0v.6c.2,0,.4,0,.6,0,.1,0,.2-.1.2-.3,0-.1-.1-.3-.3-.3M91.3,31.7h21.6v-3.3h-21.6v3.3ZM94.2,31.1h-1v-2.1h1c.3,0,.6.2.6.5,0,0,0,0,0,0,0,.2,0,.4-.3.5,0,0,0,0,0,0,.2,0,.4.3.4.6,0,.2-.2.6-.7.6M98.1,30.6c0,.2,0,.3-.2.4-.2.1-.4.2-.6.2h0c-.2,0-.5,0-.6-.2-.1-.1-.2-.3-.2-.4v-1.5h.4v1.5c0,.1,0,.2.2.3,0,0,.1,0,.2,0,0,0,.1,0,.2,0,.1,0,.2-.1.2-.3v-1.5h.4v1.5ZM101.1,31.1c0,0,0-.8-.3-.9-.2,0-.3,0-.5,0v.9h-.4v-2.1h1c.3,0,.6.1.7.5,0,.3-.1.5-.4.6,0,0,0,0,0,0,.5.1.3.7.4,1h-.4ZM104.6,29.4h-1.1v.5h.9v.4h-.9v.6h1.1v.4h-1.5v-2.1h1.5v.3ZM107.5,31.1v-.5h-.9l-.2.5h-.4l.7-2.1h.4l.7,2.1h-.4ZM110.9,30.6c0,.2,0,.3-.2.4-.2.1-.4.2-.6.2h0c-.2,0-.5,0-.6-.2-.1-.1-.2-.3-.2-.4v-1.5h.4v1.5c0,.1,0,.2.2.3,0,0,.1,0,.2,0,0,0,.1,0,.2,0,.1,0,.2-.1.2-.3v-1.5h.4v1.5ZM94.2,29.9c.1,0,.2,0,.2-.3,0-.1,0-.2-.2-.2,0,0,0,0,0,0h-.5v.5h.5Z"/>
  <path id="Path_84955" class="st2" d="M107.4,33.2h0l-.3.9h.5l-.3-.9ZM100.1,33.1c-.1,0-.3,0-.5,0v.5c.2,0,.4,0,.6,0,.1,0,.2-.1.2-.3,0-.1-.1-.2-.2-.3M91.3,35.5h21.6v-3.3h-21.6v3.3ZM94.2,34.9h-.4l-.7-2.1h.5c.1.5.3,1.1.4,1.6.2-.4.3-1,.4-1.6h.4l-.7,2.1ZM97.5,33.5v.4h-.9v.6h1.1v.4h-1.5v-2.1h1.5v.4h-1.1v.5h.9ZM100.4,34.9c0,0,0-.8-.3-.9-.2,0-.3,0-.5,0v.9h-.4v-2.1c.4,0,.6,0,1,0,.3,0,.6.1.7.5,0,.3-.1.5-.4.6,0,0,0,0,0,0,.5.1.3.7.4,1h-.4ZM102.7,34.9h-.4v-2.1h.4v2.1ZM105.6,33.1h-.6v1.8h-.4v-1.8h-.6v-.3h1.7v.3ZM107.9,34.9l-.2-.5h-.7v.5h-.6l.7-2.1h.4l.7,2.1h-.4ZM110.1,34.9c-.6,0-.9-.4-.9-.7h.4c0,.2.2.4.4.4.2,0,.5,0,.5-.3,0-.5-1.2-.2-1.2-.9,0-.4.3-.7.7-.7,0,0,0,0,.1,0,.8,0,.8.5.8.7h-.4c0-.2,0-.3-.4-.3s-.4.1-.4.3c0,.4,1.2.2,1.2.9s-.4.7-.9.7"/>
  <path id="Path_84956" class="st0" d="M12.2,17.7l.7.2c-.1.5-.4,1-.8,1.3-.4.3-.9.5-1.3.5-.5,0-.9-.1-1.3-.3-.4-.2-.6-.6-.8-1-.2-.5-.3-.9-.3-1.4,0-.5,0-1,.3-1.4.2-.4.5-.7.9-.9.4-.2.8-.3,1.2-.3.5,0,.9.1,1.3.4.4.3.6.7.7,1.1l-.7.2c0-.3-.3-.6-.5-.8-.2-.2-.5-.3-.8-.3-.4,0-.7,0-1,.3-.3.2-.5.5-.6.8-.1.3-.2.7-.2,1,0,.4,0,.8.2,1.2.1.3.3.6.6.8.3.2.6.3.9.2.4,0,.7-.1,1-.3.3-.3.5-.6.5-1"/>
  <path id="Path_84957" class="st0" d="M16.4,19.6v-5.3h3.7v.6h-3v1.6h2.8v.6h-2.8v1.8h3.1v.6h-3.8Z"/>
  <path id="Path_84958" class="st0" d="M23.8,19.6v-5.3h2.3c.4,0,.7,0,1,.1.2,0,.4.3.6.5.1.2.2.5.2.8,0,.4-.1.7-.4,1-.3.3-.7.5-1.1.5.1,0,.3.2.4.3.2.2.4.4.6.7l.9,1.4h-.8l-.7-1.1c-.2-.3-.4-.6-.5-.7,0-.1-.2-.3-.3-.4,0,0-.2-.1-.3-.1-.1,0-.2,0-.4,0h-.8v2.4h-.7ZM24.5,16.6h1.5c.2,0,.5,0,.7,0,.2,0,.3-.2.4-.3,0-.1.1-.3.1-.5,0-.2,0-.5-.3-.6-.2-.2-.5-.3-.8-.2h-1.6v1.8Z"/>
  <path id="Path_84959" class="st0" d="M32.8,19.6v-4.7h-1.7v-.6h4v.6h-1.7v4.7h-.7Z"/>
  <rect id="Rectangle_20742" class="st0" x="38.7" y="14.3" width=".7" height="5.3"/>
  <path id="Path_84960" class="st0" d="M43.3,19.6v-5.3h3.4v.6h-2.8v1.6h2.4v.6h-2.4v2.4h-.7Z"/>
  <rect id="Rectangle_20743" class="st0" x="50.5" y="14.3" width=".7" height="5.3"/>
  <path id="Path_84961" class="st0" d="M55,19.6v-5.3h3.7v.6h-3v1.6h2.8v.6h-2.8v1.8h3.1v.6h-3.8Z"/>
  <path id="Path_84962" class="st0" d="M62.5,19.6v-5.3h1.8c.3,0,.6,0,.9,0,.3,0,.5.2.7.4.3.2.5.6.6.9.1.4.2.8.2,1.3,0,.4,0,.7-.1,1.1,0,.3-.2.5-.3.8-.1.2-.3.3-.5.5-.2.1-.4.2-.6.3-.3,0-.5,0-.8,0h-1.8ZM63.2,19h1.1c.3,0,.5,0,.8,0,.2,0,.3-.1.5-.3.2-.2.3-.4.4-.7,0-.3.1-.7.1-1,0-.4,0-.9-.3-1.3-.1-.3-.4-.5-.6-.6-.3,0-.6-.1-.9-.1h-1.1v4.1Z"/>
  <rect id="Rectangle_20744" class="st2" x="8.7" y="22.7" width="1.3" height="6.9"/>
  <path id="Path_84963" class="st2" d="M13.8,27.3h1.3c0,.2.2.6.5.9.3.2.6.3,1,.3.3,0,.7,0,1-.3.2-.2.3-.4.3-.7,0-.2,0-.3-.1-.4-.1-.1-.3-.2-.5-.3-.2,0-.5-.2-1.1-.3-.6-.1-1.1-.3-1.5-.7-.8-.7-.8-1.8-.2-2.6.2-.2.4-.4.7-.5.4-.2.9-.3,1.3-.2.7,0,1.4.2,1.9.6.4.4.7.9.7,1.5h-1.3c0-.2-.2-.5-.4-.7-.2-.2-.6-.3-.9-.2-.3,0-.6,0-.9.2-.1,0-.2.3-.2.4,0,.2,0,.3.2.4.4.2.8.4,1.2.5.5.1,1,.3,1.5.5.3.2.6.4.7.7.2.3.3.7.3,1.1,0,.4-.1.8-.3,1.1-.2.3-.5.6-.9.8-.5.2-1,.3-1.5.2-.7,0-1.4-.2-1.9-.6-.5-.5-.8-1.1-.8-1.8"/>
  <path id="Path_84964" class="st2" d="M22.8,26.2c0-.6,0-1.2.3-1.8.2-.3.4-.7.6-.9.2-.3.5-.5.9-.6.5-.2.9-.3,1.4-.3.9,0,1.7.3,2.4.9,1.2,1.5,1.2,3.7,0,5.2-1.3,1.2-3.4,1.2-4.7,0-.6-.7-.9-1.6-.9-2.6M24.2,26.1c0,.6.1,1.3.5,1.8.6.7,1.8.8,2.5.2,0,0,.1-.1.2-.2.4-.5.6-1.2.5-1.8,0-.6-.1-1.3-.5-1.8-.7-.7-1.8-.8-2.6,0,0,0,0,0,0,0-.4.5-.6,1.1-.5,1.8"/>
  <path id="Path_84965" class="st2" d="M38.1,28.1h1c0,0,.1.3.2.5.3.3.7.3,1,0,0,0,0,0,0,0,.1-.2.2-.4.2-.6,0-.2,0-.4-.2-.6-.1-.1-.3-.2-.5-.2-.2,0-.3,0-.5,0v-.8c.3,0,.5,0,.7-.2.1-.1.2-.3.2-.5,0-.2,0-.3-.2-.4-.1-.1-.3-.2-.4-.2-.2,0-.3,0-.4.2-.1.1-.2.3-.2.5l-.9-.2c0-.3.1-.5.3-.8.1-.2.3-.4.5-.5.2-.1.5-.2.8-.2.4,0,.9.2,1.2.5.2.2.4.6.4.9,0,.5-.3.9-.7,1.1.3,0,.5.2.7.4.2.2.3.5.3.8,0,.4-.2.9-.5,1.2-.7.6-1.7.7-2.4,0-.3-.3-.5-.7-.5-1.1"/>
  <path id="Path_84966" class="st2" d="M42.5,25.3v-.9h3.4v.7c-.3.4-.6.8-.9,1.2-.3.5-.5,1.1-.7,1.7-.1.5-.2,1.1-.2,1.6h-1c0-.8.2-1.5.4-2.2.3-.7.6-1.4,1.1-2h-2.2Z"/>
  <path id="Path_84967" class="st2" d="M46.9,28.1h1c0,0,.1.3.2.5.3.3.7.3,1,0,0,0,0,0,0,0,.1-.2.2-.4.2-.6,0-.2,0-.4-.2-.6-.1-.1-.3-.2-.5-.2-.2,0-.3,0-.5,0v-.8c.3,0,.5,0,.7-.2.1-.1.2-.3.2-.5,0-.2,0-.3-.2-.4-.1-.1-.3-.2-.4-.2-.2,0-.3,0-.4.2-.1.1-.2.3-.2.5l-.9-.2c0-.3.1-.5.3-.8.1-.2.3-.4.5-.5.2-.1.5-.2.8-.2.4,0,.9.2,1.2.5.2.2.4.6.4.9,0,.5-.3.9-.7,1.1.3,0,.5.2.7.4.2.2.3.5.3.8,0,.4-.2.9-.5,1.2-.7.6-1.7.7-2.4,0-.3-.3-.5-.7-.5-1.1"/>
  <path id="Path_84968" class="st2" d="M52.9,24.2c.5,0,.9.2,1.2.5.4.6.6,1.4.5,2.2,0,.8-.1,1.5-.5,2.2-.3.4-.7.6-1.2.5-.5,0-.9-.2-1.2-.6-.4-.6-.5-1.4-.5-2.1,0-.8.1-1.5.5-2.2.3-.4.7-.6,1.2-.5M52.9,25.1c-.1,0-.2,0-.3.1-.1.1-.2.3-.2.4-.1.9-.1,1.7,0,2.6,0,.2.1.3.2.5.2.2.5.2.6,0,.1-.1.2-.3.2-.4.1-.9.1-1.7,0-2.6,0-.2-.1-.3-.2-.5,0,0-.2-.1-.3-.1"/>
  <path id="Path_84969" class="st2" d="M58.2,29.5h-1v-3.8c-.4.3-.8.6-1.3.8v-.9c.3-.1.6-.3.8-.5.3-.2.5-.5.6-.8h.8v5.3Z"/>
  <path id="Path_84970" class="st2" d="M60.4,25.7h1v1h-1v-1ZM60.4,28.5h1v1h-1v-1Z"/>
  <path id="Path_84971" class="st2" d="M66.1,28.6v.9h-3.5c0-.4.2-.7.3-1,.3-.5.7-.9,1.1-1.3.3-.3.6-.6.8-.9.1-.2.2-.4.2-.6,0-.2,0-.4-.2-.5-.3-.2-.7-.2-1,0-.1.2-.2.4-.2.6h-1c0-.6.2-1,.6-1.3.3-.3.7-.4,1.2-.4.4,0,.9.1,1.2.4.3.3.4.7.4,1.1,0,.2,0,.5-.1.7-.1.2-.2.5-.4.7-.2.2-.4.5-.6.7-.3.3-.5.5-.6.6,0,0-.1.2-.2.3h2Z"/>
  <path id="Path_84972" class="st2" d="M68.8,24.2c.5,0,.9.2,1.2.5.4.6.6,1.4.5,2.2,0,.8-.1,1.5-.5,2.2-.3.4-.7.6-1.2.5-.5,0-.9-.2-1.2-.6-.4-.6-.5-1.4-.5-2.1,0-.8.1-1.5.5-2.2.3-.4.7-.6,1.2-.5M68.8,25.1c-.1,0-.2,0-.3.1-.1.1-.2.3-.2.4-.1.9-.1,1.7,0,2.6,0,.2.1.3.2.5.2.2.5.2.6,0,.1-.1.2-.3.2-.4.1-.9.1-1.7,0-2.6,0-.2-.1-.3-.2-.5,0,0-.2-.1-.3-.1"/>
  <path id="Path_84973" class="st2" d="M74.8,28.6v.9h-3.5c0-.4.2-.7.3-1,.3-.5.7-.9,1.1-1.3.3-.3.6-.6.8-.9.1-.2.2-.4.2-.6,0-.2,0-.4-.2-.5-.3-.2-.7-.2-1,0-.1.2-.2.4-.2.6h-1c0-.6.2-1,.6-1.3.3-.3.7-.4,1.2-.4.4,0,.9.1,1.2.4.3.3.4.7.4,1.1,0,.2,0,.5-.1.7-.1.2-.2.5-.4.7-.2.2-.4.5-.6.7-.3.3-.5.5-.6.6,0,0-.1.2-.2.3h2Z"/>
  <path id="Path_849691" data-name="Path_84969" class="st2" d="M78.3,29.6h-1v-3.8c-.4.3-.8.6-1.3.8v-.9c.3-.1.6-.3.8-.5.3-.2.5-.5.6-.8h.8v5.3Z"/>
</svg>