<svg xmlns="http://www.w3.org/2000/svg" xmlns:xlink="http://www.w3.org/1999/xlink" width="60" height="59" viewBox="0 0 60 59"><defs><filter id="a" x="0" y="0" width="60" height="59" filterUnits="userSpaceOnUse"><feOffset dy="2" input="SourceAlpha"/><feGaussianBlur stdDeviation="2.5" result="b"/><feFlood flood-opacity="0.2"/><feComposite operator="in" in2="b"/><feComposite in="SourceGraphic"/></filter></defs><g transform="translate(7.855 5.5)"><g transform="matrix(1, 0, 0, 1, -7.85, -5.5)" filter="url(#a)"><ellipse cx="22.5" cy="22" rx="22.5" ry="22" transform="translate(7.5 5.5)" fill="#fff"/></g><path d="M4.443,16.1A4.448,4.448,0,0,1,0,11.656V4.443A4.448,4.448,0,0,1,4.443,0h7.214A4.448,4.448,0,0,1,16.1,4.443v7.213A4.448,4.448,0,0,1,11.657,16.1ZM1.429,4.443v7.213a3.017,3.017,0,0,0,3.014,3.014h7.214a3.017,3.017,0,0,0,3.014-3.014V4.443a3.018,3.018,0,0,0-3.014-3.014H4.443A3.018,3.018,0,0,0,1.429,4.443ZM3.9,8.05A4.148,4.148,0,1,1,8.05,12.2,4.153,4.153,0,0,1,3.9,8.05Zm1.428,0A2.72,2.72,0,1,0,8.05,5.33,2.724,2.724,0,0,0,5.33,8.05Zm6.3-3.571a1.046,1.046,0,1,1,.74.307A1.054,1.054,0,0,1,11.632,4.478Z" transform="translate(14.489 14.489)"/></g></svg>