<svg xmlns="http://www.w3.org/2000/svg" width="26.316" height="26.304" viewBox="0 0 26.316 26.304"><defs><style>.a{fill:#b10c5f;stroke:#fff;stroke-width:0.3px;}</style></defs><path class="a" d="M26,11.189,23.453,9.944a9.3,9.3,0,0,0-1.268-4.381L22.1,5.419a5.28,5.28,0,0,1-.723-2.666V2.53h1.015V.5H13.508V2.53h1.015v.116a5.269,5.269,0,0,1-.809,2.807A9.277,9.277,0,0,0,12.3,9.906l-.3.167A27.914,27.914,0,0,0,8.524,3.387C6.29.4,4.461.259,3.32.666A3.392,3.392,0,0,0,1.391,2.481C.565,4.229.706,7,1.777,10.345L0,11.177l.756,9.092L0,23.323v.123A3.05,3.05,0,0,0,3.05,26.492h19.9A3.05,3.05,0,0,0,26,23.446v-.123l-.751-3.055ZM15.434,6.535a7.3,7.3,0,0,0,1.12-3.888V2.53h2.792v.223a7.312,7.312,0,0,0,1,3.692l.084.144a7.265,7.265,0,0,1,.994,3.605l-1.177.652L17.763,9.525l-2.376,1.317-1.063-.589A7.25,7.25,0,0,1,15.434,6.535ZM3.227,3.348A1.374,1.374,0,0,1,4,2.579c.683-.244,1.765.514,2.9,2.025.221.3.442.618.663.964a7.007,7.007,0,0,0-2.5.168l.53,1.96a5.544,5.544,0,0,1,3.3.269c.388.8.759,1.647,1.1,2.529l-1.76-.976L5.842,10.841,3.686,9.646C2.819,6.9,2.643,4.585,3.227,3.348ZM22.951,24.462H3.05a1.017,1.017,0,0,1-1.01-.913l.537-2.184H9.041V19.334H2.716l-.575-6.918,1.277-.6,2.425,1.344L8.229,11.84l2.386,1.322L13,11.84l2.386,1.322,2.4-1.328,2.487,1.322,2.405-1.333,1.186.58-.667,8.027.767,3.118A1.017,1.017,0,0,1,22.951,24.462Zm0,0" transform="translate(0.158 -0.338)"/></svg>