<svg xmlns="http://www.w3.org/2000/svg" width="48" height="48" viewBox="0 0 48 48">
  <path id="Path_31857" data-name="Path 31857" d="M45.9,13.327l2.1-2.1L36.776,0l-2.1,2.1,4.56,4.56-4.21,4.21L28.36,4.21l-2.1,2.1L28.71,8.767,3.222,34.255l4.21,4.21L0,45.9,2.1,48l7.432-7.432,4.21,4.21L39.233,19.289l2.454,2.454,2.1-2.1-6.664-6.664,4.21-4.21ZM13.745,40.571,7.429,34.255,11.7,29.986l3.158,3.158,2.1-2.1L13.8,27.883l4.269-4.269,3.158,3.158,2.1-2.1-3.158-3.158,4.269-4.269L27.6,20.4l2.1-2.1-3.158-3.158,4.269-4.269,6.316,6.316Z" fill="#121212"/>
</svg>
