<svg xmlns="http://www.w3.org/2000/svg" width="48" height="48" viewBox="0 0 48 48">
  <path id="Union_374" data-name="Union 374" d="M1430.813,535a1.406,1.406,0,0,1-1.406-1.406v-9.484a6.133,6.133,0,0,1,1.8-4.327l5.627-5.58a7.27,7.27,0,0,1,6.633-1.941V502.7a4.266,4.266,0,0,1,8.531,0v15.4a8.02,8.02,0,0,1-2.371,5.672l-6.654,6.567v3.255a1.406,1.406,0,0,1-1.406,1.406Zm8-18.8-5.627,5.58a3.3,3.3,0,0,0-.971,2.33v8.078h7.943v-2.437a1.406,1.406,0,0,1,.418-1l7.073-6.98a5.189,5.189,0,0,0,1.534-3.67V502.7a1.453,1.453,0,0,0-2.906,0v10.825a7.279,7.279,0,0,1,.807.7,1.406,1.406,0,0,1,0,1.989l-6.328,6.328a1.406,1.406,0,0,1-1.989-1.989l5.172-5.172a4.468,4.468,0,0,0-5.127.82ZM1414.432,535a1.406,1.406,0,0,1-1.406-1.406v-3.255l-6.654-6.567A8.018,8.018,0,0,1,1404,518.1V502.7a4.266,4.266,0,0,1,8.531,0v9.558a7.268,7.268,0,0,1,6.633,1.941l5.627,5.58a6.134,6.134,0,0,1,1.8,4.327v9.484a1.406,1.406,0,0,1-1.406,1.406Zm-7.619-32.3v15.4a5.189,5.189,0,0,0,1.534,3.67l7.073,6.98a1.4,1.4,0,0,1,.418,1v2.437h7.943V524.11a3.3,3.3,0,0,0-.971-2.33l-5.627-5.58a4.465,4.465,0,0,0-5.127-.82l5.173,5.172a1.406,1.406,0,1,1-1.989,1.989l-6.328-6.328a1.406,1.406,0,0,1,0-1.989,7.25,7.25,0,0,1,.807-.7V502.7a1.453,1.453,0,0,0-2.906,0Zm14.156,8.2a1.406,1.406,0,0,1-1.406-1.406v-4.219a8.451,8.451,0,0,1,5.453-7.892,5.625,5.625,0,1,1,5.969,0,8.451,8.451,0,0,1,5.453,7.892V509.5a1.406,1.406,0,0,1-1.406,1.406Zm1.406-5.625v2.813h11.25v-2.812a5.625,5.625,0,1,0-11.25,0Zm2.813-12.656a2.813,2.813,0,1,0,2.813-2.813A2.816,2.816,0,0,0,1425.188,492.625Z" transform="translate(-1404 -487)" fill="#121212"/>
</svg>
