<svg xmlns="http://www.w3.org/2000/svg" width="26" height="23.117" viewBox="0 0 26 23.117"><defs><style>.a{fill:#b10c5f;}</style></defs><path class="a" d="M23.484,33H15.935a.839.839,0,0,0,0,1.677h3.415a5.884,5.884,0,0,0,4.972,4.972v4.314a5.884,5.884,0,0,0-4.972,4.972H6.649a5.884,5.884,0,0,0-4.972-4.972V39.654a5.884,5.884,0,0,0,4.972-4.972h3.415a.839.839,0,0,0,0-1.677H2.516A2.519,2.519,0,0,0,0,35.52V48.1a2.519,2.519,0,0,0,2.516,2.516H23.484A2.519,2.519,0,0,0,26,48.1V35.52A2.519,2.519,0,0,0,23.484,33Zm-2.432,1.677h2.432a.84.84,0,0,1,.839.839v2.432A4.206,4.206,0,0,1,21.052,34.681Zm-18.536,0H4.948a4.206,4.206,0,0,1-3.27,3.27V35.52A.84.84,0,0,1,2.516,34.681ZM1.677,48.1V45.669a4.206,4.206,0,0,1,3.27,3.27H2.516A.84.84,0,0,1,1.677,48.1Zm21.806.839H21.052a4.206,4.206,0,0,1,3.27-3.27V48.1A.84.84,0,0,1,23.484,48.94ZM8.387,41.81A4.613,4.613,0,1,0,13,37.2,4.618,4.618,0,0,0,8.387,41.81Zm7.548,0A2.935,2.935,0,1,1,13,38.875,2.939,2.939,0,0,1,15.935,41.81ZM6.29,40.972a.839.839,0,1,1,0,1.677H5.871a.839.839,0,1,1,0-1.677ZM19.71,42.649a.839.839,0,1,1,0-1.677h.419a.839.839,0,1,1,0,1.677ZM10.677,30.662a.839.839,0,0,1,0-1.186l1.73-1.73a.839.839,0,0,1,1.186,0l1.73,1.73a.839.839,0,1,1-1.186,1.186l-.3-.3v4a.839.839,0,1,1-1.677,0v-4l-.3.3A.839.839,0,0,1,10.677,30.662Z" transform="translate(0 -27.5)"/></svg>