<svg xmlns="http://www.w3.org/2000/svg" width="48" height="48" viewBox="0 0 48 48">
  <path id="Path_31854" data-name="Path 31854" d="M45.592,2.409a8.224,8.224,0,0,0-11.631,0L3.931,32.439a1.458,1.458,0,0,0-.378.655L.051,46.163a1.46,1.46,0,0,0,1.788,1.788l13.069-3.5a1.459,1.459,0,0,0,.655-.378l30.03-30.03a8.225,8.225,0,0,0,0-11.631Zm-12.6,5.1,2.719,2.719L9.746,36.19,7.027,33.472ZM3.525,44.476l2.193-8.184,5.991,5.991Zm11-3.5L11.81,38.255,37.775,12.289l2.719,2.719Zm29-29-.969.969-7.5-7.5.969-.969a5.305,5.305,0,0,1,7.5,7.5Z" transform="translate(-0.001)" fill="#121212"/>
</svg>
