<svg xmlns="http://www.w3.org/2000/svg" width="26" height="26" viewBox="0 0 26 26"><defs><style>.a{fill:#b10c5f;}</style></defs><g transform="translate(-0.001)"><g transform="translate(0.001 0)"><path class="a" d="M24.7,1.3a4.455,4.455,0,0,0-6.3,0L2.13,17.571a.79.79,0,0,0-.2.355L.028,25A.791.791,0,0,0,1,25.973l7.079-1.9a.79.79,0,0,0,.355-.2L24.7,7.605a4.455,4.455,0,0,0,0-6.3ZM17.871,4.066l1.473,1.473L5.279,19.6,3.807,18.131ZM1.91,24.091,3.1,19.658,6.343,22.9Zm5.961-1.9L6.4,20.721,20.462,6.657,21.935,8.13ZM23.578,6.487l-.525.525L18.99,2.948l.525-.525a2.874,2.874,0,0,1,4.064,4.064Z" transform="translate(-0.001 0)"/></g></g></svg>