<svg xmlns="http://www.w3.org/2000/svg" width="23.682" height="25" viewBox="0 0 23.682 25"><defs><style>.a{fill:#b10c5f;}</style></defs><path class="a" d="M35.595,19.7V16.528H33.941L32.555,2.1A2.31,2.31,0,0,0,30.247,0H20.435a2.31,2.31,0,0,0-2.309,2.1L16.741,16.528H15.087V19.7H13.5V25H37.182V19.7ZM19.584,2.238a.851.851,0,0,1,.851-.773h9.812a.851.851,0,0,1,.851.773l1.372,14.291h-6.4V12.043a3.887,3.887,0,0,0,2.441.86h.732V5.09h-.732a3.9,3.9,0,0,0-3.174,1.633A3.9,3.9,0,0,0,22.167,5.09h-.732V12.9h.732a3.887,3.887,0,0,0,2.441-.86v4.486h-6.4ZM26.073,9a2.446,2.446,0,0,1,1.709-2.329v4.658A2.446,2.446,0,0,1,26.073,9ZM24.608,9A2.446,2.446,0,0,1,22.9,11.326V6.667A2.446,2.446,0,0,1,24.608,9Zm-8.057,9H34.13V19.7H16.552Zm19.165,5.542H14.965V21.167H35.717Z" transform="translate(-13.5)"/></svg>