<svg xmlns="http://www.w3.org/2000/svg" width="48" height="51.454" viewBox="0 0 48 51.454">
  <path id="Union_373" data-name="Union 373" d="M1439.988,536.459a5.1,5.1,0,0,1,.346-5.3l2.974-4.248a1.494,1.494,0,0,1,2.448,0l2.972,4.248a5.123,5.123,0,1,1-8.74,5.3Zm2.794-3.59a2.136,2.136,0,1,0,3.5,0l-1.751-2.5Zm-4.225-7.326a1.494,1.494,0,0,1,0-2.988h.5v-5.914h-5.007a4.488,4.488,0,0,1-4.453,3.984h-11.95a4.487,4.487,0,0,1-4.453-3.984h-6.2v1a1.494,1.494,0,0,1-2.988,0V501.7a1.494,1.494,0,0,1,2.988,0v3.984h6.2a4.487,4.487,0,0,1,4.453-3.984h1.493v-4.979h-4.481a1.494,1.494,0,0,1-1.493-1.495v-5.974a1.493,1.493,0,0,1,1.493-1.493h17.927a1.492,1.492,0,0,1,1.493,1.493v5.974a1.494,1.494,0,0,1-1.493,1.495H1428.1V501.7h1.5a4.488,4.488,0,0,1,4.453,3.984h6.5a9.471,9.471,0,0,1,9.462,9.46v7.407h.5a1.494,1.494,0,0,1,0,2.988Zm-4.481-11.889h6.472a1.494,1.494,0,0,1,1.5,1.493v7.407h4.979v-7.407a6.48,6.48,0,0,0-6.474-6.472h-6.472Zm-17.925-7.469v9.958a1.5,1.5,0,0,0,1.493,1.495h11.95a1.5,1.5,0,0,0,1.493-1.495v-9.958a1.494,1.494,0,0,0-1.493-1.493h-11.95A1.494,1.494,0,0,0,1416.15,506.185Zm-9.162,7.469h6.174v-4.979h-6.174Zm15.136-11.951h2.988v-4.979h-2.988Zm-5.974-7.967h14.937v-2.988H1416.15Z" transform="translate(-1404 -487.762)" fill="#121212"/>
</svg>
