<svg width="458" height="238" viewBox="0 0 458 238" fill="none" xmlns="http://www.w3.org/2000/svg">
<path d="M167.921 0.658443C148.588 5.19178 145.255 29.8584 159.521 61.9918C169.388 84.1251 187.521 109.592 213.388 138.125L228.321 154.392L240.188 141.992C281.121 98.7918 306.455 55.4584 306.455 28.7918C306.455 16.7918 304.588 10.9251 299.121 6.12511C286.855 -4.67489 267.921 -1.07489 247.521 15.9918C242.721 19.9918 236.455 26.3918 233.655 30.1251L228.721 36.9251L225.921 33.1918C209.921 11.0584 184.588 -3.20822 167.921 0.658443Z" fill="#B1005F"/>
<path d="M23.7881 97.7251C23.7881 100.658 29.5214 124.658 31.7881 131.058C33.2548 135.192 36.0548 140.792 38.0548 143.592C44.4548 153.058 62.4548 167.725 64.7214 165.592C64.9881 165.192 62.5881 159.325 59.2548 152.392C55.2548 144.525 52.3214 136.258 51.1214 129.592C48.0548 113.192 42.7214 104.925 31.5214 99.1918C26.1881 96.5251 23.7881 95.9918 23.7881 97.7251Z" fill="#B1005F"/>
<path d="M422.988 100.925C413.521 107.459 409.521 113.859 406.454 128.659C403.921 140.392 399.121 152.392 393.654 160.925C385.654 173.059 407.121 159.592 417.521 145.859C423.654 137.992 425.921 132.259 429.921 115.725C434.854 94.5252 434.321 93.3252 422.988 100.925Z" fill="#B1005F"/>
<path d="M53.6541 99.8585C52.8541 101.992 55.1208 123.325 57.1208 132.259C59.5208 142.925 69.2541 161.592 71.5208 160.125C72.0541 159.859 72.4541 150.659 72.3208 139.725C72.1874 117.059 70.7208 111.725 61.6541 102.925C56.0541 97.4585 54.7208 97.0585 53.6541 99.8585Z" fill="#B1005F"/>
<path d="M396.588 102.258C393.788 104.525 390.054 109.458 388.321 113.192C385.388 119.325 385.121 121.858 385.121 139.592C385.121 155.458 385.521 159.325 386.988 159.325C389.654 159.325 398.188 141.192 400.588 130.525C402.988 118.925 404.588 97.9918 402.988 97.9918C402.321 97.9918 399.388 99.8585 396.588 102.258Z" fill="#B1005F"/>
<path d="M98.9879 105.458C97.7879 110.125 99.2546 117.992 102.188 121.992C103.521 123.858 109.921 127.992 116.455 131.325C133.121 139.725 138.188 148.258 134.455 162.125C130.721 175.858 117.921 181.725 95.1213 180.258C71.7879 178.792 57.7879 171.858 38.1879 152.125C27.5213 141.458 24.7213 139.325 18.5879 137.458C14.5879 136.258 9.12125 135.325 6.58792 135.325C-4.47875 135.458 -3.94541 136.258 26.5879 166.792L55.3879 195.592L134.588 216.792C178.188 228.392 214.855 237.992 216.055 237.992C219.388 237.992 220.321 232.792 219.388 218.658C217.388 189.325 202.188 162.392 178.721 146.925C167.655 139.592 102.588 101.992 100.988 101.992C100.321 101.992 99.3879 103.458 98.9879 105.458Z" fill="#B1005F"/>
<path d="M318.588 123.192C276.988 147.192 267.388 153.858 258.988 164.525C251.521 173.858 243.121 190.525 240.188 201.992C237.921 210.925 236.988 235.725 238.988 237.592C240.188 238.792 251.254 235.992 339.121 212.392L403.121 195.325L429.521 168.925C444.054 154.525 456.588 141.592 457.388 140.125C459.388 136.392 456.321 135.058 447.521 135.858C435.654 137.058 431.254 139.592 418.054 153.058C403.921 167.458 393.388 173.992 377.788 177.992C366.454 180.925 350.721 181.458 341.254 179.192C329.388 176.525 322.454 167.458 322.454 154.525C322.454 142.658 325.388 138.925 341.254 131.058C356.188 123.592 358.988 120.125 358.188 109.458C357.921 105.858 357.254 102.658 356.454 102.525C355.788 102.258 338.721 111.592 318.588 123.192Z" fill="#B1005F"/>
<path d="M84.0542 114.925C80.7209 121.725 77.9209 135.592 77.9209 145.992C77.9209 159.992 81.5209 173.992 85.2542 173.992C86.9876 173.992 87.9209 172.259 89.1209 166.259C90.0542 162.125 91.9209 155.592 93.3876 151.992C97.5209 141.592 97.1209 130.525 92.3209 121.192C88.0542 112.792 85.9209 111.192 84.0542 114.925Z" fill="#B1005F"/>
<path d="M368.721 115.059C364.721 119.459 361.121 129.192 361.121 136.125C361.121 139.859 362.588 147.192 364.321 152.392C366.188 157.725 368.054 164.659 368.588 167.992C369.254 172.659 370.054 173.992 371.921 173.992C377.254 173.992 381.788 146.125 378.588 133.059C375.388 119.859 372.988 112.659 371.921 112.659C371.388 112.659 369.921 113.725 368.721 115.059Z" fill="#B1005F"/>
</svg>
