<?xml version="1.0" encoding="UTF-8"?>
<svg version="1.1" xmlns="http://www.w3.org/2000/svg" width="500" height="500">
<path d="M0 0 C2.875 1.9375 2.875 1.9375 5 4 C5 4.66 5 5.32 5 6 C5.66 6 6.32 6 7 6 C7 6.66 7 7.32 7 8 C7.54398438 8.22558594 8.08796875 8.45117188 8.6484375 8.68359375 C11.73640119 10.41223787 14.04454974 12.64550144 16.625 15.0625 C20.04209753 18.41533647 20.04209753 18.41533647 24 21 C24 21.66 24 22.32 24 23 C24.56203125 23.25007813 25.1240625 23.50015625 25.703125 23.7578125 C28.36336335 25.19651283 30.46437565 26.89561943 32.75 28.875 C33.54921875 29.55304688 34.3484375 30.23109375 35.171875 30.9296875 C37 33 37 33 37 37 C34.03 37 31.06 37 28 37 C28.05220703 39.1346875 28.05220703 39.1346875 28.10546875 41.3125 C28.13362451 43.20832145 28.16092274 45.10415577 28.1875 47 C28.21263672 47.93457031 28.23777344 48.86914062 28.26367188 49.83203125 C28.32787006 55.95225806 27.6451204 60.4509288 25 66 C19.33141126 70.62437503 12.49673622 70.16927661 5.53515625 70.203125 C4.62422714 70.20882507 3.71329803 70.21452515 2.77476501 70.22039795 C0.85254062 70.22982188 -1.06969974 70.23637154 -2.99194336 70.24023438 C-5.92395229 70.24995508 -8.85526428 70.28100917 -11.78710938 70.3125 C-13.65885002 70.31902939 -15.53059566 70.32428011 -17.40234375 70.328125 C-18.71041237 70.3466452 -18.71041237 70.3466452 -20.04490662 70.36553955 C-25.10187365 70.34712778 -28.64951386 69.87200226 -33 67 C-35.90001127 62.6499831 -36.1277209 58.8402736 -36.09765625 53.69921875 C-36.09443359 52.72275391 -36.09121094 51.74628906 -36.08789062 50.74023438 C-36.07951172 49.73283203 -36.07113281 48.72542969 -36.0625 47.6875 C-36.05798828 46.66076172 -36.05347656 45.63402344 -36.04882812 44.57617188 C-36.03708184 42.05072118 -36.02065565 39.52539095 -36 37 C-38.97 37 -41.94 37 -45 37 C-45 33 -45 33 -43.625 31.25 C-42 30 -42 30 -40 30 C-40 29.34 -40 28.68 -40 28 C-38.70703125 26.6953125 -38.70703125 26.6953125 -36.8125 25.125 C-34.03925138 22.77916963 -31.32713124 20.39228264 -28.6796875 17.90625 C-28.10371826 17.36597168 -27.52774902 16.82569336 -26.93432617 16.26904297 C-25.78026967 15.18289112 -24.62932238 14.0934251 -23.48168945 13.00048828 C-21.00387234 10.67853446 -19.26169607 9.08723202 -16 8 C-16 7.34 -16 6.68 -16 6 C-14.3203125 4.52734375 -14.3203125 4.52734375 -12.125 2.9375 C-11.40570313 2.41027344 -10.68640625 1.88304687 -9.9453125 1.33984375 C-6.2079199 -1.23430416 -4.43166103 -1.12963908 0 0 Z M-12 37 C-14.30943712 39.30943712 -13.23292626 44.83648181 -13.25 47.9375 C-13.270625 48.87013672 -13.29125 49.80277344 -13.3125 50.76367188 C-13.31765625 51.65505859 -13.3228125 52.54644531 -13.328125 53.46484375 C-13.3374707 54.285896 -13.34681641 55.10694824 -13.35644531 55.95288086 C-13.23881836 56.62843018 -13.12119141 57.30397949 -13 58 C-9.61877827 60.25414782 -8.3935272 60.24544447 -4.4375 60.1875 C-2.98150391 60.17783203 -2.98150391 60.17783203 -1.49609375 60.16796875 C0.99889984 60.16144671 0.99889984 60.16144671 3 59 C3 51.41 3 43.82 3 36 C-5.36051221 34.5765251 -5.36051221 34.5765251 -12 37 Z " fill="#700F2A" transform="translate(120,173)"/>
<path d="M0 0 C2.63006608 1.10739624 3.71084005 1.68823626 5.375 4 C5.60059927 6.52163588 5.65346082 8.78870613 5.5625 11.30078125 C5.55114014 12.01477585 5.53978027 12.72877045 5.52807617 13.46440125 C5.47913628 16.51459263 5.39502867 19.5635708 5.31347656 22.61303711 C5.25894857 24.84222751 5.222831 27.0712168 5.1875 29.30078125 C5.16260498 29.98223709 5.13770996 30.66369293 5.11206055 31.36579895 C5.02982449 36.7644207 6.27929985 40.82668133 10.0625 44.75 C10.7121875 45.36875 10.7121875 45.36875 11.375 46 C11.375 46.66 11.375 47.32 11.375 48 C12.035 48 12.695 48 13.375 48 C13.375 48.66 13.375 49.32 13.375 50 C13.931875 50.226875 14.48875 50.45375 15.0625 50.6875 C17.375 52 17.375 52 19.875 54.5625 C22.23527002 56.86376327 23.19096775 57.64621864 26.375 58 C23.48962848 52.34680912 18.89729016 48.50107168 14.29296875 44.25976562 C11.36575224 41.4522152 9.5900098 39.66334504 8.3203125 35.74609375 C8.375 33 8.375 33 10.375 30 C13.35403963 28.84682337 14.24059131 28.9551971 17.375 30 C19.12890625 31.8125 19.12890625 31.8125 20.9375 34 C23.29710327 36.94959179 23.29710327 36.94959179 26.375 39 C26.375 39.66 26.375 40.32 26.375 41 C27.07753906 41.24363281 27.78007813 41.48726562 28.50390625 41.73828125 C36.68071105 45.3316254 46.61277756 52.6264021 50.26049805 61.04321289 C52.65620103 68.39226732 52.75756498 75.3195163 52.625 83 C52.61984375 84.22589844 52.6146875 85.45179688 52.609375 86.71484375 C52.53003726 95.68992548 52.53003726 95.68992548 51.375 98 C47.56251574 98.02887236 43.7500593 98.04675492 39.9375 98.0625 C38.84888672 98.07087891 37.76027344 98.07925781 36.63867188 98.08789062 C35.60419922 98.09111328 34.56972656 98.09433594 33.50390625 98.09765625 C32.54556885 98.10289307 31.58723145 98.10812988 30.59985352 98.11352539 C28.375 98 28.375 98 27.375 97 C27.3216273 95.31282967 27.28250044 93.62520142 27.25 91.9375 C26.65730071 85.25460071 24.13060018 82.47538805 19.375 78 C17.77385861 76.42950992 16.18196139 74.85016195 14.59301758 73.26733398 C13.49908394 72.18211181 12.39743957 71.10460138 11.2878418 70.03540039 C9.94664247 68.72707464 8.65604049 67.3672846 7.375 66 C7.375 65.34 7.375 64.68 7.375 64 C6.715 64 6.055 64 5.375 64 C5.375 63.34 5.375 62.68 5.375 62 C4.715 62 4.055 62 3.375 62 C3.375 61.34 3.375 60.68 3.375 60 C2.715 60 2.055 60 1.375 60 C-5.97815634 51.19393085 -9.15557726 43.73785245 -8.69873047 32.32519531 C-8.60833688 29.47450489 -8.59069135 26.62544505 -8.56640625 23.7734375 C-8.52518201 21.51559247 -8.48219567 19.25777897 -8.4375 17 C-8.42928223 15.35185303 -8.42928223 15.35185303 -8.42089844 13.67041016 C-8.17395259 4.86041369 -8.17395259 4.86041369 -5.23828125 1.75 C-2.625 0 -2.625 0 0 0 Z " fill="#6F0E29" transform="translate(61.625,207)"/>
<path d="M0 0 C3.27860092 3.27860092 1.83198956 15.40140428 2 20 C2.0407666 20.95487305 2.0815332 21.90974609 2.12353516 22.89355469 C2.73379595 38.37600093 1.77021968 47.04483807 -8.875 58.625 C-10.43523361 60.26016683 -12.00643633 61.88409336 -13.58007812 63.50634766 C-16.07658348 66.13248585 -18.38393029 68.91842336 -20.6953125 71.70703125 C-22 73 -22 73 -24 73 C-24 73.66 -24 74.32 -24 75 C-24.66 75 -25.32 75 -26 75 C-26.2475 75.556875 -26.495 76.11375 -26.75 76.6875 C-28 79 -28 79 -30.0625 81.0625 C-32.60717725 84.92055906 -32.61160189 88.12794902 -32.82421875 92.671875 C-33 95 -33 95 -34 96 C-35.62257544 96.0991657 -37.24939831 96.13079777 -38.875 96.1328125 C-39.85984375 96.13410156 -40.8446875 96.13539063 -41.859375 96.13671875 C-42.89578125 96.13285156 -43.9321875 96.12898438 -45 96.125 C-46.55460938 96.13080078 -46.55460938 96.13080078 -48.140625 96.13671875 C-49.12546875 96.13542969 -50.1103125 96.13414062 -51.125 96.1328125 C-52.03507812 96.13168457 -52.94515625 96.13055664 -53.8828125 96.12939453 C-56 96 -56 96 -57 95 C-59.88617886 63.82926829 -59.88617886 63.82926829 -52 52 C-51.34 52 -50.68 52 -50 52 C-50 51.34 -50 50.68 -50 50 C-47.74064446 48.23770268 -45.47100586 46.57718753 -43.125 44.9375 C-37.4400116 40.88350591 -32.20416424 36.70011464 -27.1484375 31.875 C-24.87619668 29.89195346 -22.69181148 28.36142689 -20 27 C-17.6875 27.8125 -17.6875 27.8125 -16 29 C-15.75 35.625 -15.75 35.625 -18 39 C-18.66 39 -19.32 39 -20 39 C-20 39.66 -20 40.32 -20 41 C-20.66 41 -21.32 41 -22 41 C-22 41.66 -22 42.32 -22 43 C-22.66 43 -23.32 43 -24 43 C-24.38285156 43.87398437 -24.38285156 43.87398437 -24.7734375 44.765625 C-26.11741087 47.21388223 -27.61810296 48.81743248 -29.625 50.75 C-30.25664062 51.36359375 -30.88828125 51.9771875 -31.5390625 52.609375 C-32.26222656 53.29773438 -32.26222656 53.29773438 -33 54 C-31.515 54.495 -31.515 54.495 -30 55 C-28.12933066 53.84660454 -28.12933066 53.84660454 -26.3125 52.0625 C-25.61511719 51.41667969 -24.91773438 50.77085937 -24.19921875 50.10546875 C-23.11060547 49.06326172 -23.11060547 49.06326172 -22 48 C-20.89591797 46.97326172 -20.89591797 46.97326172 -19.76953125 45.92578125 C-15.2007026 41.55668281 -12.21479501 38.4471914 -11.8046875 31.86547852 C-11.82789063 30.71490967 -11.85109375 29.56434082 -11.875 28.37890625 C-11.89046875 27.11369141 -11.9059375 25.84847656 -11.921875 24.54492188 C-11.97388173 21.8938787 -12.02596484 19.24283703 -12.078125 16.59179688 C-12.09359375 15.32529297 -12.1090625 14.05878906 -12.125 12.75390625 C-12.14820313 11.60220947 -12.17140625 10.4505127 -12.1953125 9.26391602 C-11.98955793 5.82549995 -11.31010562 3.17741263 -10 0 C-6.53853574 -2.96696936 -3.92693458 -1.65803905 0 0 Z " fill="#6F0E29" transform="translate(177,209)"/>
<path d="M0 0 C3.5 0.125 3.5 0.125 4.5 1.125 C4.65980437 3.57108998 4.75929447 5.99231058 4.81640625 8.44140625 C4.83718735 9.17246078 4.85796844 9.90351532 4.87937927 10.65672302 C4.94495024 13.00021656 5.00379432 15.34382539 5.0625 17.6875 C5.10567808 19.27279855 5.14929213 20.85808529 5.19335938 22.44335938 C5.3006392 26.33712037 5.4018849 30.23099772 5.5 34.125 C9.46 34.125 13.42 34.125 17.5 34.125 C17.54125 32.784375 17.5825 31.44375 17.625 30.0625 C18.15918642 25.54684413 19.39974065 22.77701086 22.5625 19.5078125 C26.72172467 16.5393336 31.68432759 15.68989609 36.69921875 16.46484375 C38.625 17 38.625 17 41.5 18.125 C41.5 18.785 41.5 19.445 41.5 20.125 C42.11875 20.33125 42.7375 20.5375 43.375 20.75 C46.43685018 22.73119718 46.59620868 24.62632336 47.5 28.125 C47.65638417 30.72521812 47.71561817 33.3327352 47.6875 35.9375 C47.6865332 36.9574707 47.6865332 36.9574707 47.68554688 37.99804688 C47.64080577 42.98419423 47.64080577 42.98419423 46.5 44.125 C43.39748799 44.21374135 40.3173188 44.24018455 37.21484375 44.22265625 C36.28402481 44.2212413 35.35320587 44.21982635 34.3941803 44.21836853 C31.40858809 44.21275172 28.42306971 44.2001964 25.4375 44.1875 C23.41862087 44.18248716 21.39974057 44.17792388 19.38085938 44.17382812 C14.42054428 44.16277683 9.46028468 44.14550095 4.5 44.125 C4.20609375 45.05957031 3.9121875 45.99414062 3.609375 46.95703125 C1.99873965 51.55641599 -0.01029876 54.22816105 -4.19921875 56.75 C-7.91185165 58.29656424 -10.55695755 58.49416165 -14.5625 58.4375 C-15.74972656 58.43363281 -16.93695313 58.42976563 -18.16015625 58.42578125 C-21.35604527 58.13796434 -23.61988582 57.49155701 -26.5 56.125 C-26.5 55.465 -26.5 54.805 -26.5 54.125 C-27.098125 53.96 -27.69625 53.795 -28.3125 53.625 C-31.81296828 51.22467889 -32.71386679 48.12503075 -33.5 44.125 C-33.78669263 39.10787898 -33.82914726 34.14449573 -33.5 29.125 C-32.5 28.125 -32.5 28.125 -29 28 C-25.5 28.125 -25.5 28.125 -24.5 29.125 C-24.25344883 32.35755976 -24.11578909 35.58927492 -23.9765625 38.828125 C-23.46250425 42.38439686 -22.75621064 44.33911463 -20.5 47.125 C-18.46046948 48.01046639 -18.46046948 48.01046639 -16.1875 48.0625 C-15.44886719 48.13339844 -14.71023437 48.20429688 -13.94921875 48.27734375 C-10.9052106 48.08800353 -8.3700314 47.12351791 -5.5 46.125 C-5.48969254 45.56345718 -5.47938507 45.00191437 -5.46876526 44.4233551 C-5.36092315 38.60006534 -5.24630792 32.77693736 -5.12768555 26.95385742 C-5.08426493 24.77811047 -5.04259529 22.60232786 -5.00268555 20.42651367 C-4.94515498 17.30636832 -4.88141177 14.18640367 -4.81640625 11.06640625 C-4.79969376 10.08724747 -4.78298126 9.10808868 -4.76576233 8.09925842 C-4.74581711 7.19840012 -4.72587189 6.29754181 -4.70532227 5.36938477 C-4.68977798 4.57218521 -4.6742337 3.77498566 -4.65821838 2.95362854 C-4.36713886 -0.41055902 -3.4976066 0.12491452 0 0 Z M28.75 26.25 C27.04155512 28.81266732 26.7642269 31.08639069 26.5 34.125 C27.55978933 35.41112676 27.55978933 35.41112676 30.00390625 35.22265625 C31.01324219 35.21105469 32.02257812 35.19945312 33.0625 35.1875 C34.07441406 35.17847656 35.08632813 35.16945313 36.12890625 35.16015625 C36.91136719 35.14855469 37.69382812 35.13695312 38.5 35.125 C38.72179212 31.87204886 38.78601103 29.69702207 37.3125 26.75 C35.58469014 24.91256665 35.58469014 24.91256665 33 24.6875 C30.51427215 24.95603064 30.51427215 24.95603064 28.75 26.25 Z " fill="#6A0E28" transform="translate(255.5,268.875)"/>
<path d="M0 0 C2.9375 0.1875 2.9375 0.1875 3.9375 1.1875 C4.09746166 3.77903107 4.19688697 6.3470202 4.25390625 8.94140625 C4.27468735 9.71685287 4.29546844 10.4922995 4.31687927 11.29124451 C4.38245802 13.77740308 4.44129799 16.26367045 4.5 18.75 C4.54317733 20.43165204 4.58679136 22.11329294 4.63085938 23.79492188 C4.73814779 27.92566871 4.83939132 32.05652536 4.9375 36.1875 C8.14581391 36.2167483 11.35409307 36.23438189 14.5625 36.25 C15.46613281 36.25837891 16.36976563 36.26675781 17.30078125 36.27539062 C21.96654289 36.29241895 26.34763285 36.15579423 30.9375 35.1875 C29.85552958 31.53766247 29.85552958 31.53766247 27.1484375 29.05859375 C24.79281137 28.1304937 22.83042272 27.82289694 20.3125 27.625 C16.13194444 27.28472222 16.13194444 27.28472222 13.9375 26.1875 C14.45199406 22.17643177 15.36744888 20.27306218 18.28125 17.48828125 C18.95027344 16.83666016 19.61929687 16.18503906 20.30859375 15.51367188 C21.01113281 14.84916016 21.71367187 14.18464844 22.4375 13.5 C23.82488419 12.16480183 25.21039663 10.82765517 26.59375 9.48828125 C27.21056641 8.90216064 27.82738281 8.31604004 28.46289062 7.7121582 C30.03849237 6.23581132 30.03849237 6.23581132 30.9375 4.1875 C31.5975 4.1875 32.2575 4.1875 32.9375 4.1875 C33.2675 3.1975 33.5975 2.2075 33.9375 1.1875 C38.6875 0.0625 38.6875 0.0625 40.9375 1.1875 C41.375 3.6875 41.375 3.6875 40.9375 7.1875 C38.8701836 10.10907938 36.41055554 12.60853201 33.9375 15.1875 C32.59157903 16.84401812 31.2515151 18.50556068 29.9375 20.1875 C30.55238281 20.51621094 31.16726563 20.84492188 31.80078125 21.18359375 C36.41521698 23.89926645 39.31479492 25.83340775 41 31.0625 C41.309375 32.42375 41.61875 33.785 41.9375 35.1875 C47.2175 35.1875 52.4975 35.1875 57.9375 35.1875 C58.081875 32.91875 58.22625 30.65 58.375 28.3125 C58.8125 21.4375 58.8125 21.4375 59.9375 19.1875 C66.08984375 19.08984375 66.08984375 19.08984375 67.9375 19.1875 C69.75757474 21.00757474 69.15346465 23.7369551 69.1875 26.1875 C69.13096178 31.90414254 68.80494519 37.13263615 65.9375 42.1875 C59.52479126 47.31766699 51.77128778 46.72746568 43.9375 46.1875 C41.3671875 45.41015625 41.3671875 45.41015625 39.1875 44.5 C35.68812748 43.1231977 34.02263456 43.20816797 30.5 44.5 C25.52115952 46.3161808 20.99048577 46.50584461 15.75 46.5 C14.98953369 46.50491455 14.22906738 46.5098291 13.44555664 46.51489258 C8.6509263 46.45789457 4.48884966 45.851928 -0.0625 44.1875 C-4.83453848 39.28988156 -5.22035073 35.09146397 -5.23046875 28.52734375 C-5.23546135 27.40882774 -5.23546135 27.40882774 -5.24055481 26.26771545 C-5.24561236 24.69337582 -5.2479635 23.11902549 -5.24780273 21.54467773 C-5.24999499 19.13051884 -5.26817832 16.71681278 -5.28710938 14.30273438 C-5.29004234 12.77343907 -5.29202778 11.24414158 -5.29296875 9.71484375 C-5.30015427 8.99086899 -5.30733978 8.26689423 -5.31474304 7.52098083 C-5.28173466 0.32337151 -5.28173466 0.32337151 0 0 Z " fill="#6E0F29" transform="translate(314.0625,267.8125)"/>
<path d="M0 0 C3.3 0 6.6 0 10 0 C10.33 7.92 10.66 15.84 11 24 C14.09375 20.225625 14.09375 20.225625 17.25 16.375 C17.89227539 15.59431152 18.53455078 14.81362305 19.19628906 14.00927734 C21.69035248 10.95261406 24.11026463 7.92933542 26.234375 4.6015625 C28 2 28 2 31 0 C33.69921875 -0.1953125 33.69921875 -0.1953125 36.6875 -0.125 C38.17830078 -0.09792969 38.17830078 -0.09792969 39.69921875 -0.0703125 C40.45847656 -0.04710937 41.21773438 -0.02390625 42 0 C42 4.67590167 41.11997802 5.69649386 38 9 C37.34 9 36.68 9 36 9 C35.7525 9.55558594 35.505 10.11117187 35.25 10.68359375 C33.77137811 13.42366495 31.97436755 15.65623955 30 18.0625 C27.86950813 20.66686965 25.86787063 23.19819406 24 26 C24.70125 27.01578125 25.4025 28.0315625 26.125 29.078125 C28.6037475 32.67143299 31.07092053 36.27257801 33.53710938 39.87451172 C34.86276442 41.80060531 36.20202501 43.71619496 37.546875 45.62890625 C38.27390625 46.67949219 39.0009375 47.73007813 39.75 48.8125 C40.40484375 49.74707031 41.0596875 50.68164062 41.734375 51.64453125 C42.15203125 52.42183594 42.5696875 53.19914062 43 54 C42.67 54.99 42.34 55.98 42 57 C38.07895458 57.85749965 34.89346256 58.07509805 31 57 C27.22663591 53.0941361 24.72001493 48.67689941 22 44 C20.99952923 42.58950022 19.98349427 41.18957929 18.9375 39.8125 C17 37 17 37 17 35 C13.83884224 36.36983503 13.0072908 36.9890638 11 40 C10.6373883 41.92744369 10.6373883 41.92744369 10.5859375 44.01171875 C10.52792969 45.14770508 10.52792969 45.14770508 10.46875 46.30664062 C10.42234375 47.48516602 10.42234375 47.48516602 10.375 48.6875 C10.31699219 49.88342773 10.31699219 49.88342773 10.2578125 51.10351562 C10.16367506 53.06863475 10.08075368 55.0342854 10 57 C8.35425434 57.02688151 6.70838587 57.04634123 5.0625 57.0625 C4.14597656 57.07410156 3.22945313 57.08570313 2.28515625 57.09765625 C0 57 0 57 -1 56 C-1.09881593 54.28681054 -1.12798969 52.56955197 -1.12939453 50.85351562 C-1.13412277 49.20675842 -1.13412277 49.20675842 -1.13894653 47.5267334 C-1.1369223 46.33197388 -1.13489807 45.13721436 -1.1328125 43.90625 C-1.13376923 42.68925415 -1.13472595 41.4722583 -1.13571167 40.21838379 C-1.13639372 37.63924101 -1.13453772 35.06009653 -1.13037109 32.48095703 C-1.12502322 28.51721364 -1.13031529 24.55358358 -1.13671875 20.58984375 C-1.13605797 18.09114558 -1.13477682 15.59244748 -1.1328125 13.09375 C-1.13483673 11.89899048 -1.13686096 10.70423096 -1.13894653 9.4732666 C-1.13579437 8.37542847 -1.13264221 7.27759033 -1.12939453 6.14648438 C-1.12859894 5.1746521 -1.12780334 4.20281982 -1.12698364 3.20153809 C-1 1 -1 1 0 0 Z " fill="#680E27" transform="translate(272,197)"/>
<path d="M0 0 C3.98599694 2.39159817 7.1374212 5.09333258 8.74951172 9.6340332 C9.26408566 12.70508275 9.25495619 15.67938983 9.2578125 18.79296875 C9.25876923 19.45081863 9.25972595 20.10866852 9.26071167 20.78645325 C9.26138993 22.17070614 9.25956041 23.55496227 9.25537109 24.93920898 C9.249992 27.06566414 9.25534112 29.19191054 9.26171875 31.31835938 C9.26105841 32.66406297 9.25977816 34.00976643 9.2578125 35.35546875 C9.25668457 36.58160889 9.25555664 37.80774902 9.25439453 39.07104492 C9.125 41.875 9.125 41.875 8.125 42.875 C6.12890625 43.04296875 6.12890625 43.04296875 3.6875 43.0625 C2.88441406 43.07667969 2.08132813 43.09085938 1.25390625 43.10546875 C-0.875 42.875 -0.875 42.875 -2.875 40.875 C-3.39449219 41.1946875 -3.91398437 41.514375 -4.44921875 41.84375 C-9.59212586 44.03010664 -15.42610303 43.60564755 -20.875 42.875 C-24.54071022 40.95990139 -27.02634413 38.57231175 -28.875 34.875 C-29.31040712 30.61303412 -29.34565428 26.95750484 -27.625 23 C-24.2317478 18.87962233 -20.996376 17.30128215 -15.875 15.875 C-12.2265625 15.6796875 -12.2265625 15.6796875 -8.5 15.75 C-7.25476563 15.76804688 -6.00953125 15.78609375 -4.7265625 15.8046875 C-3.78554687 15.82789063 -2.84453125 15.85109375 -1.875 15.875 C-3.61864825 11.43336608 -3.61864825 11.43336608 -7.3125 8.875 C-10.21033403 8.875 -11.53312474 9.17915929 -13.875 10.875 C-15.14304566 12.9085948 -15.14304566 12.9085948 -15.875 14.875 C-23.625 15 -23.625 15 -25.875 13.875 C-26.32296936 10.81387604 -26.36381708 8.66994494 -24.71484375 5.98828125 C-18.4713817 -1.6284231 -9.33845024 -3.46096072 0 0 Z M-15.875 25.875 C-17.12653259 28.21595531 -17.12653259 28.21595531 -16.875 30.875 C-15.43838689 33.39506844 -15.43838689 33.39506844 -12.875 34.875 C-9.15463636 34.875 -7.17409405 34.05705725 -4 32.125 C-1.63575308 30.05706372 -1.63575308 30.05706372 -1.5 27.1875 C-1.63663834 24.91842781 -1.63663834 24.91842781 -2.875 23.875 C-9.67076631 23.45884156 -9.67076631 23.45884156 -15.875 25.875 Z " fill="#6D0E29" transform="translate(254.875,211.125)"/>
<path d="M0 0 C1.0725 0.66 2.145 1.32 3.25 2 C3.25 2.66 3.25 3.32 3.25 4 C3.91 4 4.57 4 5.25 4 C7.21274114 8.13994911 7.56246107 11.63956015 7.69921875 16.19921875 C7.72095657 16.87547806 7.7426944 17.55173737 7.76509094 18.24848938 C7.8087993 19.66951907 7.84804521 21.09069233 7.88305664 22.51196289 C7.93759748 24.69139507 8.00775027 26.86992098 8.08007812 29.04882812 C8.39329966 39.71340067 8.39329966 39.71340067 7.25 42 C5.79257537 42.08096803 4.33387193 42.13917774 2.875 42.1875 C2.06289063 42.22230469 1.25078125 42.25710937 0.4140625 42.29296875 C-0.30007813 42.19628906 -1.01421875 42.09960938 -1.75 42 C-2.41 41.01 -3.07 40.02 -3.75 39 C-4.78833984 39.72896484 -4.78833984 39.72896484 -5.84765625 40.47265625 C-10.89407675 43.12830957 -16.18978329 42.6294585 -21.75 42 C-26.23481469 39.91224144 -28.86715865 37.60250108 -30.75 33 C-31.28204782 28.21156958 -31.24783872 26.01482508 -29.125 21.6875 C-25.08536793 17.11633739 -20.72476974 15.56365752 -14.75 15 C-11.08154444 14.9289649 -7.41852848 14.94125132 -3.75 15 C-4.89083176 11.96707046 -4.89083176 11.96707046 -6.75 9 C-9.56633942 7.8445787 -10.98799039 7.75346748 -13.875 8.6875 C-15.88836129 9.92165287 -15.88836129 9.92165287 -17.125 12.125 C-18.75 14 -18.75 14 -21.75 14.375 C-24.75 14 -24.75 14 -27.75 12 C-27.36124961 6.55749455 -25.58447004 3.83447004 -21.75 0 C-14.99184864 -3.36192301 -6.74446143 -3.39026403 0 0 Z M-17.75 25 C-19.00153259 27.34095531 -19.00153259 27.34095531 -18.75 30 C-17.31338689 32.52006844 -17.31338689 32.52006844 -14.75 34 C-11.00453093 33.84393879 -7.92780324 33.00083908 -4.75 31 C-3.39560332 28.29120665 -3.68498549 25.99066732 -3.75 23 C-11.06899 22.52113054 -11.06899 22.52113054 -17.75 25 Z " fill="#6C0F28" transform="translate(349.75,212)"/>
<path d="M0 0 C0.9075 0.00257813 1.815 0.00515625 2.75 0.0078125 C4.11125 0.00394531 4.11125 0.00394531 5.5 0 C7.75 0.1328125 7.75 0.1328125 8.75 1.1328125 C8.83775605 3.27840077 8.85695219 5.42685671 8.84765625 7.57421875 C8.84443359 8.87939453 8.84121094 10.18457031 8.83789062 11.52929688 C8.82953401 12.9179694 8.82106905 14.30664127 8.8125 15.6953125 C8.80748666 17.08788906 8.80292347 18.48046731 8.79882812 19.87304688 C8.78699434 23.2930112 8.7705088 26.71289094 8.75 30.1328125 C12.35923962 31.33589237 14.96386577 31.53846974 18.75 31.1328125 C21.63319069 27.47926864 22.14889388 24.53772095 22.26171875 19.95703125 C22.29716797 18.80009766 22.33261719 17.64316406 22.36914062 16.45117188 C22.39169922 15.25298828 22.41425781 14.05480469 22.4375 12.8203125 C22.47166016 11.60279297 22.50582031 10.38527344 22.54101562 9.13085938 C22.62334817 6.13160236 22.69254921 3.13263236 22.75 0.1328125 C24.39574566 0.10593099 26.04161413 0.08647127 27.6875 0.0703125 C28.60402344 0.05871094 29.52054687 0.04710937 30.46484375 0.03515625 C32.75 0.1328125 32.75 0.1328125 33.75 1.1328125 C33.85110353 4.0781682 33.88969279 6.9995881 33.8828125 9.9453125 C33.88376923 10.82936768 33.88472595 11.71342285 33.88571167 12.62426758 C33.88639351 14.49723379 33.88453893 16.37020236 33.88037109 18.24316406 C33.87502289 21.12049638 33.88031593 23.99767258 33.88671875 26.875 C33.88605797 28.69010451 33.88477681 30.50520893 33.8828125 32.3203125 C33.88483673 33.18696533 33.88686096 34.05361816 33.88894653 34.9465332 C33.86495009 41.01786241 33.86495009 41.01786241 32.75 42.1328125 C30.75390625 42.30078125 30.75390625 42.30078125 28.3125 42.3203125 C27.50941406 42.33449219 26.70632813 42.34867188 25.87890625 42.36328125 C23.75 42.1328125 23.75 42.1328125 21.75 40.1328125 C21.21117187 40.45507812 20.67234375 40.77734375 20.1171875 41.109375 C15.56102492 43.07920107 10.6093864 42.65322871 5.75 42.1328125 C0.63302561 39.79875401 -1.13715216 37.2441398 -3.25 32.1328125 C-3.60644531 28.62182617 -3.60644531 28.62182617 -3.578125 24.80078125 C-3.57625183 24.12356522 -3.57437866 23.44634918 -3.57244873 22.74861145 C-3.56576825 21.32918309 -3.55193423 19.90977188 -3.53125 18.49047852 C-3.49984049 16.30923519 -3.49024898 14.12871365 -3.484375 11.94726562 C-3.40652208 0.20107943 -3.40652208 0.20107943 0 0 Z " fill="#6A0E27" transform="translate(396.25,211.8671875)"/>
<path d="M0 0 C0.76166977 0.00222061 1.52333954 0.00444122 2.30809021 0.00672913 C3.16890701 0.00680466 4.02972382 0.00688019 4.91662598 0.00695801 C5.8520372 0.01211929 6.78744843 0.01728058 7.75120544 0.02259827 C8.70422043 0.02401321 9.65723541 0.02542816 10.63912964 0.02688599 C13.69605085 0.032503 16.75289996 0.04505836 19.80979919 0.05775452 C21.87685543 0.06276733 23.94391281 0.06733061 26.01097107 0.07142639 C31.08977507 0.08247795 36.16852489 0.09975397 41.24729919 0.12025452 C41.2741807 1.76600018 41.29364043 3.41186865 41.30979919 5.05775452 C41.32140076 5.97427795 41.33300232 6.89080139 41.34495544 7.83509827 C41.24729919 10.12025452 41.24729919 10.12025452 40.24729919 11.12025452 C37.89416365 11.19297193 35.53896251 11.2039632 33.18479919 11.18275452 C31.89444763 11.17373108 30.60409607 11.16470764 29.27464294 11.15541077 C28.27561951 11.1438092 27.27659607 11.13220764 26.24729919 11.12025452 C26.24951981 11.66704865 26.25174042 12.21384277 26.25402832 12.77720642 C26.27610605 18.45453744 26.29121624 24.13185632 26.30223083 29.80921936 C26.30726791 31.9296671 26.31409778 34.05011136 26.32273865 36.17054749 C26.33483154 39.21368773 26.34053366 42.25678217 26.34495544 45.29994202 C26.35011673 46.25206573 26.35527802 47.20418945 26.3605957 48.18516541 C26.360709 49.50630844 26.360709 49.50630844 26.36082458 50.85414124 C26.3630452 51.63135529 26.36526581 52.40856934 26.36755371 53.20933533 C26.24729919 55.12025452 26.24729919 55.12025452 25.24729919 57.12025452 C21.61729919 57.12025452 17.98729919 57.12025452 14.24729919 57.12025452 C14.24729919 41.94025452 14.24729919 26.76025452 14.24729919 11.12025452 C9.29729919 11.12025452 4.34729919 11.12025452 -0.75270081 11.12025452 C-1.41270081 10.79025452 -2.07270081 10.46025452 -2.75270081 10.12025452 C-2.77959297 8.6411856 -2.79904702 7.16197969 -2.81520081 5.68275452 C-2.82680237 4.85904358 -2.83840393 4.03533264 -2.85035706 3.18666077 C-2.72808345 0.5993513 -2.59433683 0.17799999 0 0 Z " fill="#600E25" transform="translate(188.75270080566406,196.87974548339844)"/>
<path d="M0 0 C0 2.31 0 4.62 0 7 C-2.97 7.99 -5.94 8.98 -9 10 C-9 11.32 -9 12.64 -9 14 C-6.36 14.33 -3.72 14.66 -1 15 C-1 17.64 -1 20.28 -1 23 C-3.95664519 24.4783226 -6.74229737 24.06032783 -10 24 C-9.99214478 25.44620728 -9.99214478 25.44620728 -9.98413086 26.92163086 C-9.96607882 30.48672564 -9.95456726 34.05181636 -9.94506836 37.61694336 C-9.9400286 39.16219766 -9.9331968 40.70744716 -9.92456055 42.25268555 C-9.91247924 44.46925029 -9.90676827 46.68575218 -9.90234375 48.90234375 C-9.89718246 49.5971434 -9.89202118 50.29194305 -9.88670349 51.00779724 C-9.88650723 52.6722933 -9.93810871 54.33665499 -10 56 C-11 57 -11 57 -13.25 57.1328125 C-14.1575 57.13023437 -15.065 57.12765625 -16 57.125 C-17.36125 57.12886719 -17.36125 57.12886719 -18.75 57.1328125 C-21 57 -21 57 -22 56 C-22.0883967 53.6243148 -22.11530305 51.27791326 -22.09765625 48.90234375 C-22.0962413 48.19348526 -22.09482635 47.48462677 -22.09336853 46.75428772 C-22.08775443 44.48198288 -22.07519963 42.20977525 -22.0625 39.9375 C-22.05748681 38.40039204 -22.05292359 36.86328255 -22.04882812 35.32617188 C-22.03778042 31.55074358 -22.02050641 27.77538829 -22 24 C-22.804375 24.020625 -23.60875 24.04125 -24.4375 24.0625 C-27 24 -27 24 -28 23 C-28.1328125 21.1875 -28.1328125 21.1875 -28.125 19 C-28.12757813 18.278125 -28.13015625 17.55625 -28.1328125 16.8125 C-28 15 -28 15 -27 14 C-25.33382885 13.95936168 -23.66611905 13.957279 -22 14 C-21.99742187 13.40832031 -21.99484375 12.81664062 -21.9921875 12.20703125 C-21.68675149 5.96595537 -21.68675149 5.96595537 -19.80859375 3.32421875 C-13.73183541 -2.05442636 -7.4291574 -1.07310051 0 0 Z " fill="#710F2A" transform="translate(388,197)"/>
<path d="M0 0 C1.20462891 -0.02126953 1.20462891 -0.02126953 2.43359375 -0.04296875 C4.5625 0.1875 4.5625 0.1875 6.5625 2.1875 C6.80973816 4.47132874 6.80973816 4.47132874 6.80541992 7.35571289 C6.80849655 8.43345474 6.81157318 9.51119659 6.81474304 10.62159729 C6.80755753 11.78932175 6.80037201 12.9570462 6.79296875 14.16015625 C6.79228142 15.95023354 6.79228142 15.95023354 6.7915802 17.776474 C6.78855506 20.30257154 6.780661 22.82866717 6.76831055 25.35473633 C6.75006013 29.23720858 6.74780076 33.11944248 6.74804688 37.00195312 C6.7431317 39.45052291 6.73730338 41.89909107 6.73046875 44.34765625 C6.72935593 45.51740494 6.7282431 46.68715363 6.72709656 47.89234924 C6.72071671 48.96693893 6.71433685 50.04152863 6.70776367 51.14868164 C6.70395187 52.09973282 6.70014008 53.050784 6.69621277 54.03065491 C6.5625 56.1875 6.5625 56.1875 5.5625 57.1875 C3.89820949 57.28573937 2.22968069 57.31723631 0.5625 57.3125 C-0.79875 57.31636719 -0.79875 57.31636719 -2.1875 57.3203125 C-4.4375 57.1875 -4.4375 57.1875 -5.4375 56.1875 C-5.53631593 54.47431054 -5.56548969 52.75705197 -5.56689453 51.04101562 C-5.57162277 49.39425842 -5.57162277 49.39425842 -5.57644653 47.7142334 C-5.5744223 46.51947388 -5.57239807 45.32471436 -5.5703125 44.09375 C-5.57126923 42.87675415 -5.57222595 41.6597583 -5.57321167 40.40588379 C-5.57389372 37.82674101 -5.57203772 35.24759653 -5.56787109 32.66845703 C-5.56252322 28.70471364 -5.56781529 24.74108358 -5.57421875 20.77734375 C-5.57355797 18.27864558 -5.57227682 15.77994748 -5.5703125 13.28125 C-5.57233673 12.08649048 -5.57436096 10.89173096 -5.57644653 9.6607666 C-5.57329437 8.56292847 -5.57014221 7.46509033 -5.56689453 6.33398438 C-5.56609894 5.3621521 -5.56530334 4.39031982 -5.56448364 3.38903809 C-5.33731791 -0.5493748 -3.48883399 0.02791067 0 0 Z " fill="#75102B" transform="translate(441.4375,196.8125)"/>
<path d="M0 0 C1.0725 0.66 2.145 1.32 3.25 2 C2.92 2.66 2.59 3.32 2.25 4 C1.321875 3.814375 0.39375 3.62875 -0.5625 3.4375 C-3.76343771 2.75876119 -3.76343771 2.75876119 -6.75 4 C-6.75 5.32 -6.75 6.64 -6.75 8 C-7.9875 8.061875 -9.225 8.12375 -10.5 8.1875 C-14.01209656 8.59416381 -14.49405591 8.69136154 -16.875 11.5625 C-17.803125 12.7690625 -17.803125 12.7690625 -18.75 14 C-22.8634271 14.58763244 -24.25434664 14.33043558 -27.75 12 C-27.36124961 6.55749455 -25.58447004 3.83447004 -21.75 0 C-14.99184864 -3.36192301 -6.74446143 -3.39026403 0 0 Z " fill="#640E25" transform="translate(349.75,212)"/>
<path d="M0 0 C1.20462891 -0.02126953 1.20462891 -0.02126953 2.43359375 -0.04296875 C4.5625 0.1875 4.5625 0.1875 6.5625 2.1875 C6.6875 5.3125 6.6875 5.3125 6.5625 8.1875 C6.2325 8.1875 5.9025 8.1875 5.5625 8.1875 C5.2325 6.5375 4.9025 4.8875 4.5625 3.1875 C1.9225 2.8575 -0.7175 2.5275 -3.4375 2.1875 C-3.4375 19.6775 -3.4375 37.1675 -3.4375 55.1875 C-0.7975 54.8575 1.8425 54.5275 4.5625 54.1875 C4.5625 40.3275 4.5625 26.4675 4.5625 12.1875 C4.8925 12.1875 5.2225 12.1875 5.5625 12.1875 C5.73034025 18.43529466 5.89030106 24.68325473 6.04467773 30.93139648 C6.09818206 33.05872205 6.15351764 35.18600236 6.21069336 37.31323242 C6.29236981 40.3636702 6.36754681 43.41420797 6.44140625 46.46484375 C6.46844131 47.42212875 6.49547638 48.37941376 6.52333069 49.3657074 C6.54342697 50.24654495 6.56352325 51.12738251 6.58422852 52.03491211 C6.60421402 52.81434677 6.62419952 53.59378143 6.64479065 54.39683533 C6.5625 56.1875 6.5625 56.1875 5.5625 57.1875 C3.89820949 57.28573937 2.22968069 57.31723631 0.5625 57.3125 C-0.79875 57.31636719 -0.79875 57.31636719 -2.1875 57.3203125 C-4.4375 57.1875 -4.4375 57.1875 -5.4375 56.1875 C-5.53631593 54.47431054 -5.56548969 52.75705197 -5.56689453 51.04101562 C-5.57162277 49.39425842 -5.57162277 49.39425842 -5.57644653 47.7142334 C-5.5744223 46.51947388 -5.57239807 45.32471436 -5.5703125 44.09375 C-5.57126923 42.87675415 -5.57222595 41.6597583 -5.57321167 40.40588379 C-5.57389372 37.82674101 -5.57203772 35.24759653 -5.56787109 32.66845703 C-5.56252322 28.70471364 -5.56781529 24.74108358 -5.57421875 20.77734375 C-5.57355797 18.27864558 -5.57227682 15.77994748 -5.5703125 13.28125 C-5.57233673 12.08649048 -5.57436096 10.89173096 -5.57644653 9.6607666 C-5.57329437 8.56292847 -5.57014221 7.46509033 -5.56689453 6.33398438 C-5.56609894 5.3621521 -5.56530334 4.39031982 -5.56448364 3.38903809 C-5.33731791 -0.5493748 -3.48883399 0.02791067 0 0 Z " fill="#470B18" transform="translate(441.4375,196.8125)"/>
<path d="M0 0 C2.9375 0.1875 2.9375 0.1875 3.9375 1.1875 C4.09746166 3.77903107 4.19688697 6.3470202 4.25390625 8.94140625 C4.27468735 9.71685287 4.29546844 10.4922995 4.31687927 11.29124451 C4.38245802 13.77740308 4.44129799 16.26367045 4.5 18.75 C4.54317733 20.43165204 4.58679136 22.11329294 4.63085938 23.79492188 C4.73897281 27.9256712 4.83798331 32.05649867 4.9375 36.1875 C13.1875 36.1875 21.4375 36.1875 29.9375 36.1875 C26.71777718 38.33398188 25.86097762 38.43598373 22.15625 38.41796875 C21.23199219 38.41603516 20.30773437 38.41410156 19.35546875 38.41210938 C17.91107422 38.39374023 17.91107422 38.39374023 16.4375 38.375 C14.99310547 38.3740332 14.99310547 38.3740332 13.51953125 38.37304688 C6.35932503 38.32810834 6.35932503 38.32810834 2.9375 37.1875 C2.9375 25.6375 2.9375 14.0875 2.9375 2.1875 C0.9575 2.1875 -1.0225 2.1875 -3.0625 2.1875 C-3.11216189 6.63491318 -3.14834293 11.0821768 -3.17236328 15.52978516 C-3.18238339 17.04088149 -3.19600321 18.55195862 -3.21337891 20.06298828 C-3.23780392 22.24256142 -3.24902307 24.42187684 -3.2578125 26.6015625 C-3.26828613 27.9107666 -3.27875977 29.2199707 -3.28955078 30.56884766 C-3.06444127 34.15656068 -2.4518744 36.88313393 -1.0625 40.1875 C1.96223977 42.46455129 5.43659061 42.72560249 9.125 43.25 C10.26710938 43.41371094 11.40921875 43.57742188 12.5859375 43.74609375 C16.69891661 44.28777981 20.81031618 44.76778639 24.9375 45.1875 C24.9375 45.5175 24.9375 45.8475 24.9375 46.1875 C22.08307247 46.24187005 19.22969924 46.28134974 16.375 46.3125 C15.57513672 46.32925781 14.77527344 46.34601563 13.95117188 46.36328125 C8.87721296 46.40470132 4.70791364 45.97259731 -0.0625 44.1875 C-4.83453848 39.28988156 -5.22035073 35.09146397 -5.23046875 28.52734375 C-5.23546135 27.40882774 -5.23546135 27.40882774 -5.24055481 26.26771545 C-5.24561236 24.69337582 -5.2479635 23.11902549 -5.24780273 21.54467773 C-5.24999499 19.13051884 -5.26817832 16.71681278 -5.28710938 14.30273438 C-5.29004234 12.77343907 -5.29202778 11.24414158 -5.29296875 9.71484375 C-5.30015427 8.99086899 -5.30733978 8.26689423 -5.31474304 7.52098083 C-5.28173466 0.32337151 -5.28173466 0.32337151 0 0 Z " fill="#360A15" transform="translate(314.0625,267.8125)"/>
<path d="M0 0 C3.5 0.125 3.5 0.125 4.5 1.125 C4.74655117 4.35755976 4.88421091 7.58927492 5.0234375 10.828125 C5.53771495 14.38591324 6.23951376 16.34012168 8.5 19.125 C12.52257955 20.62405118 16.50787696 20.42871114 20.5625 19.1875 C21.5215625 18.6615625 21.5215625 18.6615625 22.5 18.125 C21.5 21.125 21.5 21.125 19.5 22.125 C14.47950124 22.75707718 10.59518419 22.65303523 6 20.4375 C1.78502168 16.36540231 1.96783647 9.63417769 1.5 4.125 C1.17 4.125 0.84 4.125 0.5 4.125 C0.2501236 6.6869857 0.02458884 9.24734131 -0.1875 11.8125 C-0.26033203 12.53373047 -0.33316406 13.25496094 -0.40820312 13.99804688 C-0.7715846 18.67925527 -0.37521097 21.37761706 2.5 25.125 C1.51 25.125 0.52 25.125 -0.5 25.125 C-4.40823815 19.71359333 -4.66217699 14.94966974 -4.625 8.4375 C-4.62886719 7.74849609 -4.63273438 7.05949219 -4.63671875 6.34960938 C-4.62455661 0.16516274 -4.62455661 0.16516274 0 0 Z " fill="#520B1F" transform="translate(226.5,296.875)"/>
<path d="M0 0 C6.15234375 -0.09765625 6.15234375 -0.09765625 8 0 C9.82007474 1.82007474 9.21596465 4.5494551 9.25 7 C9.20108659 12.55778623 8.97829064 18.14360817 6 23 C3.890625 24.23828125 3.890625 24.23828125 2 25 C1.34 24.34 0.68 23.68 0 23 C1.32 23 2.64 23 4 23 C4.2165625 22.1028125 4.2165625 22.1028125 4.4375 21.1875 C4.8872439 19.43849596 5.42892341 17.71322977 6 16 C6.22560676 13.60745424 6.40848595 11.21071877 6.5625 8.8125 C6.64628906 7.54019531 6.73007812 6.26789063 6.81640625 4.95703125 C6.90728516 3.49330078 6.90728516 3.49330078 7 2 C5.02 2 3.04 2 1 2 C1 7.28 1 12.56 1 18 C-2.74834934 18.93708733 -5.66479299 19.13379635 -9.5 19.125 C-10.6240625 19.12757813 -11.748125 19.13015625 -12.90625 19.1328125 C-15.4720699 19.02266367 -17.56266427 18.75270662 -20 18 C-20.33 15.36 -20.66 12.72 -21 10 C-19 12 -19 12 -18 16 C-12.72 16 -7.44 16 -2 16 C-1.855625 13.73125 -1.71125 11.4625 -1.5625 9.125 C-1.125 2.25 -1.125 2.25 0 0 Z " fill="#470B1A" transform="translate(374,287)"/>
<path d="M0 0 C0.33 0.99 0.66 1.98 1 3 C1.763125 2.505 2.52625 2.01 3.3125 1.5 C6 0 6 0 9 0 C9.33 0.99 9.66 1.98 10 3 C12.00016466 4.20882096 12.00016466 4.20882096 14 5 C13.05125 5.4125 12.1025 5.825 11.125 6.25 C7.99283376 8.0040131 7.13499394 8.70851757 6 12 C-1.75 12.125 -1.75 12.125 -4 11 C-4.36630156 7.06225823 -4.30233203 5.43460229 -2 2.125 C-1.34 1.42375 -0.68 0.7225 0 0 Z " fill="#690E27" transform="translate(233,214)"/>
<path d="M0 0 C1.98 0 3.96 0 6 0 C7.2138361 10.66441713 7.09531193 21.28270321 7 32 C9.97 32 12.94 32 16 32 C16 21.44 16 10.88 16 0 C18.64 0 21.28 0 24 0 C24 0.33 24 0.66 24 1 C21.69 1 19.38 1 17 1 C17.00785522 2.44620728 17.00785522 2.44620728 17.01586914 3.92163086 C17.03392118 7.48672564 17.04543274 11.05181636 17.05493164 14.61694336 C17.0599714 16.16219766 17.0668032 17.70744716 17.07543945 19.25268555 C17.08752076 21.46925029 17.09323173 23.68575218 17.09765625 25.90234375 C17.10281754 26.5971434 17.10797882 27.29194305 17.11329651 28.00779724 C17.11349277 29.6722933 17.06189129 31.33665499 17 33 C16 34 16 34 13.75 34.1328125 C12.8425 34.13023437 11.935 34.12765625 11 34.125 C9.63875 34.12886719 9.63875 34.12886719 8.25 34.1328125 C6 34 6 34 5 33 C4.9116033 30.6243148 4.88469695 28.27791326 4.90234375 25.90234375 C4.9037587 25.19348526 4.90517365 24.48462677 4.90663147 23.75428772 C4.91224557 21.48198288 4.92480037 19.20977525 4.9375 16.9375 C4.94251319 15.40039204 4.94707641 13.86328255 4.95117188 12.32617188 C4.96221958 8.55074358 4.97949359 4.77538829 5 1 C3.35 1 1.7 1 0 1 C0 0.67 0 0.34 0 0 Z " fill="#410618" transform="translate(361,220)"/>
<path d="M0 0 C0.33 0 0.66 0 1 0 C1 10.23 1 20.46 1 31 C7.6 31 14.2 31 21 31 C21 28.03 21 25.06 21 22 C21.66 21.01 22.32 20.02 23 19 C23.66 19 24.32 19 25 19 C24.85970581 21.1462026 24.71261836 23.29196218 24.5625 25.4375 C24.48128906 26.63246094 24.40007812 27.82742188 24.31640625 29.05859375 C24 32 24 32 23 33 C21.37742456 33.0991657 19.75060169 33.13079777 18.125 33.1328125 C17.14015625 33.13410156 16.1553125 33.13539063 15.140625 33.13671875 C14.10421875 33.13285156 13.0678125 33.12898438 12 33.125 C10.44539062 33.13080078 10.44539062 33.13080078 8.859375 33.13671875 C7.87453125 33.13542969 6.8896875 33.13414062 5.875 33.1328125 C4.96492188 33.13168457 4.05484375 33.13055664 3.1171875 33.12939453 C1 33 1 33 0 32 C-0.27067791 29.07667855 -0.47571363 26.1801984 -0.625 23.25 C-0.67003662 22.39559326 -0.71507324 21.54118652 -0.76147461 20.66088867 C-1.0761529 13.68759153 -0.80993546 6.94052387 0 0 Z " fill="#4D0B1E" transform="translate(120,272)"/>
<path d="M0 0 C4.34265821 4.34265821 4.13461941 10.80232748 4.23046875 16.6171875 C4.22651563 19.0364975 4.21194926 21.45581031 4.1875 23.875 C4.18685547 25.10992187 4.18621094 26.34484375 4.18554688 27.6171875 C4.14063798 36.71872404 4.14063798 36.71872404 3 39 C-4.59 39 -12.18 39 -20 39 C-20 38.67 -20 38.34 -20 38 C-12.74 38 -5.48 38 2 38 C1.85762348 33.91652035 1.7111836 29.83325102 1.5625 25.75 C1.52318359 24.61046875 1.48386719 23.4709375 1.44335938 22.296875 C1.16800232 14.8410532 0.69021742 7.42894137 0 0 Z " fill="#4A0919" transform="translate(110,266)"/>
<path d="M0 0 C0 4.67590167 -0.88002198 5.69649386 -4 9 C-4.66 9 -5.32 9 -6 9 C-6.33 9.66 -6.66 10.32 -7 11 C-6.67 9.02 -6.34 7.04 -6 5 C-8.66355234 4.60830113 -10.39224373 4.59435471 -12.66796875 6.11328125 C-14.1510888 7.36389317 -15.57954352 8.67864514 -17 10 C-16.71956235 6.72822744 -15.96190858 4.94286287 -14.125 2.1875 C-9.55846049 -1.00907766 -5.40767009 -0.42617365 0 0 Z " fill="#5F0F25" transform="translate(314,197)"/>
<path d="M0 0 C0 2.31 0 4.62 0 7 C-4.455 8.485 -4.455 8.485 -9 10 C-9 11.32 -9 12.64 -9 14 C-6.36 14.33 -3.72 14.66 -1 15 C-1 17.64 -1 20.28 -1 23 C-1.33 23 -1.66 23 -2 23 C-2 20.69 -2 18.38 -2 16 C-4.97 16 -7.94 16 -11 16 C-11.35130264 10.64263477 -11.35130264 10.64263477 -11 8 C-9.0625 6.1875 -9.0625 6.1875 -7 5 C-6.67 4.01 -6.34 3.02 -6 2 C-8.97 1.67 -11.94 1.34 -15 1 C-15 0.67 -15 0.34 -15 0 C-9.77254141 -1.2063366 -5.23471686 -0.75612577 0 0 Z " fill="#4A0B1B" transform="translate(388,197)"/>
<path d="M0 0 C3.5 0.125 3.5 0.125 4.5 1.125 C4.65988491 3.64380517 4.75934225 6.13842266 4.81640625 8.66015625 C4.83718735 9.41340683 4.85796844 10.16665741 4.87937927 10.94273376 C4.94495425 13.3575599 5.00379621 15.77249798 5.0625 18.1875 C5.1056777 19.82097529 5.14929173 21.4544391 5.19335938 23.08789062 C5.30064362 27.10014464 5.40188821 31.11251164 5.5 35.125 C4.84 35.125 4.18 35.125 3.5 35.125 C3.5 24.235 3.5 13.345 3.5 2.125 C1.52 2.455 -0.46 2.785 -2.5 3.125 C-2.83 15.005 -3.16 26.885 -3.5 39.125 C-3.83 39.125 -4.16 39.125 -4.5 39.125 C-4.52464849 33.73153012 -4.54283531 28.33809275 -4.55493164 22.94458008 C-4.55997231 21.10831125 -4.56680477 19.27204646 -4.57543945 17.43579102 C-4.58751672 14.80223599 -4.59323081 12.16873384 -4.59765625 9.53515625 C-4.60281754 8.70911392 -4.60797882 7.88307159 -4.61329651 7.03199768 C-4.61349205 5.06263632 -4.56204152 3.09338386 -4.5 1.125 C-3.5 0.125 -3.5 0.125 0 0 Z " fill="#2B0610" transform="translate(255.5,268.875)"/>
<path d="M0 0 C2 1.25 2 1.25 4 3 C4 4.32 4 5.64 4 7 C1.03 7 -1.94 7 -5 7 C-4.96519531 8.423125 -4.93039063 9.84625 -4.89453125 11.3125 C-4.86637549 13.20832145 -4.83907726 15.10415577 -4.8125 17 C-4.78736328 17.93457031 -4.76222656 18.86914062 -4.73632812 19.83203125 C-4.67205778 25.95913725 -5.48483325 30.40193858 -8 36 C-9.03385543 32.8984337 -8.80955185 31.25764497 -8.29345703 28.10888672 C-7.71501953 23.95202888 -7.62148977 19.75203752 -7.4375 15.5625 C-7.39431641 14.64017578 -7.35113281 13.71785156 -7.30664062 12.76757812 C-7.20145069 10.51183837 -7.09930893 8.25600501 -7 6 C-4.69 6 -2.38 6 0 6 C0 4.02 0 2.04 0 0 Z " fill="#4B0C1B" transform="translate(153,203)"/>
<path d="M0 0 C2.3125 1.25 2.3125 1.25 3.3125 2.25 C3.5 4.6875 3.5 4.6875 3.3125 7.25 C2.6525 7.91 1.9925 8.57 1.3125 9.25 C-5.26442308 8.67307692 -5.26442308 8.67307692 -6.6875 7.25 C-7 4.875 -7 4.875 -6.6875 2.25 C-4.33222347 -0.45420638 -3.50969299 -0.97944921 0 0 Z " fill="#430D1C" transform="translate(369.6875,272.75)"/>
<path d="M0 0 C0.66 0.66 1.32 1.32 2 2 C1.43181818 7.56818182 1.43181818 7.56818182 0 9 C-2.9375 9.1875 -2.9375 9.1875 -6 9 C-8 7 -8 7 -8.125 3.875 C-8.08375 2.92625 -8.0425 1.9775 -8 1 C-5.23749964 -0.38125018 -3.05268901 -0.19079306 0 0 Z " fill="#3A0A16" transform="translate(383,273)"/>
<path d="M0 0 C0.66 0.33 1.32 0.66 2 1 C-1.17561976 6.25198652 -4.55121023 10.37140483 -10.25 13.0625 C-12.52965275 14.28374255 -13.05823081 15.64557703 -14 18 C-15.32 18 -16.64 18 -18 18 C-18 18.66 -18 19.32 -18 20 C-19.53125 21.5078125 -19.53125 21.5078125 -21.5 23.125 C-22.1496875 23.66382813 -22.799375 24.20265625 -23.46875 24.7578125 C-23.9740625 25.16773438 -24.479375 25.57765625 -25 26 C-25.66 25.67 -26.32 25.34 -27 25 C-22.41731215 20.30762016 -17.75053386 15.80319423 -12.76171875 11.54296875 C-10.97495935 10.02700561 -10.97495935 10.02700561 -9.39453125 8.30078125 C-8 7 -8 7 -6 7 C-6 6.34 -6 5.68 -6 5 C-4.04072937 3.2856382 -2.04119788 1.61594832 0 0 Z " fill="#480919" transform="translate(110,174)"/>
<path d="M0 0 C0.94875 0.350625 1.8975 0.70125 2.875 1.0625 C3 3.9375 3 3.9375 2.875 7.0625 C0.875 9.0625 0.875 9.0625 -1.5625 9.4375 C-4.125 9.0625 -4.125 9.0625 -6.0625 7.375 C-7.125 5.0625 -7.125 5.0625 -6.4375 2.375 C-4.46589177 -1.09878592 -3.8597741 -1.15793223 0 0 Z " fill="#420B1A" transform="translate(290.125,272.9375)"/>
<path d="M0 0 C2.85511765 0.92791324 3.77948384 1.36521408 5.5 3.8125 C5.75155798 6.48380616 5.82800499 8.89880693 5.75 11.5625 C5.73904297 12.30878662 5.72808594 13.05507324 5.71679688 13.82397461 C5.57412295 21.1693554 5.09678128 28.49127247 4.5 35.8125 C4.17 35.8125 3.84 35.8125 3.5 35.8125 C3.17 25.2525 2.84 14.6925 2.5 3.8125 C1.18 3.4825 -0.14 3.1525 -1.5 2.8125 C-2.83333333 2.47916667 -4.16666667 2.14583333 -5.5 1.8125 C-2.5 -0.1875 -2.5 -0.1875 0 0 Z " fill="#510D1E" transform="translate(61.5,207.1875)"/>
<path d="M0 0 C0.57213495 3.26934258 0.47687173 5.3024273 -1.41796875 8.07421875 C-4.36706291 11.47605232 -7.33071282 14.37792089 -11 17 C-11.703125 15.265625 -11.703125 15.265625 -12 13 C-10.671875 10.859375 -10.671875 10.859375 -8.75 8.75 C-8.12609375 8.04359375 -7.5021875 7.3371875 -6.859375 6.609375 C-5 5 -5 5 -2 5 C-1.67 3.68 -1.34 2.36 -1 1 C-3.31 1.66 -5.62 2.32 -8 3 C-7.67 2.01 -7.34 1.02 -7 0 C-3.86650268 -1.04449911 -3.01031744 -0.93423645 0 0 Z " fill="#570A20" transform="translate(355,269)"/>
<path d="M0 0 C0.33 0 0.66 0 1 0 C1.02465622 4.25414623 1.04283899 8.50825498 1.05493164 12.76245117 C1.05997101 14.21070073 1.06680253 15.65894517 1.07543945 17.10717773 C1.08752247 19.18474588 1.09323211 21.26224697 1.09765625 23.33984375 C1.10289307 24.59144287 1.10812988 25.84304199 1.11352539 27.13256836 C1 30 1 30 0 31 C-1.99609375 31.16796875 -1.99609375 31.16796875 -4.4375 31.1875 C-5.64212891 31.20876953 -5.64212891 31.20876953 -6.87109375 31.23046875 C-9 31 -9 31 -11 29 C-11.66 28.67 -12.32 28.34 -13 28 C-12.01 26.515 -12.01 26.515 -11 25 C-10.484375 25.474375 -9.96875 25.94875 -9.4375 26.4375 C-6.48553748 28.56775953 -6.48553748 28.56775953 0 29 C0 19.43 0 9.86 0 0 Z " fill="#480B1C" transform="translate(263,223)"/>
<path d="M0 0 C-0.0625 1.8125 -0.0625 1.8125 -1 4 C-4.96873594 6.09669068 -7.48438726 7 -12 7 C-12 5.68 -12 4.36 -12 3 C-10.75823305 2.29773859 -9.50614401 1.61370891 -8.25 0.9375 C-7.20585937 0.36322266 -7.20585937 0.36322266 -6.140625 -0.22265625 C-3.63859372 -1.1312406 -2.4667645 -0.88336837 0 0 Z " fill="#730F2B" transform="translate(341,229)"/>
<path d="M0 0 C0.33 0.66 0.66 1.32 1 2 C-1.625 5.875 -1.625 5.875 -5 7 C-5.33 7.66 -5.66 8.32 -6 9 C-3.03 9 -0.06 9 3 9 C3 16.59 3 24.18 3 32 C2.67 32 2.34 32 2 32 C2 24.74 2 17.48 2 10 C-0.97 10 -3.94 10 -7 10 C-7 6 -7 6 -5.625 4.25 C-4 3 -4 3 -2 3 C-2 2.34 -2 1.68 -2 1 C-1.34 0.67 -0.68 0.34 0 0 Z " fill="#400611" transform="translate(82,200)"/>
<path d="M0 0 C2.91045917 4.36568875 3.17410994 6.64514705 3.3515625 11.90625 C3.37471527 12.58675415 3.39786804 13.2672583 3.42172241 13.96838379 C3.46934436 15.40739568 3.5145806 16.84648821 3.55761719 18.28564453 C3.62474206 20.49152351 3.70250004 22.69685275 3.78125 24.90234375 C3.82616384 26.29945864 3.87045564 27.6965937 3.9140625 29.09375 C3.9548291 30.36927734 3.9955957 31.64480469 4.03759766 32.95898438 C4 36 4 36 3 38 C0.03 38 -2.94 38 -6 38 C-6 37.67 -6 37.34 -6 37 C-3.36 37 -0.72 37 2 37 C1.67 27.43 1.34 17.86 1 8 C0.34 7.67 -0.32 7.34 -1 7 C-0.67 4.69 -0.34 2.38 0 0 Z " fill="#3D0A19" transform="translate(354,216)"/>
<path d="M0 0 C4.875 3.75 4.875 3.75 6 6 C6.08649451 8.48099734 6.11565054 10.93344928 6.09765625 13.4140625 C6.0962413 14.14370209 6.09482635 14.87334167 6.09336853 15.62509155 C6.08776531 17.95843585 6.07521235 20.29168464 6.0625 22.625 C6.05748541 24.20572778 6.05292243 25.78645707 6.04882812 27.3671875 C6.03779484 31.24482854 6.02052811 35.12239807 6 39 C4.68 38.67 3.36 38.34 2 38 C2.99 38 3.98 38 5 38 C5 28.43 5 18.86 5 9 C4.34 9 3.68 9 3 9 C3 7.68 3 6.36 3 5 C1.68 4.34 0.36 3.68 -1 3 C-0.67 2.01 -0.34 1.02 0 0 Z " fill="#6A122C" transform="translate(257,213)"/>
<path d="M0 0 C0.33 0 0.66 0 1 0 C1.01981934 0.80630859 1.03963867 1.61261719 1.06005859 2.44335938 C1.15585685 6.12921051 1.2653136 9.81453707 1.375 13.5 C1.4059375 14.7684375 1.436875 16.036875 1.46875 17.34375 C1.67235559 23.85912895 2.06265954 29.76270875 4 36 C4.639375 36.103125 5.27875 36.20625 5.9375 36.3125 C6.618125 36.539375 7.29875 36.76625 8 37 C8.33 37.99 8.66 38.98 9 40 C5.08695821 38.73090537 3.14389712 37.53743024 1 34 C-0.17942085 30.46173745 -0.11289189 27.65851274 -0.09765625 23.92578125 C-0.0962413 23.2419487 -0.09482635 22.55811615 -0.09336853 21.8535614 C-0.08777876 19.67316278 -0.07522822 17.49286749 -0.0625 15.3125 C-0.05748367 13.83268378 -0.052921 12.35286594 -0.04882812 10.87304688 C-0.03781271 7.24866443 -0.02055512 3.6243423 0 0 Z " fill="#3A0A17" transform="translate(393,213)"/>
<path d="M0 0 C2.33294775 -0.04241723 4.66702567 -0.04092937 7 0 C9.04698414 2.04698414 8.70045693 6.30411241 9 9 C8.01 9.33 7.02 9.66 6 10 C5.67 10.99 5.34 11.98 5 13 C1.7 13.33 -1.6 13.66 -5 14 C-5.66 12.68 -6.32 11.36 -7 10 C-5.96875 10.2475 -4.9375 10.495 -3.875 10.75 C0.04729808 11.31738932 0.04729808 11.31738932 3.4375 9.375 C6.26058889 7.2625275 6.26058889 7.2625275 6.375 4.25 C6.25125 3.5075 6.1275 2.765 6 2 C3.03 1.505 3.03 1.505 0 1 C0 0.67 0 0.34 0 0 Z " fill="#5B0D23" transform="translate(246,234)"/>
<path d="M0 0 C0.33 1.32 0.66 2.64 1 4 C0.01 4.33 -0.98 4.66 -2 5 C-3.09166275 6.93330603 -3.09166275 6.93330603 -4 9 C-4.66 9.66 -5.32 10.32 -6 11 C-6.99 11 -7.98 11 -9 11 C-9 11.99 -9 12.98 -9 14 C-10.65 14.33 -12.3 14.66 -14 15 C-9.59156563 9.70987876 -4.92440206 4.81191572 0 0 Z " fill="#5A0E22" transform="translate(163,249)"/>
<path d="M0 0 C0 0.33 0 0.66 0 1 C-0.99 0.98839844 -1.98 0.97679687 -3 0.96484375 C-9.73800533 0.9102781 -16.32999603 0.91101976 -23 2 C-17.35997291 -4.17717252 -7.18241182 -3.10590781 0 0 Z " fill="#480A1B" transform="translate(257,212)"/>
<path d="M0 0 C1.67542976 0.28604898 3.34385343 0.61781233 5 1 C5 2.98 5 4.96 5 7 C3.33388095 7.042721 1.66617115 7.04063832 0 7 C-1 6 -1 6 -1.125 3.5 C-1 1 -1 1 0 0 Z " fill="#6F112C" transform="translate(378,274)"/>
<path d="M0 0 C1.65 0 3.3 0 5 0 C5 0.66 5 1.32 5 2 C11.27 2.66 17.54 3.32 24 4 C24 4.33 24 4.66 24 5 C15.43325085 5.33328851 8.04926924 5.11584616 0 2 C0 1.34 0 0.68 0 0 Z " fill="#420914" transform="translate(348,309)"/>
<path d="M0 0 C1.33897583 0.95043374 2.67105427 1.91059147 4 2.875 C5.11375 3.67550781 5.11375 3.67550781 6.25 4.4921875 C6.8275 4.98976562 7.405 5.48734375 8 6 C8 6.66 8 7.32 8 8 C8.639375 8.28875 9.27875 8.5775 9.9375 8.875 C12 10 12 10 13 12 C10.99105606 11.36079057 8.99220557 10.68960962 7 10 C6.278125 9.7525 5.55625 9.505 4.8125 9.25 C2.09485805 7.37576417 1.24696698 4.99272074 0 2 C0 1.34 0 0.68 0 0 Z " fill="#480D1A" transform="translate(136,188)"/>
<path d="M0 0 C2.475 0.99 2.475 0.99 5 2 C5.25 8.625 5.25 8.625 3 12 C2.34 12 1.68 12 1 12 C1 11.01 1 10.02 1 9 C1.66 9 2.32 9 3 9 C3 7.02 3 5.04 3 3 C1.02 3 -0.96 3 -3 3 C-2.01 2.01 -1.02 1.02 0 0 Z " fill="#4D1122" transform="translate(156,236)"/>
<path d="M0 0 C0.33 0 0.66 0 1 0 C1.05449838 1.72880982 1.09301688 3.45812712 1.125 5.1875 C1.14820313 6.15042969 1.17140625 7.11335937 1.1953125 8.10546875 C0.9913544 11.12812778 0.26874632 13.26769985 -1 16 C-1.33 16 -1.66 16 -2 16 C-1.85975781 13.52039864 -1.7130815 11.04147598 -1.5625 8.5625 C-1.52318359 7.85544922 -1.48386719 7.14839844 -1.44335938 6.41992188 C-1.11328125 1.11328125 -1.11328125 1.11328125 0 0 Z " fill="#521121" transform="translate(178,240)"/>
<path d="M0 0 C0.86625 0.3403125 0.86625 0.3403125 1.75 0.6875 C1.09 2.0075 0.43 3.3275 -0.25 4.6875 C-0.25 4.0275 -0.25 3.3675 -0.25 2.6875 C-1.9 4.3375 -3.55 5.9875 -5.25 7.6875 C-5.91 7.3575 -6.57 7.0275 -7.25 6.6875 C-6.87492618 3.96821483 -6.40781339 2.84531339 -4.4375 0.875 C-2.25 -0.3125 -2.25 -0.3125 0 0 Z " fill="#71102C" transform="translate(352.25,271.3125)"/>
<path d="M0 0 C3.625 -0.1875 3.625 -0.1875 7 0 C3.66666667 2.66666667 0.33333333 5.33333333 -3 8 C-2.45276317 4.62537285 -1.9451 2.91765 0 0 Z " fill="#5A0E23" transform="translate(300,199)"/>
<path d="M0 0 C0 3.77910478 -0.99703962 4.46106101 -3.5 7.1875 C-4.1496875 7.90292969 -4.799375 8.61835938 -5.46875 9.35546875 C-5.9740625 9.89816406 -6.479375 10.44085938 -7 11 C-8.32 10.67 -9.64 10.34 -11 10 C-5.555 5.05 -5.555 5.05 0 0 Z " fill="#530A1D" transform="translate(152,239)"/>
<path d="M0 0 C2.99391446 4.49087169 3.11177109 6.70517963 3.0625 12.125 C3.05347656 13.40632812 3.04445313 14.68765625 3.03515625 16.0078125 C3.02355469 16.99523437 3.01195312 17.98265625 3 19 C2.67 19 2.34 19 2 19 C1.92652344 17.82630859 1.92652344 17.82630859 1.8515625 16.62890625 C1.77679688 15.61699219 1.70203125 14.60507813 1.625 13.5625 C1.55539062 12.55316406 1.48578125 11.54382813 1.4140625 10.50390625 C1.27742188 9.67761719 1.14078125 8.85132813 1 8 C0.34 7.67 -0.32 7.34 -1 7 C-0.67 4.69 -0.34 2.38 0 0 Z " fill="#480C1E" transform="translate(354,216)"/>
<path d="M0 0 C0.33 0 0.66 0 1 0 C1.12117188 0.63808594 1.24234375 1.27617187 1.3671875 1.93359375 C1.53476562 2.75988281 1.70234375 3.58617187 1.875 4.4375 C2.03742188 5.26121094 2.19984375 6.08492187 2.3671875 6.93359375 C2.57601563 7.61550781 2.78484375 8.29742187 3 9 C3.66 9.33 4.32 9.66 5 10 C5.625 12.5625 5.625 12.5625 6 15 C0.06090299 9.21318753 0.06090299 9.21318753 -0.09765625 6.0546875 C-0.06510417 4.03645833 -0.03255208 2.01822917 0 0 Z " fill="#430A1B" transform="translate(319,237)"/>
<path d="M0 0 C0.66 0.33 1.32 0.66 2 1 C1.04454634 2.46022163 0.08553322 3.91811468 -0.875 5.375 C-1.40867187 6.18710938 -1.94234375 6.99921875 -2.4921875 7.8359375 C-4 10 -4 10 -6 12 C-5.59791618 6.37082652 -3.71069698 3.99613521 0 0 Z " fill="#44091A" transform="translate(328,212)"/>
<path d="M0 0 C2.0625 0.4375 2.0625 0.4375 4 1 C2.68 2.65 1.36 4.3 0 6 C-0.99 5.67 -1.98 5.34 -3 5 C-1.125 1.125 -1.125 1.125 0 0 Z " fill="#590F21" transform="translate(254,318)"/>
<path d="M0 0 C0.66 0.33 1.32 0.66 2 1 C2.125 3.375 2.125 3.375 2 6 C0 8 0 8 -2.625 8.125 C-3.40875 8.08375 -4.1925 8.0425 -5 8 C-3.68 7.67 -2.36 7.34 -1 7 C-1.20625 6.401875 -1.4125 5.80375 -1.625 5.1875 C-2 3 -2 3 0 0 Z " fill="#490A19" transform="translate(371,274)"/>
<path d="M0 0 C0 1.98 0 3.96 0 6 C-1.32 6 -2.64 6 -4 6 C-4.33 4.35 -4.66 2.7 -5 1 C-3 0 -3 0 0 0 Z " fill="#72102C" transform="translate(370,275)"/>
<path d="M0 0 C1.32 0 2.64 0 4 0 C4 1.65 4 3.3 4 5 C2.35 5 0.7 5 -1 5 C-0.67 3.35 -0.34 1.7 0 0 Z " fill="#72102B" transform="translate(286,275)"/>
<path d="M0 0 C0.33 0 0.66 0 1 0 C1.66 2.64 2.32 5.28 3 8 C4.32 8.33 5.64 8.66 7 9 C7.33 9.99 7.66 10.98 8 12 C4.12812449 10.74425659 1.93162483 9.65992073 0 6 C-0.1875 2.75 -0.1875 2.75 0 0 Z " fill="#4E0E1E" transform="translate(394,241)"/>
<path d="M0 0 C2.33294775 -0.04241723 4.66702567 -0.04092937 7 0 C9.04698414 2.04698414 8.70045693 6.30411241 9 9 C7.35 9.33 5.7 9.66 4 10 C4.66 9.01 5.32 8.02 6 7 C6.16713569 4.37468476 6.16713569 4.37468476 6 2 C3.03 1.505 3.03 1.505 0 1 C0 0.67 0 0.34 0 0 Z " fill="#4C0D1E" transform="translate(246,234)"/>
<path d="M0 0 C0.33 0 0.66 0 1 0 C1 1.65 1 3.3 1 5 C2.670625 4.7215625 2.670625 4.7215625 4.375 4.4375 C8 4 8 4 10 5 C10 5.66 10 6.32 10 7 C2.25 7.125 2.25 7.125 0 6 C0 4.02 0 2.04 0 0 Z " fill="#360613" transform="translate(229,219)"/>
<path d="M0 0 C0.75 1.625 0.75 1.625 1 4 C-0.9375 7.25 -0.9375 7.25 -3 10 C-4.32 9.34 -5.64 8.68 -7 8 C-5.68 8 -4.36 8 -3 8 C-2.87625 7.4225 -2.7525 6.845 -2.625 6.25 C-1.99351176 3.97664233 -1.11141809 2.0746471 0 0 Z " fill="#4F0E1D" transform="translate(381,302)"/>
<path d="M0 0 C3.35111834 2.23407889 4.81553956 3.26215824 5.8125 7.25 C5.874375 8.1575 5.93625 9.065 6 10 C5.01 9.67 4.02 9.34 3 9 C3 7.68 3 6.36 3 5 C1.68 4.34 0.36 3.68 -1 3 C-0.67 2.01 -0.34 1.02 0 0 Z " fill="#4C0D20" transform="translate(257,213)"/>
<path d="M0 0 C3.63 0 7.26 0 11 0 C11 1.32 11 2.64 11 4 C10.01 4.495 10.01 4.495 9 5 C9 4.01 9 3.02 9 2 C6.03 1.67 3.06 1.34 0 1 C0 0.67 0 0.34 0 0 Z " fill="#31060C" transform="translate(303,197)"/>
<path d="M0 0 C0 4.24645065 -1.81750806 6.38524772 -4 10 C-4.99 10 -5.98 10 -7 10 C-5.33248852 6.05860922 -2.77289351 3.2107188 0 0 Z " fill="#4B091A" transform="translate(292,210)"/>
<path d="M0 0 C1.98 0.99 1.98 0.99 4 2 C4 3.98 4 5.96 4 8 C3.01 7.67 2.02 7.34 1 7 C0.67 4.69 0.34 2.38 0 0 Z " fill="#570F22" transform="translate(349,292)"/>
<path d="M0 0 C0.66 0.33 1.32 0.66 2 1 C-0.31 3.31 -2.62 5.62 -5 8 C-5.33 7.01 -5.66 6.02 -6 5 C-5.34 5 -4.68 5 -4 5 C-3.896875 4.360625 -3.79375 3.72125 -3.6875 3.0625 C-3.460625 2.381875 -3.23375 1.70125 -3 1 C-2.01 0.67 -1.02 0.34 0 0 Z " fill="#540F24" transform="translate(166,267)"/>
<path d="M0 0 C0.66 0 1.32 0 2 0 C2 1.65 2 3.3 2 5 C-1.75 6.125 -1.75 6.125 -4 5 C-4 4.34 -4 3.68 -4 3 C-2.68 3 -1.36 3 0 3 C0 2.01 0 1.02 0 0 Z " fill="#5C0E23" transform="translate(88,262)"/>
<path d="M0 0 C0.7734375 0.433125 0.7734375 0.433125 1.5625 0.875 C4.62356725 2.28780027 7.74944918 3.1248517 11 4 C11 4.33 11 4.66 11 5 C8.03 5 5.06 5 2 5 C1.34 3.35 0.68 1.7 0 0 Z " fill="#450918" transform="translate(418,249)"/>
<path d="M0 0 C-0.34879632 3.25543229 -1.02133261 4.01873107 -3.5625 6.25 C-4.366875 6.8275 -5.17125 7.405 -6 8 C-5.62403791 5.21788056 -5.32681541 3.4120716 -3.5625 1.1875 C-2 0 -2 0 0 0 Z " fill="#4F0C1F" transform="translate(373,198)"/>
<path d="M0 0 C1.75098126 2.62647188 3.38731308 5.28775382 5 8 C4.01 8.33 3.02 8.66 2 9 C1.34 8.67 0.68 8.34 0 8 C0 5.36 0 2.72 0 0 Z " fill="#540C1E" transform="translate(66,244)"/>
<path d="M0 0 C0.66 1.32 1.32 2.64 2 4 C0.68 5.32 -0.64 6.64 -2 8 C-2.6875 6.25 -2.6875 6.25 -3 4 C-1.5625 1.75 -1.5625 1.75 0 0 Z " fill="#610B22" transform="translate(298,213)"/>
<path d="M0 0 C2.67479327 0.26095544 4.60095141 0.8004757 7 2 C7 2.66 7 3.32 7 4 C3.7 3.67 0.4 3.34 -3 3 C-2.01 2.01 -1.02 1.02 0 0 Z " fill="#3E0A18" transform="translate(59,207)"/>
<path d="M0 0 C0.66 0.33 1.32 0.66 2 1 C-1.75 6.875 -1.75 6.875 -4 8 C-3.50168276 4.31245243 -2.89932357 2.39509338 0 0 Z " fill="#540D20" transform="translate(110,174)"/>
<path d="M0 0 C2.475 0.495 2.475 0.495 5 1 C5.33 2.65 5.66 4.3 6 6 C3.97945196 4.35830472 1.97956942 2.69088222 0 1 C0 0.67 0 0.34 0 0 Z " fill="#540E22" transform="translate(79,282)"/>
<path d="M0 0 C0.33 1.32 0.66 2.64 1 4 C-1.375 5.5625 -1.375 5.5625 -4 7 C-4.66 6.67 -5.32 6.34 -6 6 C-4.02 4.02 -2.04 2.04 0 0 Z " fill="#400B16" transform="translate(163,249)"/>
<path d="M0 0 C1.32 0.66 2.64 1.32 4 2 C2.35 2 0.7 2 -1 2 C-1.12375 2.639375 -1.2475 3.27875 -1.375 3.9375 C-1.58125 4.618125 -1.7875 5.29875 -2 6 C-2.99 6.495 -2.99 6.495 -4 7 C-3.6875 4.625 -3.6875 4.625 -3 2 C-2.01 1.34 -1.02 0.68 0 0 Z " fill="#4B0E1E" transform="translate(171,207)"/>
<path d="M0 0 C0.99 0 1.98 0 3 0 C1.75023244 3.65316671 1.32901247 4.78065836 -2 7 C-2 5.68 -2 4.36 -2 3 C-1.34 3 -0.68 3 0 3 C0 2.01 0 1.02 0 0 Z " fill="#531021" transform="translate(173,256)"/>
</svg>
