<svg width="458" height="387" viewBox="0 0 458 387" fill="none" xmlns="http://www.w3.org/2000/svg">
<path d="M311.088 332.541C309.397 333.882 308 335.435 308 335.929C308 336.353 309.324 337.976 310.868 339.459C313.735 342.141 313.735 342.141 315.647 340.941C316.75 340.235 317.926 339.106 318.368 338.4C319.397 336.494 320.647 336.776 323.441 339.529C324.838 340.871 326.162 342 326.529 342C327.118 342 333 336.635 333 336.071C333 335.012 328.221 330.706 327.044 330.706C326.309 330.706 324.544 331.624 323.221 332.824C321.824 333.953 320.426 334.941 320.059 334.941C319.765 334.941 318.294 333.812 316.824 332.471L314.176 330L311.088 332.541Z" fill="#B1005F"/>
<path d="M229.567 324.691L226 326.548L226.223 349.062C226.446 370.461 226.52 371.725 227.932 373.285C231.053 376.851 232.613 377 258.918 377C278.016 376.926 284.035 376.703 285.446 375.96C286.933 375.142 287.527 375.142 289.31 376.034C290.945 376.851 294.958 377 308.854 376.851C328.471 376.628 329.065 376.48 331.889 370.684C333.227 368.009 333.301 367.266 332.409 359.242C331.889 354.486 331.295 349.731 331.072 348.616L330.7 346.61L326.836 348.096C324.755 348.914 322.823 349.88 322.452 350.177C322.155 350.474 322.378 353.149 323.046 356.121C324.533 363.328 324.458 365.632 322.749 366.598C321.857 367.043 315.616 367.341 307.516 367.341C292.06 367.341 292.877 367.638 291.911 361.396C291.242 356.938 288.493 353 284.555 350.623C281.137 348.691 271.477 345.05 269.619 345.05C266.275 345.05 268.876 343.415 277.57 339.923C282.994 337.768 287.824 335.465 288.344 334.796C288.79 334.127 289.236 331.824 289.236 329.595C289.236 326.697 289.013 325.657 288.344 325.954C287.824 326.177 281.508 328.852 274.3 331.973C258.324 338.957 256.838 340.146 256.986 346.61C257.061 349.062 257.432 351.44 257.878 351.886C258.324 352.332 262.188 353.446 266.572 354.412C270.882 355.378 275.935 356.79 277.718 357.607C281.211 359.167 284.035 362.734 284.035 365.632V367.341H261.148C239.97 367.341 238.112 367.266 236.998 366.003C235.883 364.814 235.734 361.917 235.586 343.935C235.363 320.456 235.66 321.496 229.567 324.691Z" fill="#B1005F"/>
<path d="M192.325 328.632C191.05 330.126 190 331.692 190 332.119C190 333.541 195.7 337.455 196.975 336.956C198.25 336.53 202 332.19 202 331.194C202 330.126 197.125 326 195.85 326C195.175 326 193.6 327.209 192.325 328.632Z" fill="#B1005F"/>
<path d="M160.134 318.095L156.588 320.115V345.627C156.588 370.241 156.514 371.214 155.111 373.084C153.338 375.329 149.571 376.6 144.548 376.6C135.463 376.6 131.401 370.989 132.878 360.366C133.395 356.774 133.247 356.475 131.696 355.727C130.293 355.054 129.85 355.203 128.963 356.625C127.043 359.767 126.009 364.256 126.009 369.867C125.935 374.431 126.304 376.002 127.634 378.246C131.475 384.531 137.901 387.524 146.173 386.925C153.781 386.326 160.503 381.912 163.531 375.478C164.565 373.383 165.082 372.86 166.043 373.309C168.037 374.356 203.86 374.58 206.962 373.683C210.951 372.411 213.241 369.269 213.832 363.957C214.496 357.897 213.167 351.911 210.286 348.021C206.445 343.008 203.86 341.886 196.179 342.111C192.19 342.185 187.537 346.974 185.838 352.585C184.36 357.597 184.36 358.72 185.69 362.011L186.798 364.63H177.639C166.781 364.63 166.264 364.331 166.116 358.196C166.043 355.951 165.895 353.782 165.821 353.408C165.747 352.959 165.599 344.43 165.525 334.33C165.452 320.19 165.23 316 164.565 316C164.048 316 162.054 316.973 160.134 318.095ZM202.161 353.108C204.451 354.605 206.815 358.495 206.815 360.814C206.815 362.535 206.741 362.61 201.94 362.086C194.184 361.263 191.23 359.019 192.338 354.605C193.15 351.238 198.247 350.49 202.161 353.108Z" fill="#B1005F"/>
<path d="M167.921 0.658443C148.588 5.19178 145.255 29.8584 159.521 61.9918C169.388 84.1251 187.521 109.592 213.388 138.125L228.321 154.392L240.188 141.992C281.121 98.7918 306.455 55.4584 306.455 28.7918C306.455 16.7918 304.588 10.9251 299.121 6.12511C286.855 -4.67489 267.921 -1.07489 247.521 15.9918C242.721 19.9918 236.455 26.3918 233.655 30.1251L228.721 36.9251L225.921 33.1918C209.921 11.0584 184.588 -3.20822 167.921 0.658443Z" fill="#B1005F"/>
<path d="M23.7881 97.7251C23.7881 100.658 29.5214 124.658 31.7881 131.058C33.2548 135.192 36.0548 140.792 38.0548 143.592C44.4548 153.058 62.4548 167.725 64.7214 165.592C64.9881 165.192 62.5881 159.325 59.2548 152.392C55.2548 144.525 52.3214 136.258 51.1214 129.592C48.0548 113.192 42.7214 104.925 31.5214 99.1918C26.1881 96.5251 23.7881 95.9918 23.7881 97.7251Z" fill="#B1005F"/>
<path d="M422.988 100.925C413.521 107.459 409.521 113.859 406.454 128.659C403.921 140.392 399.121 152.392 393.654 160.925C385.654 173.059 407.121 159.592 417.521 145.859C423.654 137.992 425.921 132.259 429.921 115.725C434.854 94.5252 434.321 93.3252 422.988 100.925Z" fill="#B1005F"/>
<path d="M53.6541 99.8585C52.8541 101.992 55.1208 123.325 57.1208 132.259C59.5208 142.925 69.2541 161.592 71.5208 160.125C72.0541 159.859 72.4541 150.659 72.3208 139.725C72.1874 117.059 70.7208 111.725 61.6541 102.925C56.0541 97.4585 54.7208 97.0585 53.6541 99.8585Z" fill="#B1005F"/>
<path d="M396.588 102.258C393.788 104.525 390.054 109.458 388.321 113.192C385.388 119.325 385.121 121.858 385.121 139.592C385.121 155.458 385.521 159.325 386.988 159.325C389.654 159.325 398.188 141.192 400.588 130.525C402.988 118.925 404.588 97.9918 402.988 97.9918C402.321 97.9918 399.388 99.8585 396.588 102.258Z" fill="#B1005F"/>
<path d="M98.9879 105.458C97.7879 110.125 99.2546 117.992 102.188 121.992C103.521 123.858 109.921 127.992 116.455 131.325C133.121 139.725 138.188 148.258 134.455 162.125C130.721 175.858 117.921 181.725 95.1213 180.258C71.7879 178.792 57.7879 171.858 38.1879 152.125C27.5213 141.458 24.7213 139.325 18.5879 137.458C14.5879 136.258 9.12125 135.325 6.58792 135.325C-4.47875 135.458 -3.94541 136.258 26.5879 166.792L55.3879 195.592L134.588 216.792C178.188 228.392 214.855 237.992 216.055 237.992C219.388 237.992 220.321 232.792 219.388 218.658C217.388 189.325 202.188 162.392 178.721 146.925C167.655 139.592 102.588 101.992 100.988 101.992C100.321 101.992 99.3879 103.458 98.9879 105.458Z" fill="#B1005F"/>
<path d="M318.588 123.192C276.988 147.192 267.388 153.858 258.988 164.525C251.521 173.858 243.121 190.525 240.188 201.992C237.921 210.925 236.988 235.725 238.988 237.592C240.188 238.792 251.254 235.992 339.121 212.392L403.121 195.325L429.521 168.925C444.054 154.525 456.588 141.592 457.388 140.125C459.388 136.392 456.321 135.058 447.521 135.858C435.654 137.058 431.254 139.592 418.054 153.058C403.921 167.458 393.388 173.992 377.788 177.992C366.454 180.925 350.721 181.458 341.254 179.192C329.388 176.525 322.454 167.458 322.454 154.525C322.454 142.658 325.388 138.925 341.254 131.058C356.188 123.592 358.988 120.125 358.188 109.458C357.921 105.858 357.254 102.658 356.454 102.525C355.788 102.258 338.721 111.592 318.588 123.192Z" fill="#B1005F"/>
<path d="M84.0542 114.925C80.7209 121.725 77.9209 135.592 77.9209 145.992C77.9209 159.992 81.5209 173.992 85.2542 173.992C86.9876 173.992 87.9209 172.259 89.1209 166.259C90.0542 162.125 91.9209 155.592 93.3876 151.992C97.5209 141.592 97.1209 130.525 92.3209 121.192C88.0542 112.792 85.9209 111.192 84.0542 114.925Z" fill="#B1005F"/>
<path d="M368.721 115.059C364.721 119.459 361.121 129.192 361.121 136.125C361.121 139.859 362.588 147.192 364.321 152.392C366.188 157.725 368.054 164.659 368.588 167.992C369.254 172.659 370.054 173.992 371.921 173.992C377.254 173.992 381.788 146.125 378.588 133.059C375.388 119.859 372.988 112.659 371.921 112.659C371.388 112.659 369.921 113.725 368.721 115.059Z" fill="#B1005F"/>
<path d="M67.7881 262.658C67.7881 268.258 68.0548 268.658 70.3214 267.325C71.7881 266.658 74.7214 265.991 76.9881 265.991H81.1214V283.725C81.1214 295.725 80.5881 301.991 79.5214 303.058C78.3214 304.258 80.0548 304.658 87.5214 304.658C96.7214 304.658 97.1214 304.525 95.7881 302.125C95.1214 300.658 94.4548 291.991 94.4548 282.791V265.991H98.8548C101.255 265.991 104.588 266.925 106.188 268.125C109.121 270.125 109.121 270.125 109.121 263.458V256.658H88.4548H67.7881V262.658Z" fill="#B1005F"/>
<path d="M120.455 277.591C117.788 289.191 114.721 299.991 113.655 301.591L111.788 304.658H120.988C129.521 304.658 130.188 304.525 129.521 301.991C129.121 300.525 129.255 297.858 129.655 295.991C130.455 292.791 131.121 292.525 136.188 292.925L141.788 293.325V299.058V304.658H150.988C158.188 304.658 159.788 304.258 158.721 302.925C157.921 301.991 154.721 291.191 151.655 278.925L146.188 256.658H135.788H125.388L120.455 277.591ZM139.121 280.258C139.788 282.791 139.255 283.325 136.321 283.325C132.855 283.325 132.855 283.191 133.655 276.391C134.988 267.058 136.188 265.591 137.388 271.991C137.921 274.925 138.721 278.658 139.121 280.258Z" fill="#B1005F"/>
<path d="M167.521 277.858C167.788 291.591 167.388 300.125 166.454 301.858C165.121 304.525 165.388 304.658 174.721 304.658C182.188 304.658 183.921 304.258 182.721 303.058C180.454 300.791 180.721 295.191 183.254 291.458L185.388 288.391L189.254 294.258C191.388 297.325 192.988 301.058 192.588 302.258C192.054 304.391 193.254 304.658 202.854 304.658H213.521L210.854 301.591C209.254 299.991 204.988 293.725 201.254 287.591L194.321 276.525L200.454 268.658C203.788 264.391 207.388 259.858 208.588 258.791C210.454 256.791 209.654 256.658 200.721 256.658C191.521 256.658 190.721 256.925 189.921 259.591C189.521 261.325 187.254 264.791 185.121 267.325L180.988 271.991L181.388 264.258L181.788 256.658H174.454H167.121L167.521 277.858Z" fill="#B1005F"/>
<path d="M231.121 258.258C230.854 259.191 228.454 268.925 225.788 279.991C223.254 290.925 220.054 300.925 218.854 302.258C216.854 304.525 217.121 304.658 226.988 304.658C236.321 304.658 236.988 304.525 235.654 302.258C234.721 300.658 234.721 298.925 235.654 296.258C236.854 293.325 237.921 292.658 241.654 292.658C246.988 292.658 249.788 296.125 248.721 301.458C248.188 304.525 248.321 304.658 257.521 304.658C265.921 304.658 266.588 304.525 264.988 302.525C263.921 301.325 260.721 290.658 257.654 278.791L252.321 257.325L242.054 256.925C234.588 256.658 231.654 257.058 231.121 258.258ZM244.988 280.925C245.121 282.658 244.188 283.325 241.788 283.325C237.921 283.325 237.921 283.458 240.054 273.191L241.654 265.325L243.254 271.991C244.188 275.591 244.988 279.725 244.988 280.925Z" fill="#B1005F"/>
<path d="M272.855 278.791C273.121 294.258 272.721 301.458 271.655 302.791C270.321 304.391 271.655 304.658 279.655 304.658C288.721 304.658 289.121 304.525 287.788 302.125C287.121 300.658 286.455 297.058 286.455 294.125V288.658H294.188C298.455 288.658 302.588 289.325 303.521 290.258C304.721 291.458 305.121 290.258 305.121 284.525V277.325L295.788 277.725L286.455 278.258V272.125V265.991H296.588C302.055 265.991 307.788 266.658 309.255 267.325C311.521 268.658 311.788 268.258 311.788 262.658V256.658H292.188H272.455L272.855 278.791Z" fill="#B1005F"/>
<path d="M319.788 275.591C320.588 296.525 321.388 299.191 328.588 302.658C333.921 305.191 347.788 305.191 353.788 302.791C360.854 299.725 362.454 295.191 362.454 277.325C362.454 268.791 363.121 260.658 363.788 259.191C365.121 256.791 364.721 256.658 356.854 256.658H348.454V274.258C348.454 291.725 348.454 291.858 344.988 293.858C342.054 295.458 341.121 295.458 337.654 293.858L333.788 291.991V274.258V256.658H326.454H319.121L319.788 275.591Z" fill="#B1005F"/>
<path d="M372.854 278.791C373.121 294.258 372.721 301.458 371.654 302.791C370.321 304.391 373.254 304.658 391.654 304.658H413.121V297.991C413.121 291.725 411.654 289.591 409.788 292.658C409.388 293.325 403.788 293.991 397.654 293.991H386.188L386.721 275.325L387.121 256.658H379.788H372.454L372.854 278.791Z" fill="#B1005F"/>
</svg>
