<svg xmlns="http://www.w3.org/2000/svg" width="125.867" height="20" viewBox="0 0 125.867 20">
  <path id="Path_16213" data-name="Path 16213" d="M39.22,370.622a66.146,66.146,0,0,1,37.747-11.357,153.426,153.426,0,0,1,24.448,1.7l1.843.218c9.612,1.442,19.225,3.014,28.925,3.713,2.634.218,9.305.742,15.977.786,0,0,8.383-.175,13.036-1.485a1.625,1.625,0,0,1,2.063,1.18h0s.4,1.092-1.185,1.965c0,0-11.368,8.824-29.583,11.182-1.975.262-3.994.437-5.969.568a143.664,143.664,0,0,1-27.345-1.572l-1.843-.218c-9.612-1.441-19.225-3.014-28.925-3.713l-6.847-.48A65.4,65.4,0,0,0,39.4,374.2a1.66,1.66,0,0,1-1.887-1.049,1.729,1.729,0,0,1,.966-1.965Z" transform="translate(-37.436 -359.238)" fill="#121212"/>
</svg>
