<svg xmlns="http://www.w3.org/2000/svg" width="107" height="107" viewBox="0 0 107 107">
  <g id="Group_7289" data-name="Group 7289" transform="translate(-316.5 -1702.068)">
    <path id="challenge" d="M9.141,39H0V30.875H9.141Zm-5.4,16.048L7.4,62.3l8.62-4.342-3.655-7.256ZM15.815,11.292,7.4,7.053,3.743,14.31l8.418,4.239Zm72.167,46.67L96.6,62.3l3.655-7.256-8.621-4.342ZM100.257,14.31,96.6,7.053l-8.418,4.239,3.655,7.256Zm-13.321,20.4h0v.232C86.872,48.89,81,56.611,75.824,63.428c-4.332,5.7-7.754,10.205-7.754,17.7V91.813A12.2,12.2,0,0,1,55.882,104H48.118A12.2,12.2,0,0,1,35.931,91.813V81.131c0-7.5-3.423-12-7.755-17.7C23,56.611,17.128,48.89,17.063,34.938h0v-.232a34.937,34.937,0,0,1,69.873,0ZM59.944,91.813V83.891H44.055v7.922a4.067,4.067,0,0,0,4.063,4.063h7.764A4.067,4.067,0,0,0,59.944,91.813ZM78.813,34.834a26.813,26.813,0,0,0-53.625,0c.035,11.278,4.612,17.3,9.457,23.678,3.759,4.947,7.623,10.031,8.939,17.254H60.416c1.316-7.223,5.18-12.307,8.939-17.254C74.2,52.136,78.778,46.113,78.813,34.834ZM53.923,18.578a15,15,0,0,0-11.647,3.7,14.71,14.71,0,0,0-4.9,10.945H45.5a6.49,6.49,0,0,1,2.2-4.891,6.768,6.768,0,0,1,5.332-1.682,6.633,6.633,0,0,1,5.845,5.8c.233,2.122-.786,4.152-3.41,6.788-.642.645-1.236,1.212-1.811,1.76-2.957,2.82-5.511,5.255-5.511,10.586v.2h8.125v-.2c0-1.75.339-2.175,2.993-4.707.584-.556,1.245-1.188,1.962-1.907,2.784-2.8,6.407-7.23,5.728-13.408A14.814,14.814,0,0,0,53.923,18.578ZM48.141,66.016h8.125V57.891H48.141ZM94.859,30.875V39H104V30.875Zm0,0" transform="translate(318 1703.568)" stroke="#fff" stroke-width="3"/>
    <path id="challenge-2" data-name="challenge" d="M53.923,18.578a15,15,0,0,0-11.647,3.7,14.71,14.71,0,0,0-4.9,10.945H45.5a6.49,6.49,0,0,1,2.2-4.891,6.768,6.768,0,0,1,5.332-1.682,6.633,6.633,0,0,1,5.845,5.8c.233,2.122-.786,4.152-3.41,6.788-.642.645-1.236,1.212-1.811,1.76-2.957,2.82-5.511,5.255-5.511,10.586v.2h8.125v-.2c0-1.75.339-2.175,2.993-4.707.584-.556,1.245-1.188,1.962-1.907,2.784-2.8,6.407-7.23,5.728-13.408A14.814,14.814,0,0,0,53.923,18.578Z" transform="translate(318 1703.568)" fill="#fdb933" stroke="#fff" stroke-width="3"/>
    <rect id="Rectangle_9672" data-name="Rectangle 9672" width="6" height="6" transform="translate(367 1762)" fill="#fdb933"/>
  </g>
</svg>
