<svg id="Group_65377" data-name="Group 65377" xmlns="http://www.w3.org/2000/svg" width="120" height="44" viewBox="0 0 120 44">
  <path id="Path_84977" data-name="Path 84977" d="M8.189,0h103.2a8.265,8.265,0,0,1,8.189,8.339V35.225a8.265,8.265,0,0,1-8.19,8.339H8.19A8.266,8.266,0,0,1,0,35.225V8.339A8.265,8.265,0,0,1,8.189,0Z" transform="translate(0.212 0.218)" fill="#fff"/>
  <path id="Path_84852" data-name="Path 84852" d="M745.643.431a8.061,8.061,0,0,1,7.978,8.124V35.444a8.062,8.062,0,0,1-7.978,8.125h-103.2a8.061,8.061,0,0,1-7.977-8.125V8.555A8.061,8.061,0,0,1,642.446.431Zm0-.431h-103.2a8.479,8.479,0,0,0-8.4,8.555V35.444a8.48,8.48,0,0,0,8.4,8.556h103.2a8.48,8.48,0,0,0,8.4-8.556V8.555A8.48,8.48,0,0,0,745.643,0" transform="translate(-634.045)" fill="#5c5a4b"/>
  <path id="Path_84853" data-name="Path 84853" d="M868.05,20c.035-.013-.037.012,0,0" transform="translate(-768.969 -11.287)" fill="#5c5a4b"/>
  <path id="Path_84854" data-name="Path 84854" d="M868.062,20h0" transform="translate(-768.982 -11.292)" fill="#5c5a4b"/>
  <path id="Path_84855" data-name="Path 84855" d="M865.012,38.21h-.024a10.2,10.2,0,0,1-3.028-.459,5.208,5.208,0,0,1-2.581-2.03,14.52,14.52,0,0,1-1.9-7.136v-.009a14.535,14.535,0,0,1,1.9-7.137,5.224,5.224,0,0,1,2.581-2.03,10.414,10.414,0,0,1,6.1,0,5.234,5.234,0,0,1,2.582,2.03,14.549,14.549,0,0,1,1.9,7.137v.009a14.534,14.534,0,0,1-1.9,7.136,5.274,5.274,0,0,1-2.6,2.032,10.024,10.024,0,0,1-3.009.456Zm6.951-9.629h0a16.564,16.564,0,0,0-1.2-6.088,4.76,4.76,0,0,0-3.215-2.954,10.19,10.19,0,0,0-5.095,0,4.758,4.758,0,0,0-3.213,2.954,15.963,15.963,0,0,0,0,12.178,4.758,4.758,0,0,0,3.213,2.954,10.137,10.137,0,0,0,5.095,0,4.76,4.76,0,0,0,3.215-2.954,16.571,16.571,0,0,0,1.2-6.09" transform="translate(-762.879 -10.842)" fill="#5c5a4b"/>
  <path id="Path_84856" data-name="Path 84856" d="M877.551,30.713a2.1,2.1,0,0,1-.122-.222" transform="translate(-774.384 -17.345)" fill="#5c5a4b"/>
  <path id="Path_84857" data-name="Path 84857" d="M875.79,59.49c-.008-.391.363-.587.6-.845a.27.27,0,0,0,.042-.288.17.17,0,0,0-.12-.11.215.215,0,0,0-.2.041.323.323,0,0,0-.089.256l-.26.016a.524.524,0,0,1,.1-.4.58.58,0,0,1,.481-.158.472.472,0,0,1,.364.263.5.5,0,0,1-.07.517c-.152.168-.351.259-.479.449l.655-.04c.006.082.01.164.014.239Z" transform="translate(-773.416 -32.999)" fill="#5c5a4b"/>
  <path id="Path_84858" data-name="Path 84858" d="M869.327,57.462l0,.014-.425,1.346-.274-.092.293-.921,0-.016c-.109-.041-.241-.078-.346-.116l.056-.175a.4.4,0,0,0,.4-.041.472.472,0,0,0,.076-.071Z" transform="translate(-769.279 -32.653)" fill="#5c5a4b"/>
  <path id="Path_84859" data-name="Path 84859" d="M880.953,58.095a.359.359,0,0,0-.249-.281l-.084-.018a.321.321,0,0,0,.137-.309.349.349,0,0,0-.24-.273.617.617,0,0,0-.352,0,.641.641,0,0,0-.314.165.355.355,0,0,0-.085.357.3.3,0,0,0,.257.209l-.064.057a.364.364,0,0,0-.094.367.421.421,0,0,0,.289.31.759.759,0,0,0,.36-.005.729.729,0,0,0,.322-.169.433.433,0,0,0,.116-.412m-.9-.384a.186.186,0,0,1,.026-.214.282.282,0,0,1,.135-.077.259.259,0,0,1,.155,0,.191.191,0,0,1,.119.179.173.173,0,0,1-.056.125.3.3,0,0,1-.13.064.292.292,0,0,1-.142,0,.172.172,0,0,1-.108-.085m.572.65a.312.312,0,0,1-.163.089.306.306,0,0,1-.186,0,.218.218,0,0,1-.132-.142.223.223,0,0,1,.076-.246.49.49,0,0,1,.133-.06.422.422,0,0,1,.144-.009.211.211,0,0,1,.179.179.218.218,0,0,1-.051.189" transform="translate(-775.721 -32.54)" fill="#5c5a4b"/>
  <path id="Path_84860" data-name="Path 84860" d="M872.713,59.027a.363.363,0,0,0-.155-.345l-.074-.043a.31.31,0,0,0,.218-.253.356.356,0,0,0-.149-.336.644.644,0,0,0-.337-.1.637.637,0,0,0-.346.061.353.353,0,0,0-.188.315.314.314,0,0,0,.188.277l-.079.034a.358.358,0,0,0-.2.323.429.429,0,0,0,.188.383.769.769,0,0,0,.7.044.424.424,0,0,0,.231-.357m-.747-.642a.189.189,0,0,1,.087-.2.3.3,0,0,1,.3.02.19.19,0,0,1,.063.207.177.177,0,0,1-.091.1.287.287,0,0,1-.141.02.28.28,0,0,1-.138-.038.169.169,0,0,1-.077-.113m.357.794a.316.316,0,0,1-.182.037.33.33,0,0,1-.177-.058.222.222,0,0,1-.084-.178.218.218,0,0,1,.142-.209.429.429,0,0,1,.145-.018.389.389,0,0,1,.141.036.224.224,0,0,1,.015.389" transform="translate(-771.019 -32.969)" fill="#5c5a4b"/>
  <path id="Path_84861" data-name="Path 84861" d="M886.909,28.716l-1.274.564-.111-.271,1.272-.566Z" transform="translate(-779.051 -16.181)" fill="#5c5a4b"/>
  <path id="Path_84862" data-name="Path 84862" d="M877.015,21.965l-.327-1.467.3.03c.06.364.122.776.193,1.082.131-.286.271-.677.4-1.019l.3.031-.6,1.371Z" transform="translate(-773.957 -11.663)" fill="#5c5a4b"/>
  <path id="Path_84863" data-name="Path 84863" d="M863.419,25.345l-.309.57-.262-.149.354-.654L863,25l-.5.915,1.21.7.5-.916-.2-.115-.357.656-.339-.2.312-.57Z" transform="translate(-765.78 -14.223)" fill="#5c5a4b"/>
  <path id="Path_84864" data-name="Path 84864" d="M861.114,39.45a.379.379,0,0,0-.392-.206.385.385,0,0,0-.306.263.286.286,0,0,0-.234-.212.32.32,0,0,0-.339.143,3.222,3.222,0,0,0-.061.957h1.377v-.1a2.642,2.642,0,0,0-.047-.839m-.782.645h-.342c.011-.326-.041-.5.154-.522.114-.009.144.017.171.09a1.8,1.8,0,0,1,.016.432m.6,0h-.388c.007-.317-.043-.5.141-.54a.193.193,0,0,1,.19.038c.08.078.056.208.057.5" transform="translate(-764.208 -22.327)" fill="#5c5a4b"/>
  <path id="Path_84865" data-name="Path 84865" d="M887.449,30.815l.22-.058.28,1.114-.223.059-.1-.412-1.114.3-.071-.29,1.113-.295Z" transform="translate(-779.579 -17.499)" fill="#5c5a4b"/>
  <path id="Path_84866" data-name="Path 84866" d="M871.239,22.079a.639.639,0,0,0,.4-.209.348.348,0,0,0,.082-.295l-.159-1.021-.282.047.159,1.02a.214.214,0,0,1-.109.2.3.3,0,0,1-.126.044.331.331,0,0,1-.133,0,.2.2,0,0,1-.163-.151l-.16-1.019-.282.047.16,1.019a.341.341,0,0,0,.17.255.627.627,0,0,0,.441.068Z" transform="translate(-770.368 -11.695)" fill="#5c5a4b"/>
  <path id="Path_84867" data-name="Path 84867" d="M888.375,35.146l-1.442-.3.039.289.315.059.068.511-.285.145.039.29,1.306-.691Zm-.8.45-.047-.353.6.093h0Z" transform="translate(-779.864 -19.828)" fill="#5c5a4b"/>
  <path id="Path_84868" data-name="Path 84868" d="M888.409,40.028l.027,0,.032-.008.023-.009a.292.292,0,0,0,.108-.278.251.251,0,0,0-.127-.246.12.12,0,0,0-.144.034c-.157.238-.049.743-.451.831a.4.4,0,0,1-.421-.193.866.866,0,0,1,.008-.811.427.427,0,0,1,.342-.189l.018.274a.259.259,0,0,0-.211.145.448.448,0,0,0,.058.454.15.15,0,0,0,.169.012c.162-.118.129-.412.209-.61a.414.414,0,0,1,.178-.212.4.4,0,0,1,.439.075.742.742,0,0,1,.108.744.413.413,0,0,1-.366.265l-.017-.272Z" transform="translate(-780.109 -22.277)" fill="#5c5a4b"/>
  <path id="Path_84869" data-name="Path 84869" d="M861.464,35.193a.677.677,0,0,0-.069-.453.334.334,0,0,0-.249-.175l-.991-.158-.045.289.992.162a.2.2,0,0,1,.147.165.342.342,0,0,1,0,.138.317.317,0,0,1-.044.129.2.2,0,0,1-.19.111l-.991-.158-.044.29.992.16a.325.325,0,0,0,.287-.087.672.672,0,0,0,.2-.409Z" transform="translate(-764.324 -19.576)" fill="#5c5a4b"/>
  <path id="Path_84870" data-name="Path 84870" d="M866.768,22.214l-.253.16.3,1.477.244-.151-.073-.319.428-.269.244.212.242-.152Zm.168.923-.152-.6v0h0v0l.448.416Z" transform="translate(-768.091 -12.64)" fill="#5c5a4b"/>
  <path id="Path_84871" data-name="Path 84871" d="M881.4,22.153l-.584-.252.116-.283.67.289.089-.218-.939-.4-.536,1.315.94.4.09-.218-.673-.29.149-.368.588.254Z" transform="translate(-775.989 -12.111)" fill="#5c5a4b"/>
  <path id="Path_84872" data-name="Path 84872" d="M861.814,30.06a.315.315,0,0,0-.084-.256.4.4,0,0,0-.316-.11c-.309.049-.351.412-.522.99l1.328.408.084-.286-.526-.16-.021-.007a1.766,1.766,0,0,1,.113-.334c.094-.226.446,0,.586-.025l.081-.284c-.237.014-.553-.2-.724.064m-.276.51-.348-.1c.077-.243.111-.489.277-.475a.219.219,0,0,1,.152.081c.065.082-.019.265-.081.5" transform="translate(-764.848 -16.894)" fill="#5c5a4b"/>
  <path id="Path_84873" data-name="Path 84873" d="M884.462,24.017l-1.1.865.174.236.436-.341.018-.014a1.847,1.847,0,0,1,.2.29c.121.212-.263.373-.324.5l.173.235c.13-.206.487-.341.376-.64a.289.289,0,0,0,.253.081.4.4,0,0,0,.271-.2c.143-.287-.119-.534-.472-1.016m.206.887a.217.217,0,0,1-.152.079c-.1.005-.2-.172-.345-.362l.286-.226c.148.206.32.38.21.51" transform="translate(-777.804 -13.666)" fill="#5c5a4b"/>
  <path id="Path_84874" data-name="Path 84874" d="M872.5,26.461a2.472,2.472,0,0,0-1.585-1.4,7.983,7.983,0,0,0-2.111-.288h-.024a7.972,7.972,0,0,0-2.112.288,2.468,2.468,0,0,0-1.585,1.4,14.395,14.395,0,0,0,0,10.817,2.466,2.466,0,0,0,1.585,1.4,8.008,8.008,0,0,0,2.112.288h.024a8.019,8.019,0,0,0,2.111-.288,2.47,2.47,0,0,0,1.585-1.4,14.395,14.395,0,0,0,0-10.817m-1.225,4.024c.019,0,.112-.02.114-.08V29.151c.167-.04.337-.1.495-.133v.755c.1-.012.144-.024.262-.043v1l-.3.046-.095.4h-1.075l-.16-.358c-.26-.025-.279-.025-.541-.045a6.037,6.037,0,0,0,.671-1.009v-.509l.485-.064V30.4c0,.042.06.085.12.085Zm-.632-4.608a.42.42,0,0,1,.531.509c-.1.348-.474.412-.779.494l-.168-.234c.063-.3.1-.645.416-.769m-.939,1.388.122.222-.307.346c-.083-.082-.09-.09-.172-.179.158-.17.174-.189.357-.389m-3.8-.471v0a.587.587,0,0,0,.314.36c-.018-.088-.093-.167-.116-.259a.678.678,0,0,1,.05-.594.561.561,0,0,1,.325-.216.715.715,0,0,0,0,.476,1.2,1.2,0,0,0,.152-.134.529.529,0,0,1,.056-.048,1.484,1.484,0,0,1,.174.921l-.047.129c-.019-.213-.054-.315-.193-.393-.019.124.06.213.077.376a.684.684,0,0,1-.139.645h-.39a1.561,1.561,0,0,1-.26-1.261m.9,1.426v.227h-.208l-.09.766a.812.812,0,0,0-.3-.179c-.053-.325-.058-.348-.086-.587h-.2v-.227c.346,0,.539,0,.889,0m-1.51,3.271h2.388V32.2l-2.388,0Zm.924-1.433a.332.332,0,0,1,.273.1c-.012.414-.012.408-.021.844h-.221v-.069c-.008-.33-.023-.546-.03-.871m-.15,5.043a.68.68,0,0,1-.169-.022.539.539,0,0,1-.337-.226l-.016-.033-.016-.043-.019-.046-.007-.072V33.323c-.011-.169-.072-.172-.205-.274l.047-.016.526-.177a.484.484,0,0,1,.1.3V34.2c0,.069.056.107.131.111.091,0,.127-.035.135-.108.007-.468-.008-.6,0-1.024a.39.39,0,0,1,.253-.317.514.514,0,0,1,.451.022c.235.114.223.585.221.968a.51.51,0,0,0-.2-.1.277.277,0,0,0-.231.047.31.31,0,0,0-.085.264c-.006.443.042.747-.174.922a.627.627,0,0,1-.4.108m.7,1.445a.438.438,0,0,1-.179-.26c-.1-.454.436-.617.561-.992a3.339,3.339,0,0,1,.555-1.784,3.6,3.6,0,0,1,.971-2.416,3.665,3.665,0,0,0-.174-.585.291.291,0,0,1-.215-.088.5.5,0,0,1-.092-.239,3.476,3.476,0,0,1-.8.793c-.055.032-.126-.036-.227-.133-.371-.3-.436-.987-1-.957-.257-.089-.246-.4-.289-.635a.4.4,0,0,1,.367-.023c.354.194.59.606.925.88a1.355,1.355,0,0,0,.252.205,2,2,0,0,0,.545-.661.52.52,0,0,1,.464-.246l.133-.164-.071-.409a2.928,2.928,0,0,1-.346-.576c.049-.234.078-.506.308-.635.152-.1.274.123.4-.016a.259.259,0,0,1,.231.059,1.213,1.213,0,0,1,.211.528,3.722,3.722,0,0,1-.232.54c-.019.038-.072.051-.108.08a.568.568,0,0,0,.094.232.524.524,0,0,0,.215.011.635.635,0,0,1,.463-.355l.4-.265c-.063-.309.13-.58.023-.887a.782.782,0,0,1-.341-.58,1.068,1.068,0,0,1,.186-.372l.014.016a2.013,2.013,0,0,1,.484.846,8.09,8.09,0,0,1,.053,1.259,4.171,4.171,0,0,1-.714.512l-.181.356c-.022.366-.127.7-.182,1.052a2.411,2.411,0,0,1,.2,1.4,1.412,1.412,0,0,1-.48.5l-.405.334c.407.461.309.984.326,1.652,0,.162.278.3.128.479-.125.207-.32.374-.288.645a.662.662,0,0,1-.564.259.05.05,0,0,1-.053-.052,2.344,2.344,0,0,1,.157-.3c.145-.229.078-.543.258-.756a8.731,8.731,0,0,1-.433-1.487l0-.034a.857.857,0,0,0,.009.675,2.85,2.85,0,0,0-.833,1.7,8.081,8.081,0,0,0-.539.926c-.043.055-.122.006-.171-.022m2.651-1.639a.7.7,0,0,1,.561.434.781.781,0,0,1-.086.72.729.729,0,0,1-.721.29.742.742,0,0,1-.468-.332c.149-.052.362-.141.4-.29a1.1,1.1,0,0,1,.261-.606.231.231,0,0,0,.049-.216m.222-.207,0-2.107c.293,0,.387,0,.69,0V34.7Zm-1.489,3.216a.7.7,0,0,1-.714.053.74.74,0,0,1-.294-.3.593.593,0,0,1-.075-.268h1.367a.661.661,0,0,1-.283.512m.936.053H868.6V37.1h-.732v-.348h.736l.231-.282c.111.135.121.145.237.282h.735V37.1h-.736Zm1.473-.3a.748.748,0,0,1-.295.3.7.7,0,0,1-.714-.053.662.662,0,0,1-.283-.512h1.367a.59.59,0,0,1-.075.268m.527-4.348c.315.32.6.61.88.9a.419.419,0,0,1,.12.437,1.344,1.344,0,0,1-.126.226.432.432,0,0,0-.145-.321c-.385-.388-1.05-.927-1.1-1.157a1.611,1.611,0,0,1-.043-.517c.112-.09.2-.168.336-.275a1.173,1.173,0,0,0,.081.713m.652-.715c.148.123.221.192.359.328.08.358-.13.562-.285.814l-.62-.609v-.354c.074-.083.1-.113.186-.2l.174.216v.6c.247-.122.186-.482.186-.794m-.147,3.214c-.073.083-.1.114-.185.2l-.175-.216v-.6c-.245.124-.186.482-.186.794-.146-.122-.219-.191-.359-.327-.079-.358.129-.563.286-.815l.619.609Zm.523-.1c-.111.09-.2.167-.337.274.01-.272.047-.551-.08-.712-.314-.319-.6-.611-.88-.9a.42.42,0,0,1-.12-.438,1.239,1.239,0,0,1,.126-.224.42.42,0,0,0,.147.32c.382.388,1.047.928,1.1,1.157a1.619,1.619,0,0,1,.042.519m.24-3.517-2.389,0V31.49h2.389Z" transform="translate(-766.654 -14.143)" fill="#5c5a4b"/>
  <path id="Path_84875" data-name="Path 84875" d="M865.3,67.007v0l-.257.887h.514l-.256-.887Zm-6.124-.068c-.119-.008-.342.007-.544,0v.55a5.3,5.3,0,0,0,.58-.013c.122-.013.2-.127.2-.282a.249.249,0,0,0-.236-.255m-6.59.832c-.2-.011-.393-.011-.544-.011v.005l0,.592a5.123,5.123,0,0,0,.585-.017.264.264,0,0,0,.218-.284.283.283,0,0,0-.256-.285m-2.974,1.52h21.6V66.027h-21.6Zm2.974-.582h-.975V66.591h1a.54.54,0,0,1,.592.5.4.4,0,0,1-.309.487.551.551,0,0,1,.381.565c0,.24-.18.565-.686.565m3.851-.572a.517.517,0,0,1-.189.417.947.947,0,0,1-.631.209h-.008a.94.94,0,0,1-.63-.209.516.516,0,0,1-.192-.417V66.6h.425v1.541a.3.3,0,0,0,.2.261.429.429,0,0,0,.2.035.419.419,0,0,0,.192-.035.3.3,0,0,0,.2-.261V66.6h.427Zm3.018.573c-.1,0,.049-.842-.305-.863-.2-.014-.322-.005-.52,0l0,.865h-.43V66.589c.395,0,.621,0,.976,0,.318.017.636.148.657.5a.5.5,0,0,1-.415.577c.491.108.31.7.44,1.035Zm3.521-1.775h-1.083v.457h.944v.367h-.945v.593h1.084v.354h-1.515V66.585h1.515Zm2.846,1.775-.149-.463h-.745l-.151.463h-.422l.722-2.122h.445l.721,2.122Zm3.4-.575a.512.512,0,0,1-.192.415.928.928,0,0,1-.631.209h-.005a.939.939,0,0,1-.632-.209.525.525,0,0,1-.191-.415V66.592h.428v1.543a.3.3,0,0,0,.2.261.476.476,0,0,0,.2.034.451.451,0,0,0,.193-.034.314.314,0,0,0,.205-.261V66.592h.425Zm-16.662-.7c.149,0,.241-.1.241-.276a.23.23,0,0,0-.257-.236h-.5v.511Z" transform="translate(-758.343 -37.581)" fill="#5c5a4b"/>
  <path id="Path_84876" data-name="Path 84876" d="M865.7,75.676v0l-.258.89h.515l-.257-.89Zm-7.269-.066c-.121-.01-.343,0-.544,0v.547a5.027,5.027,0,0,0,.577-.013.251.251,0,0,0,.2-.282.247.247,0,0,0-.236-.252m-8.818,2.361h21.6V74.705h-21.6Zm2.942-.587h-.4l-.7-2.122h.45c.144.53.3,1.129.446,1.574.149-.445.3-1.044.444-1.572h.445Zm3.307-1.314v.366h-.946v.594H856l0,.353h-1.516V75.26H856l0,.351h-1.082v.457Zm2.848,1.307c-.1,0,.047-.84-.307-.863-.2-.011-.322,0-.519,0l0,.863h-.429V75.256c.393,0,.621.007.975.007.317.017.636.148.656.5a.494.494,0,0,1-.413.576c.492.111.307.7.439,1.033Zm2.354.007h-.432V75.261h.432Zm2.863-1.761h-.615v1.761h-.429l0-1.761h-.617v-.347h1.664Zm2.294,1.761-.151-.463h-.744l-.149.463h-.423l.724-2.122h.443l.723,2.122Zm2.274.048c-.628,0-.87-.4-.87-.712l.4-.016a.419.419,0,0,0,.442.388c.22,0,.467-.047.467-.3,0-.452-1.241-.186-1.241-.9a.7.7,0,0,1,.8-.706c.757,0,.825.529.825.663l-.4.015c0-.172-.1-.332-.38-.332-.3,0-.421.135-.421.284,0,.381,1.247.185,1.247.9,0,.473-.358.715-.865.715" transform="translate(-758.343 -42.52)" fill="#ac002a"/>
  <path id="Path_84877" data-name="Path 84877" d="M657.539,36.521l.675.177a2.379,2.379,0,0,1-.763,1.318,2.051,2.051,0,0,1-1.347.454,2.351,2.351,0,0,1-1.34-.349,2.163,2.163,0,0,1-.785-1.01,3.726,3.726,0,0,1-.27-1.421,3.223,3.223,0,0,1,.3-1.444,2.125,2.125,0,0,1,.866-.936,2.451,2.451,0,0,1,1.236-.32,2.033,2.033,0,0,1,1.286.4,2.109,2.109,0,0,1,.727,1.139l-.664.163a1.645,1.645,0,0,0-.514-.843,1.337,1.337,0,0,0-.848-.263,1.6,1.6,0,0,0-.983.292,1.546,1.546,0,0,0-.555.786,3.274,3.274,0,0,0-.16,1.018,3.344,3.344,0,0,0,.189,1.18,1.455,1.455,0,0,0,.59.753,1.6,1.6,0,0,0,.865.25,1.417,1.417,0,0,0,.959-.34,1.759,1.759,0,0,0,.532-1.008" transform="translate(-645.382 -18.786)" fill="#5c5a4b"/>
  <path id="Path_84878" data-name="Path 84878" d="M672.736,38.5V33.2h3.686v.626h-3.011v1.622h2.82v.622h-2.82v1.8h3.129V38.5Z" transform="translate(-656.355 -18.903)" fill="#5c5a4b"/>
  <path id="Path_84879" data-name="Path 84879" d="M690.338,38.5V33.2h2.26a2.9,2.9,0,0,1,1.036.143,1.146,1.146,0,0,1,.567.5,1.549,1.549,0,0,1,.212.8,1.363,1.363,0,0,1-.351.951,1.748,1.748,0,0,1-1.085.492,1.73,1.73,0,0,1,.407.263,3.646,3.646,0,0,1,.56.7l.887,1.442h-.848l-.674-1.1q-.3-.477-.486-.73a1.568,1.568,0,0,0-.343-.354,1,1,0,0,0-.308-.141,1.981,1.981,0,0,0-.375-.025h-.782V38.5Zm.674-2.96h1.45a2.086,2.086,0,0,0,.723-.1.777.777,0,0,0,.4-.318.886.886,0,0,0,.135-.476.8.8,0,0,0-.263-.618,1.2,1.2,0,0,0-.829-.242h-1.613Z" transform="translate(-666.505 -18.903)" fill="#5c5a4b"/>
  <path id="Path_84880" data-name="Path 84880" d="M709.322,38.5V33.822h-1.68V33.2h4.04v.626H710V38.5Z" transform="translate(-676.482 -18.903)" fill="#5c5a4b"/>
  <rect id="Rectangle_20733" data-name="Rectangle 20733" width="0.675" height="5.299" transform="translate(38.712 14.294)" fill="#5c5a4b"/>
  <path id="Path_84881" data-name="Path 84881" d="M736.356,38.5V33.2H739.8v.626h-2.764v1.641h2.392v.625h-2.392V38.5Z" transform="translate(-693.039 -18.903)" fill="#5c5a4b"/>
  <rect id="Rectangle_20734" data-name="Rectangle 20734" width="0.675" height="5.299" transform="translate(50.452 14.294)" fill="#5c5a4b"/>
  <path id="Path_84882" data-name="Path 84882" d="M764.035,38.5V33.2h3.686v.626H764.71v1.622h2.82v.622h-2.82v1.8h3.129V38.5Z" transform="translate(-708.999 -18.903)" fill="#5c5a4b"/>
  <path id="Path_84883" data-name="Path 84883" d="M781.611,38.5V33.2h1.756a4.107,4.107,0,0,1,.907.076,1.707,1.707,0,0,1,.748.379,2.159,2.159,0,0,1,.6.906,3.69,3.69,0,0,1,.2,1.26,3.849,3.849,0,0,1-.135,1.07,2.651,2.651,0,0,1-.348.772,1.885,1.885,0,0,1-.464.481,1.853,1.853,0,0,1-.608.266,3.375,3.375,0,0,1-.819.09Zm.674-.625h1.088a2.534,2.534,0,0,0,.791-.1,1.119,1.119,0,0,0,.458-.274,1.692,1.692,0,0,0,.373-.671,3.391,3.391,0,0,0,.134-1.021,2.549,2.549,0,0,0-.263-1.278,1.341,1.341,0,0,0-.638-.6,2.546,2.546,0,0,0-.873-.108h-1.071Z" transform="translate(-719.134 -18.903)" fill="#5c5a4b"/>
  <rect id="Rectangle_20735" data-name="Rectangle 20735" width="1.346" height="6.857" transform="translate(8.691 22.699)" fill="#ac002a"/>
  <path id="Path_84884" data-name="Path 84884" d="M666.576,57.215l1.31-.131a1.658,1.658,0,0,0,.48,1,1.421,1.421,0,0,0,.975.318,1.469,1.469,0,0,0,.981-.283.85.85,0,0,0,.329-.661.637.637,0,0,0-.138-.414,1.108,1.108,0,0,0-.485-.3q-.236-.084-1.078-.3a3.608,3.608,0,0,1-1.519-.678,1.826,1.826,0,0,1,.507-3.055,3.253,3.253,0,0,1,1.312-.239,2.763,2.763,0,0,1,1.89.566,2.022,2.022,0,0,1,.666,1.511l-1.346.061a1.188,1.188,0,0,0-.37-.76,1.331,1.331,0,0,0-.853-.232,1.505,1.505,0,0,0-.919.248.5.5,0,0,0-.214.425.532.532,0,0,0,.2.416,3.473,3.473,0,0,0,1.237.459,6.391,6.391,0,0,1,1.453.494,1.894,1.894,0,0,1,.737.7A2.087,2.087,0,0,1,672,57.449a2.063,2.063,0,0,1-.318,1.1,1.923,1.923,0,0,1-.9.765,3.686,3.686,0,0,1-1.451.25,2.833,2.833,0,0,1-1.942-.6,2.642,2.642,0,0,1-.81-1.751" transform="translate(-652.803 -29.89)" fill="#ac002a"/>
  <path id="Path_84885" data-name="Path 84885" d="M688.012,56.06a4.47,4.47,0,0,1,.3-1.759,3.246,3.246,0,0,1,.621-.94,2.589,2.589,0,0,1,.862-.617,3.575,3.575,0,0,1,1.437-.271,3.084,3.084,0,0,1,2.358.94,4.3,4.3,0,0,1,.007,5.214,3.435,3.435,0,0,1-4.712,0,3.6,3.6,0,0,1-.878-2.57m1.387-.047a2.618,2.618,0,0,0,.523,1.766,1.764,1.764,0,0,0,2.649,0,2.673,2.673,0,0,0,.516-1.789,2.63,2.63,0,0,0-.5-1.759,1.826,1.826,0,0,0-2.676.007,2.639,2.639,0,0,0-.509,1.771" transform="translate(-665.163 -29.89)" fill="#ac002a"/>
  <path id="Path_84886" data-name="Path 84886" d="M724.307,57.742l1.237-.154a1.22,1.22,0,0,0,.318.744.883.883,0,0,0,1.294-.052,1.218,1.218,0,0,0,.271-.833,1.136,1.136,0,0,0-.259-.786.815.815,0,0,0-.632-.29,2.178,2.178,0,0,0-.587.1l.141-1.071a1.1,1.1,0,0,0,.791-.231.836.836,0,0,0,.273-.653.759.759,0,0,0-.2-.552.708.708,0,0,0-.532-.206.757.757,0,0,0-.559.234,1.116,1.116,0,0,0-.282.683l-1.178-.206a2.743,2.743,0,0,1,.371-.994,1.683,1.683,0,0,1,.691-.585,2.274,2.274,0,0,1,.994-.213,1.954,1.954,0,0,1,1.51.617,1.635,1.635,0,0,1,.469,1.141,1.617,1.617,0,0,1-.96,1.441,1.545,1.545,0,0,1,.917.566,1.674,1.674,0,0,1,.344,1.062,2.087,2.087,0,0,1-.641,1.539,2.345,2.345,0,0,1-3.1.1,2.125,2.125,0,0,1-.691-1.4" transform="translate(-686.091 -30.006)" fill="#ac002a"/>
  <path id="Path_84887" data-name="Path 84887" d="M746.985,59.562h-1.278V54.608a4.384,4.384,0,0,1-1.651,1V54.412a3.677,3.677,0,0,0,1.087-.638,2.425,2.425,0,0,0,.805-1.1h1.037Z" transform="translate(-697.479 -30.005)" fill="#ac002a"/>
  <path id="Path_84888" data-name="Path 84888" d="M764.239,52.676a1.8,1.8,0,0,1,1.514.711,4.636,4.636,0,0,1,.65,2.793,4.649,4.649,0,0,1-.655,2.8,1.8,1.8,0,0,1-1.509.7,1.89,1.89,0,0,1-1.569-.769,4.65,4.65,0,0,1-.6-2.744,4.629,4.629,0,0,1,.655-2.788,1.8,1.8,0,0,1,1.51-.7m0,1.09a.628.628,0,0,0-.414.152,1.032,1.032,0,0,0-.282.545,11.467,11.467,0,0,0-.014,3.375,1.178,1.178,0,0,0,.3.6.64.64,0,0,0,.826,0,1.033,1.033,0,0,0,.282-.545,11.437,11.437,0,0,0,.013-3.37,1.2,1.2,0,0,0-.3-.6.62.62,0,0,0-.412-.152" transform="translate(-707.868 -30.006)" fill="#ac002a"/>
  <path id="Path_84889" data-name="Path 84889" d="M783.075,52.676a1.8,1.8,0,0,1,1.514.711,4.639,4.639,0,0,1,.65,2.793,4.648,4.648,0,0,1-.655,2.8,1.8,1.8,0,0,1-1.51.7,1.889,1.889,0,0,1-1.569-.769,4.651,4.651,0,0,1-.6-2.744,4.629,4.629,0,0,1,.655-2.788,1.8,1.8,0,0,1,1.51-.7m0,1.09a.628.628,0,0,0-.414.152,1.029,1.029,0,0,0-.282.545,11.47,11.47,0,0,0-.014,3.375,1.175,1.175,0,0,0,.3.6.641.641,0,0,0,.826,0,1.035,1.035,0,0,0,.282-.545,11.44,11.44,0,0,0,.014-3.37,1.2,1.2,0,0,0-.3-.6.619.619,0,0,0-.411-.152" transform="translate(-718.73 -30.006)" fill="#ac002a"/>
  <path id="Path_84890" data-name="Path 84890" d="M801.91,52.676a1.8,1.8,0,0,1,1.514.711,4.637,4.637,0,0,1,.65,2.793,4.648,4.648,0,0,1-.655,2.8,1.8,1.8,0,0,1-1.51.7,1.89,1.89,0,0,1-1.569-.769,4.651,4.651,0,0,1-.6-2.744,4.629,4.629,0,0,1,.655-2.788,1.8,1.8,0,0,1,1.51-.7m0,1.09a.628.628,0,0,0-.414.152,1.033,1.033,0,0,0-.282.545,11.475,11.475,0,0,0-.014,3.375,1.182,1.182,0,0,0,.3.6.641.641,0,0,0,.826,0,1.033,1.033,0,0,0,.282-.545,11.44,11.44,0,0,0,.014-3.37,1.2,1.2,0,0,0-.3-.6.62.62,0,0,0-.412-.152" transform="translate(-729.59 -30.006)" fill="#ac002a"/>
</svg>
