<svg xmlns="http://www.w3.org/2000/svg" width="120" height="44" viewBox="0 0 120 44"><path d="M8.189,0h103.2a8.265,8.265,0,0,1,8.189,8.339V35.225a8.265,8.265,0,0,1-8.19,8.339H8.19A8.266,8.266,0,0,1,0,35.225V8.339A8.265,8.265,0,0,1,8.189,0Z" transform="translate(0.212 0.218)" fill="#fff"/><path d="M111.6.431a8.061,8.061,0,0,1,7.978,8.124V35.444a8.062,8.062,0,0,1-7.978,8.125H8.4A8.061,8.061,0,0,1,.423,35.444V8.555A8.061,8.061,0,0,1,8.4.431Zm0-.431H8.4A8.479,8.479,0,0,0,0,8.555V35.444A8.48,8.48,0,0,0,8.4,44H111.6a8.48,8.48,0,0,0,8.4-8.556V8.555A8.48,8.48,0,0,0,111.6,0" fill="#5c5a4b"/><path d="M234.006,20c.036-.013-.036.012,0,0" transform="translate(-134.925 -11.287)" fill="#5c5a4b"/><path d="M234.018,20h0" transform="translate(-134.937 -11.292)" fill="#5c5a4b"/><path d="M230.968,38.21h-.024a10.2,10.2,0,0,1-3.028-.459,5.208,5.208,0,0,1-2.581-2.03,14.52,14.52,0,0,1-1.9-7.136v-.009a14.534,14.534,0,0,1,1.9-7.137,5.224,5.224,0,0,1,2.581-2.03,10.415,10.415,0,0,1,6.1,0,5.234,5.234,0,0,1,2.582,2.03,14.558,14.558,0,0,1,1.9,7.137v.009a14.544,14.544,0,0,1-1.9,7.136,5.274,5.274,0,0,1-2.6,2.032,10.023,10.023,0,0,1-3.009.456Zm6.951-9.629h0a16.571,16.571,0,0,0-1.2-6.088,4.76,4.76,0,0,0-3.214-2.954,10.191,10.191,0,0,0-5.1,0,4.758,4.758,0,0,0-3.213,2.954,15.962,15.962,0,0,0,0,12.178,4.758,4.758,0,0,0,3.213,2.954,10.138,10.138,0,0,0,5.1,0,4.759,4.759,0,0,0,3.214-2.954,16.579,16.579,0,0,0,1.2-6.09" transform="translate(-128.835 -10.842)" fill="#5c5a4b"/><path d="M243.506,30.713a2.109,2.109,0,0,1-.122-.222" transform="translate(-140.339 -17.345)" fill="#5c5a4b"/><path d="M241.745,59.49c-.008-.391.363-.587.6-.845a.27.27,0,0,0,.041-.288.17.17,0,0,0-.12-.11.215.215,0,0,0-.2.041.323.323,0,0,0-.089.256l-.26.016a.524.524,0,0,1,.1-.4.58.58,0,0,1,.481-.158.472.472,0,0,1,.364.263.5.5,0,0,1-.07.517c-.152.168-.351.259-.479.449l.655-.04c.006.082.01.164.014.239Z" transform="translate(-139.371 -32.999)" fill="#5c5a4b"/><path d="M235.282,57.462l0,.014-.426,1.346-.274-.092.293-.921,0-.016c-.109-.041-.241-.078-.345-.116l.055-.175a.4.4,0,0,0,.4-.041.474.474,0,0,0,.076-.071Z" transform="translate(-135.234 -32.653)" fill="#5c5a4b"/><path d="M246.908,58.095a.358.358,0,0,0-.249-.281l-.084-.018a.322.322,0,0,0,.138-.309.35.35,0,0,0-.24-.273.617.617,0,0,0-.352,0,.641.641,0,0,0-.314.165.355.355,0,0,0-.085.357.3.3,0,0,0,.257.209l-.064.057a.364.364,0,0,0-.094.367.421.421,0,0,0,.289.31.759.759,0,0,0,.36-.005.729.729,0,0,0,.322-.169.433.433,0,0,0,.116-.412m-.9-.384a.186.186,0,0,1,.026-.214.281.281,0,0,1,.135-.077.26.26,0,0,1,.156,0,.191.191,0,0,1,.119.179.172.172,0,0,1-.056.125.3.3,0,0,1-.13.064.292.292,0,0,1-.142,0,.173.173,0,0,1-.108-.085m.572.65a.313.313,0,0,1-.163.089.306.306,0,0,1-.186,0,.218.218,0,0,1-.132-.142.223.223,0,0,1,.076-.246.491.491,0,0,1,.133-.06.422.422,0,0,1,.144-.009.211.211,0,0,1,.179.179.217.217,0,0,1-.051.189" transform="translate(-141.676 -32.54)" fill="#5c5a4b"/><path d="M238.668,59.027a.363.363,0,0,0-.155-.345l-.074-.043a.311.311,0,0,0,.218-.253.356.356,0,0,0-.149-.336.644.644,0,0,0-.337-.1.637.637,0,0,0-.346.061.353.353,0,0,0-.188.315.314.314,0,0,0,.188.277l-.079.034a.358.358,0,0,0-.2.323.429.429,0,0,0,.188.383.769.769,0,0,0,.7.044.425.425,0,0,0,.231-.357m-.747-.642a.188.188,0,0,1,.087-.2.3.3,0,0,1,.3.02.19.19,0,0,1,.063.207.177.177,0,0,1-.091.1.286.286,0,0,1-.141.02A.28.28,0,0,1,238,58.5a.168.168,0,0,1-.077-.113m.357.794a.317.317,0,0,1-.182.037.33.33,0,0,1-.177-.058.222.222,0,0,1-.084-.178.218.218,0,0,1,.142-.209.428.428,0,0,1,.145-.018.388.388,0,0,1,.141.036.224.224,0,0,1,.015.389" transform="translate(-136.974 -32.969)" fill="#5c5a4b"/><path d="M252.864,28.716l-1.274.564-.111-.271,1.272-.566Z" transform="translate(-145.006 -16.181)" fill="#5c5a4b"/><path d="M242.97,21.965l-.327-1.467.3.03c.06.364.122.776.194,1.082.132-.286.272-.677.4-1.019l.3.031-.6,1.371Z" transform="translate(-139.912 -11.663)" fill="#5c5a4b"/><path d="M229.374,25.345l-.309.57-.262-.149.354-.654-.2-.116-.5.915,1.21.7.5-.916-.2-.115-.357.656-.339-.2.312-.57Z" transform="translate(-131.735 -14.223)" fill="#5c5a4b"/><path d="M227.068,39.45a.379.379,0,0,0-.392-.206.385.385,0,0,0-.306.263.286.286,0,0,0-.234-.212.32.32,0,0,0-.339.143,3.2,3.2,0,0,0-.061.957h1.377v-.1a2.644,2.644,0,0,0-.047-.839m-.782.645h-.342c.011-.326-.04-.5.154-.522.114-.009.144.017.171.09a1.774,1.774,0,0,1,.016.432m.6,0H226.5c.007-.317-.043-.5.141-.54a.193.193,0,0,1,.19.038c.08.078.056.208.057.5" transform="translate(-130.163 -22.327)" fill="#5c5a4b"/><path d="M253.4,30.815l.22-.058.28,1.114-.223.059-.1-.412-1.114.3-.071-.29,1.113-.295Z" transform="translate(-145.534 -17.499)" fill="#5c5a4b"/><path d="M237.194,22.079a.639.639,0,0,0,.4-.209.348.348,0,0,0,.083-.295l-.159-1.021-.282.047.159,1.02a.214.214,0,0,1-.109.2.3.3,0,0,1-.126.044.331.331,0,0,1-.133,0,.2.2,0,0,1-.163-.151l-.16-1.019-.282.047.16,1.019a.341.341,0,0,0,.17.255.627.627,0,0,0,.441.068Z" transform="translate(-136.323 -11.695)" fill="#5c5a4b"/><path d="M254.33,35.146l-1.442-.3.039.289.315.059.068.511-.285.145.039.29,1.306-.691Zm-.8.45-.047-.353.6.093h0Z" transform="translate(-145.819 -19.828)" fill="#5c5a4b"/><path d="M254.364,40.028l.027,0,.032-.008.023-.009a.292.292,0,0,0,.108-.278.251.251,0,0,0-.128-.246.119.119,0,0,0-.143.034c-.157.238-.049.743-.451.831a.4.4,0,0,1-.421-.193.866.866,0,0,1,.008-.811.427.427,0,0,1,.342-.189l.018.274a.259.259,0,0,0-.211.145.448.448,0,0,0,.058.454.151.151,0,0,0,.169.012c.162-.118.129-.412.209-.61a.414.414,0,0,1,.178-.212.4.4,0,0,1,.439.075.743.743,0,0,1,.108.744.413.413,0,0,1-.366.265l-.017-.272Z" transform="translate(-146.064 -22.277)" fill="#5c5a4b"/><path d="M227.42,35.193a.68.68,0,0,0-.069-.453.334.334,0,0,0-.248-.175l-.992-.158-.045.289.992.162a.2.2,0,0,1,.146.165.343.343,0,0,1,0,.138.319.319,0,0,1-.044.129.2.2,0,0,1-.19.111l-.991-.158-.044.29.992.16a.325.325,0,0,0,.287-.087.675.675,0,0,0,.2-.409Z" transform="translate(-130.279 -19.576)" fill="#5c5a4b"/><path d="M232.723,22.214l-.253.16.3,1.477.244-.151-.073-.319.428-.269.244.212.242-.152Zm.168.923-.152-.6v0h0v0l.448.416Z" transform="translate(-134.046 -12.64)" fill="#5c5a4b"/><path d="M247.352,22.153l-.584-.252.116-.283.67.289.089-.218-.939-.4-.536,1.315.94.4.09-.218-.673-.29.149-.368.588.254Z" transform="translate(-141.944 -12.111)" fill="#5c5a4b"/><path d="M227.769,30.06a.315.315,0,0,0-.084-.256.4.4,0,0,0-.316-.11c-.309.049-.351.412-.522.99l1.328.408.085-.286-.526-.16-.02-.007a1.743,1.743,0,0,1,.112-.334c.094-.226.446,0,.586-.025l.081-.284c-.237.013-.553-.2-.724.064m-.276.51-.348-.1c.077-.243.111-.489.277-.475a.219.219,0,0,1,.152.081c.065.082-.019.265-.08.5" transform="translate(-130.803 -16.894)" fill="#5c5a4b"/><path d="M250.417,24.017l-1.1.865.174.236.436-.341.018-.013a1.848,1.848,0,0,1,.2.29c.121.212-.263.373-.324.5l.173.235c.13-.206.487-.341.376-.64a.29.29,0,0,0,.253.081.4.4,0,0,0,.271-.2c.143-.287-.119-.534-.472-1.016m.206.887a.217.217,0,0,1-.152.079c-.105.005-.2-.172-.345-.362l.286-.226c.148.206.32.38.21.51" transform="translate(-143.759 -13.666)" fill="#5c5a4b"/><path d="M238.451,26.461a2.472,2.472,0,0,0-1.585-1.4,7.983,7.983,0,0,0-2.111-.288h-.024a7.971,7.971,0,0,0-2.112.288,2.468,2.468,0,0,0-1.585,1.4,14.4,14.4,0,0,0,0,10.817,2.466,2.466,0,0,0,1.585,1.4,8.007,8.007,0,0,0,2.112.288h.024a8.019,8.019,0,0,0,2.111-.288,2.47,2.47,0,0,0,1.585-1.4,14.4,14.4,0,0,0,0-10.817m-1.225,4.024c.019,0,.112-.02.114-.08V29.151c.167-.04.337-.1.495-.133v.755c.1-.012.144-.024.262-.043v1l-.3.046-.095.4h-1.075l-.16-.358c-.26-.025-.279-.025-.541-.045a6.036,6.036,0,0,0,.671-1.009v-.509l.485-.064V30.4c0,.042.06.085.12.085Zm-.632-4.608a.42.42,0,0,1,.531.509c-.1.348-.474.412-.779.494l-.168-.234c.064-.3.1-.645.416-.769m-.939,1.388.122.222-.307.346c-.083-.082-.091-.09-.172-.179.158-.17.174-.189.357-.389m-3.8-.471v0a.59.59,0,0,0,.315.36c-.018-.088-.093-.167-.116-.259a.678.678,0,0,1,.05-.594.561.561,0,0,1,.325-.216.714.714,0,0,0,0,.476,1.231,1.231,0,0,0,.152-.134.529.529,0,0,1,.056-.048,1.485,1.485,0,0,1,.174.921l-.047.129c-.019-.213-.054-.315-.193-.393-.019.124.06.213.077.376a.684.684,0,0,1-.139.645h-.39a1.559,1.559,0,0,1-.26-1.261m.9,1.426v.227h-.209l-.089.766a.813.813,0,0,0-.3-.179c-.053-.325-.058-.348-.086-.587h-.2v-.227c.346,0,.539,0,.889,0m-1.51,3.271h2.388V32.2l-2.388,0Zm.924-1.433a.33.33,0,0,1,.273.1c-.011.414-.011.408-.02.844h-.221v-.069c-.008-.33-.023-.546-.03-.871M232.01,35.1a.679.679,0,0,1-.169-.022.539.539,0,0,1-.337-.226l-.016-.033-.016-.043-.019-.046-.007-.072V33.323c-.011-.169-.072-.172-.205-.274l.047-.016.526-.177a.483.483,0,0,1,.1.3V34.2c0,.069.056.107.131.111.091,0,.127-.035.135-.108.006-.468-.008-.6,0-1.024a.39.39,0,0,1,.253-.317.513.513,0,0,1,.45.022c.235.114.223.585.221.968a.51.51,0,0,0-.2-.1.277.277,0,0,0-.231.047.31.31,0,0,0-.085.264c-.006.443.042.747-.174.922a.628.628,0,0,1-.405.108m.7,1.445a.438.438,0,0,1-.18-.26c-.1-.454.436-.617.561-.992a3.339,3.339,0,0,1,.555-1.784,3.6,3.6,0,0,1,.971-2.416,3.671,3.671,0,0,0-.174-.585.29.29,0,0,1-.216-.088.5.5,0,0,1-.092-.239,3.48,3.48,0,0,1-.8.793c-.055.032-.126-.036-.227-.133-.371-.3-.436-.987-1-.957-.257-.089-.246-.4-.289-.635a.4.4,0,0,1,.367-.023c.354.194.59.606.925.88a1.359,1.359,0,0,0,.252.205,2,2,0,0,0,.545-.661.52.52,0,0,1,.464-.246l.133-.164-.071-.409a2.925,2.925,0,0,1-.346-.576c.049-.234.078-.506.308-.635.152-.1.274.123.4-.016a.259.259,0,0,1,.231.059,1.212,1.212,0,0,1,.211.528,3.733,3.733,0,0,1-.232.54c-.019.038-.072.051-.108.08a.567.567,0,0,0,.094.232.524.524,0,0,0,.216.011.635.635,0,0,1,.463-.355l.4-.265c-.063-.309.13-.58.023-.887a.781.781,0,0,1-.341-.58,1.071,1.071,0,0,1,.186-.372l.014.016a2.014,2.014,0,0,1,.483.846,8.092,8.092,0,0,1,.053,1.259,4.166,4.166,0,0,1-.714.512l-.181.356c-.022.366-.127.7-.182,1.052a2.411,2.411,0,0,1,.2,1.4,1.412,1.412,0,0,1-.48.5l-.405.334c.407.461.309.984.325,1.652,0,.162.279.3.128.479-.125.207-.321.374-.288.645a.663.663,0,0,1-.564.259.05.05,0,0,1-.053-.052,2.345,2.345,0,0,1,.157-.3c.145-.229.078-.543.258-.756a8.734,8.734,0,0,1-.433-1.487l0-.034a.857.857,0,0,0,.009.675,2.85,2.85,0,0,0-.833,1.7,8.073,8.073,0,0,0-.539.926c-.043.055-.122.006-.171-.022m2.65-1.639a.7.7,0,0,1,.561.434.779.779,0,0,1-.086.72.729.729,0,0,1-.721.29.742.742,0,0,1-.468-.332c.149-.052.362-.141.4-.29a1.1,1.1,0,0,1,.261-.606.231.231,0,0,0,.049-.216m.222-.207,0-2.107c.293,0,.387,0,.691,0V34.7Zm-1.489,3.216a.7.7,0,0,1-.714.053.739.739,0,0,1-.294-.3.6.6,0,0,1-.075-.268h1.367a.66.66,0,0,1-.283.512m.936.053h-.471V37.1h-.732v-.348h.736l.231-.282c.111.135.121.145.237.282h.735V37.1h-.736Zm1.473-.3a.748.748,0,0,1-.295.3.7.7,0,0,1-.714-.053.662.662,0,0,1-.283-.512h1.367a.59.59,0,0,1-.075.268m.528-4.348c.315.32.6.61.88.9a.419.419,0,0,1,.12.437,1.349,1.349,0,0,1-.126.226.432.432,0,0,0-.145-.321c-.385-.388-1.05-.927-1.1-1.157a1.611,1.611,0,0,1-.043-.517c.112-.09.2-.168.336-.275a1.171,1.171,0,0,0,.081.713m.652-.715c.148.123.221.192.359.328.08.358-.13.562-.285.814l-.62-.609v-.354c.074-.083.1-.113.185-.2l.174.216v.6c.247-.122.186-.482.186-.794m-.147,3.214c-.073.083-.1.114-.185.2l-.174-.216v-.6c-.246.124-.186.482-.186.794-.146-.122-.219-.191-.359-.327-.079-.358.129-.563.286-.815l.619.609Zm.523-.1c-.111.09-.2.167-.337.274.01-.272.047-.551-.08-.712-.314-.319-.6-.611-.88-.9a.42.42,0,0,1-.12-.438,1.246,1.246,0,0,1,.126-.224.421.421,0,0,0,.147.32c.383.388,1.048.928,1.1,1.157a1.619,1.619,0,0,1,.042.519m.241-3.517-2.389,0V31.49H238.3Z" transform="translate(-132.609 -14.143)" fill="#5c5a4b"/><path d="M231.254,67.007v0l-.257.887h.514l-.256-.887Zm-6.124-.068c-.12-.008-.342.007-.544,0v.55a5.3,5.3,0,0,0,.58-.013c.122-.013.2-.127.2-.282a.249.249,0,0,0-.236-.255m-6.59.832c-.2-.011-.393-.011-.544-.011v.005l0,.592a5.108,5.108,0,0,0,.585-.017.265.265,0,0,0,.218-.284.284.284,0,0,0-.256-.285m-2.974,1.52h21.6V66.027h-21.6Zm2.974-.582h-.975V66.591h1a.541.541,0,0,1,.592.5.4.4,0,0,1-.309.487.552.552,0,0,1,.381.565c0,.24-.18.565-.686.565m3.851-.572a.517.517,0,0,1-.189.417.947.947,0,0,1-.631.209h-.007a.939.939,0,0,1-.63-.209.515.515,0,0,1-.192-.417V66.6h.425v1.541a.3.3,0,0,0,.2.261.431.431,0,0,0,.2.035.42.42,0,0,0,.193-.035.305.305,0,0,0,.2-.261V66.6h.427Zm3.018.573c-.1,0,.049-.842-.305-.863-.2-.014-.323-.005-.52,0l0,.865h-.429V66.589c.395,0,.62,0,.975,0,.318.017.636.148.657.5a.5.5,0,0,1-.415.577c.492.108.31.7.44,1.035Zm3.521-1.775h-1.083v.457h.944v.367h-.945v.593h1.084v.354h-1.515V66.585h1.515Zm2.846,1.775-.149-.463h-.745l-.151.463h-.422l.722-2.122h.445l.721,2.122Zm3.4-.575a.513.513,0,0,1-.192.415.929.929,0,0,1-.631.209h-.006a.939.939,0,0,1-.632-.209.524.524,0,0,1-.191-.415V66.592h.428v1.543a.3.3,0,0,0,.2.261.478.478,0,0,0,.2.034.452.452,0,0,0,.193-.034.314.314,0,0,0,.205-.261V66.592h.426Zm-16.662-.7c.149,0,.241-.1.241-.276a.23.23,0,0,0-.258-.236h-.5v.511Z" transform="translate(-124.298 -37.581)" fill="#5c5a4b"/><path d="M231.652,75.676v0l-.258.89h.515l-.257-.89Zm-7.269-.066c-.122-.01-.343,0-.544,0v.547a5.042,5.042,0,0,0,.578-.013.251.251,0,0,0,.2-.282.247.247,0,0,0-.236-.252m-8.818,2.361h21.6V74.705h-21.6Zm2.942-.587h-.4l-.7-2.122h.45c.144.53.3,1.129.446,1.574.149-.445.3-1.044.444-1.572h.445Zm3.307-1.314v.366h-.946v.594h1.083l0,.353h-1.516V75.26h1.516l0,.351h-1.082v.457Zm2.848,1.307c-.1,0,.047-.84-.307-.863-.2-.011-.322,0-.519,0l0,.863h-.429V75.256c.393,0,.621.007.975.007.317.017.636.148.656.5a.494.494,0,0,1-.413.576c.492.111.307.7.439,1.033Zm2.354.007h-.432V75.261h.432Zm2.863-1.761h-.615v1.761h-.429l0-1.761h-.617v-.347h1.664Zm2.294,1.761-.151-.463h-.744l-.149.463h-.423l.724-2.122h.443l.723,2.122Zm2.274.048c-.628,0-.87-.4-.87-.712l.4-.016a.419.419,0,0,0,.442.388c.22,0,.467-.047.467-.3,0-.452-1.241-.186-1.241-.9a.7.7,0,0,1,.8-.706c.757,0,.825.529.825.663l-.4.015c0-.172-.1-.332-.38-.332-.3,0-.421.135-.421.284,0,.381,1.247.186,1.247.9,0,.473-.358.715-.865.715" transform="translate(-124.298 -42.52)" fill="#ac002a"/><path d="M23.494,36.521l.674.177a2.381,2.381,0,0,1-.763,1.318,2.053,2.053,0,0,1-1.348.454,2.351,2.351,0,0,1-1.34-.349,2.163,2.163,0,0,1-.786-1.01,3.733,3.733,0,0,1-.269-1.421,3.23,3.23,0,0,1,.3-1.444,2.131,2.131,0,0,1,.866-.936,2.454,2.454,0,0,1,1.236-.32,2.034,2.034,0,0,1,1.286.4,2.109,2.109,0,0,1,.727,1.139l-.664.163a1.645,1.645,0,0,0-.514-.843,1.337,1.337,0,0,0-.848-.263,1.6,1.6,0,0,0-.982.292,1.546,1.546,0,0,0-.555.786,3.276,3.276,0,0,0-.16,1.018,3.353,3.353,0,0,0,.19,1.18,1.455,1.455,0,0,0,.589.753,1.606,1.606,0,0,0,.866.25,1.416,1.416,0,0,0,.959-.34,1.757,1.757,0,0,0,.532-1.008" transform="translate(-11.337 -18.786)" fill="#5c5a4b"/><path d="M38.692,38.5V33.2h3.686v.626H39.366v1.622h2.82v.622h-2.82v1.8H42.5V38.5Z" transform="translate(-22.31 -18.903)" fill="#5c5a4b"/><path d="M56.293,38.5V33.2h2.26a2.9,2.9,0,0,1,1.036.143,1.148,1.148,0,0,1,.566.5,1.549,1.549,0,0,1,.212.8,1.363,1.363,0,0,1-.351.951,1.748,1.748,0,0,1-1.085.492,1.749,1.749,0,0,1,.407.263,3.648,3.648,0,0,1,.56.7l.887,1.442h-.848l-.674-1.1q-.3-.477-.487-.73a1.557,1.557,0,0,0-.343-.354,1,1,0,0,0-.308-.141,1.984,1.984,0,0,0-.375-.025h-.782V38.5Zm.674-2.96h1.45a2.087,2.087,0,0,0,.723-.1.774.774,0,0,0,.4-.318.887.887,0,0,0,.135-.476.8.8,0,0,0-.263-.618,1.2,1.2,0,0,0-.829-.242H56.967Z" transform="translate(-32.459 -18.903)" fill="#5c5a4b"/><path d="M75.277,38.5V33.822H73.6V33.2h4.04v.626H75.951V38.5Z" transform="translate(-42.437 -18.903)" fill="#5c5a4b"/><rect width="0.674" height="5.299" transform="translate(38.713 14.294)" fill="#5c5a4b"/><path d="M102.312,38.5V33.2h3.439v.626h-2.764v1.641h2.392v.625h-2.392V38.5Z" transform="translate(-58.994 -18.903)" fill="#5c5a4b"/><rect width="0.674" height="5.299" transform="translate(50.453 14.294)" fill="#5c5a4b"/><path d="M129.99,38.5V33.2h3.686v.626h-3.011v1.622h2.82v.622h-2.82v1.8h3.129V38.5Z" transform="translate(-74.954 -18.903)" fill="#5c5a4b"/><path d="M147.566,38.5V33.2h1.756a4.105,4.105,0,0,1,.907.076,1.71,1.71,0,0,1,.748.379,2.162,2.162,0,0,1,.6.906,3.679,3.679,0,0,1,.2,1.26,3.848,3.848,0,0,1-.135,1.07,2.655,2.655,0,0,1-.348.772,1.886,1.886,0,0,1-.464.481,1.855,1.855,0,0,1-.608.266,3.376,3.376,0,0,1-.819.09Zm.674-.625h1.088a2.539,2.539,0,0,0,.791-.1,1.122,1.122,0,0,0,.457-.274,1.691,1.691,0,0,0,.373-.671,3.39,3.39,0,0,0,.134-1.021,2.55,2.55,0,0,0-.262-1.278,1.345,1.345,0,0,0-.638-.6,2.544,2.544,0,0,0-.873-.108H148.24Z" transform="translate(-85.089 -18.903)" fill="#5c5a4b"/><rect width="1.346" height="6.857" transform="translate(8.691 22.699)" fill="#ac002a"/><path d="M32.532,57.215l1.31-.131a1.661,1.661,0,0,0,.48,1,1.422,1.422,0,0,0,.975.318,1.468,1.468,0,0,0,.98-.283.849.849,0,0,0,.33-.661.635.635,0,0,0-.139-.414,1.1,1.1,0,0,0-.484-.3q-.236-.084-1.078-.3a3.608,3.608,0,0,1-1.519-.678,1.826,1.826,0,0,1,.507-3.055,3.256,3.256,0,0,1,1.312-.239,2.762,2.762,0,0,1,1.89.566,2.024,2.024,0,0,1,.666,1.511l-1.346.061a1.187,1.187,0,0,0-.371-.76,1.33,1.33,0,0,0-.853-.232,1.505,1.505,0,0,0-.919.248.5.5,0,0,0-.214.425.532.532,0,0,0,.2.416,3.474,3.474,0,0,0,1.237.459,6.379,6.379,0,0,1,1.453.494,1.894,1.894,0,0,1,.737.7,2.087,2.087,0,0,1,.266,1.093,2.063,2.063,0,0,1-.318,1.1,1.926,1.926,0,0,1-.9.765,3.685,3.685,0,0,1-1.451.25,2.833,2.833,0,0,1-1.942-.6,2.642,2.642,0,0,1-.81-1.751" transform="translate(-18.759 -29.89)" fill="#ac002a"/><path d="M53.967,56.06a4.471,4.471,0,0,1,.3-1.759,3.239,3.239,0,0,1,.621-.94,2.592,2.592,0,0,1,.862-.617,3.575,3.575,0,0,1,1.437-.271,3.086,3.086,0,0,1,2.358.94,4.3,4.3,0,0,1,.007,5.214,3.435,3.435,0,0,1-4.712,0,3.6,3.6,0,0,1-.878-2.57m1.387-.047a2.62,2.62,0,0,0,.523,1.766,1.765,1.765,0,0,0,2.65,0,2.675,2.675,0,0,0,.516-1.789,2.63,2.63,0,0,0-.5-1.759,1.827,1.827,0,0,0-2.677.007,2.642,2.642,0,0,0-.509,1.771" transform="translate(-31.118 -29.89)" fill="#ac002a"/><path d="M130.195,52.676a1.8,1.8,0,0,1,1.514.711,4.64,4.64,0,0,1,.65,2.793,4.648,4.648,0,0,1-.655,2.8,1.8,1.8,0,0,1-1.51.7,1.889,1.889,0,0,1-1.569-.769,4.65,4.65,0,0,1-.6-2.744,4.629,4.629,0,0,1,.655-2.788,1.8,1.8,0,0,1,1.51-.7m0,1.09a.628.628,0,0,0-.414.152,1.032,1.032,0,0,0-.282.545,11.468,11.468,0,0,0-.014,3.375,1.175,1.175,0,0,0,.3.6.64.64,0,0,0,.826,0,1.032,1.032,0,0,0,.282-.545,11.437,11.437,0,0,0,.014-3.37,1.2,1.2,0,0,0-.3-.6.618.618,0,0,0-.412-.152" transform="translate(-81.03 -29.676)" fill="#ac002a"/><path d="M149.03,52.676a1.8,1.8,0,0,1,1.514.711,4.64,4.64,0,0,1,.65,2.793,4.648,4.648,0,0,1-.655,2.8,1.8,1.8,0,0,1-1.509.7,1.889,1.889,0,0,1-1.569-.769,4.65,4.65,0,0,1-.6-2.744,4.629,4.629,0,0,1,.655-2.788,1.8,1.8,0,0,1,1.51-.7m0,1.09a.628.628,0,0,0-.414.152,1.032,1.032,0,0,0-.282.545,11.47,11.47,0,0,0-.014,3.375,1.171,1.171,0,0,0,.3.6.622.622,0,0,0,.412.15.628.628,0,0,0,.414-.152,1.033,1.033,0,0,0,.282-.545,11.437,11.437,0,0,0,.014-3.37,1.2,1.2,0,0,0-.3-.6.618.618,0,0,0-.411-.152" transform="translate(-90.865 -29.676)" fill="#ac002a"/><path d="M169.446,59.562h-1.278V54.608a4.377,4.377,0,0,1-1.651,1V54.412a3.672,3.672,0,0,0,1.087-.638,2.426,2.426,0,0,0,.805-1.1h1.037Z" transform="translate(-102.517 -29.676)" fill="#ac002a"/><path d="M1416.37,58.454l1.181-.134a.89.89,0,0,0,.226.549.66.66,0,0,0,.482.179.781.781,0,0,0,.643-.357,3.111,3.111,0,0,0,.339-1.482,1.441,1.441,0,0,1-1.151.549,1.7,1.7,0,0,1-1.3-.6,2.21,2.21,0,0,1-.545-1.551,2.244,2.244,0,0,1,.576-1.605,1.926,1.926,0,0,1,1.465-.609,1.952,1.952,0,0,1,1.589.77,4.065,4.065,0,0,1,.621,2.534,4.115,4.115,0,0,1-.647,2.59,2.07,2.07,0,0,1-1.684.795,1.751,1.751,0,0,1-1.208-.408,1.99,1.99,0,0,1-.59-1.221m2.761-2.741a1.459,1.459,0,0,0-.271-.942.793.793,0,0,0-.627-.335.7.7,0,0,0-.562.275,1.43,1.43,0,0,0-.224.9,1.457,1.457,0,0,0,.243.931.764.764,0,0,0,1.2.012,1.274,1.274,0,0,0,.24-.84" transform="translate(-1377.248 -30.395)" fill="#ac002a"/></svg>