<svg xmlns="http://www.w3.org/2000/svg" width="102.308" height="76" viewBox="0 0 102.308 76">
  <path id="Path_16221" data-name="Path 16221" d="M147.276-497.248Q135.74-493.6,128.909-486.3T123.6-467.456a46.868,46.868,0,0,0,9.411,5.624,96.424,96.424,0,0,0,10.625,4.408,18.583,18.583,0,0,1,0,9.424,22.2,22.2,0,0,1-3.947,8.056,24.649,24.649,0,0,1-6.375,5.776,15.871,15.871,0,0,1-6.679,2.584,31.248,31.248,0,0,1-18.519-7.9q-7.893-6.992-7.893-20.064a47.026,47.026,0,0,1,2.58-15.2,47.156,47.156,0,0,1,7.741-14.136A51.843,51.843,0,0,1,123.6-500.44a54.016,54.016,0,0,1,18.822-7.144Zm-55.252,0Q80.487-493.6,73.657-486.3t-5.313,18.848a46.867,46.867,0,0,0,9.411,5.624,96.424,96.424,0,0,0,10.625,4.408,18.583,18.583,0,0,1,0,9.424,22.2,22.2,0,0,1-3.947,8.056,24.649,24.649,0,0,1-6.375,5.776,15.871,15.871,0,0,1-6.679,2.584,31.248,31.248,0,0,1-18.519-7.9q-7.893-6.992-7.893-20.064a47.026,47.026,0,0,1,2.58-15.2,47.156,47.156,0,0,1,7.741-14.136A51.842,51.842,0,0,1,68.344-500.44a54.016,54.016,0,0,1,18.822-7.144Z" transform="translate(-44.968 507.584)" fill="#f2f3f3"/>
</svg>
