<svg xmlns="http://www.w3.org/2000/svg" width="139.121" height="139.122" viewBox="0 0 139.121 139.122">
  <g id="smaile-icon" transform="translate(-591.439 -9704.439)">
    <circle id="Ellipse_15" data-name="Ellipse 15" cx="58" cy="58" r="58" transform="translate(591.439 9730.534) rotate(-13)" fill="#fdb933"/>
    <g id="emoticon-square-smiling-face-with-closed-eyes" transform="translate(633.336 9756.415) rotate(-13)">
      <path id="Path_17798" data-name="Path 17798" d="M29.062,9.086a8.7,8.7,0,0,1,17.4,0,2.5,2.5,0,0,1-5,0,3.7,3.7,0,0,0-7.4,0,2.5,2.5,0,1,1-5,0ZM1.339,9.059a8.7,8.7,0,0,1,17.4,0,2.5,2.5,0,0,1-5,0,3.7,3.7,0,0,0-7.4,0,2.5,2.5,0,1,1-5,0ZM.23,31.41a3,3,0,1,1,5.541-2.3c2.777,6.685,9.655,11,17.523,11A18.764,18.764,0,0,0,40.715,29.1a3,3,0,1,1,5.506,2.381A24.753,24.753,0,0,1,23.294,46.112C12.993,46.113,3.94,40.342.23,31.41Z"/>
    </g>
  </g>
</svg>
