<svg xmlns="http://www.w3.org/2000/svg" width="80.392" height="12.774" viewBox="0 0 80.392 12.774"><defs><style>.a{fill:#b1005f;}</style></defs><path class="a" d="M38.575,366.509a42.248,42.248,0,0,1,24.109-7.254A97.994,97.994,0,0,1,78.3,360.343l1.177.139c6.14.921,12.279,1.925,18.475,2.372,1.682.139,5.943.474,10.2.5a43.855,43.855,0,0,0,8.326-.949,1.038,1.038,0,0,1,1.318.754h0s.252.7-.757,1.255a41.984,41.984,0,0,1-18.9,7.142c-1.262.167-2.551.279-3.813.362a91.759,91.759,0,0,1-17.465-1l-1.177-.139c-6.14-.921-12.279-1.925-18.475-2.371l-4.373-.307a41.774,41.774,0,0,0-14.157.7,1.06,1.06,0,0,1-1.205-.67,1.1,1.1,0,0,1,.617-1.255Z" transform="translate(-37.436 -359.238)"/></svg>