<svg xmlns="http://www.w3.org/2000/svg" width="120" height="38" viewBox="0 0 120 38"><defs><style>.a{fill:#b1005f;}.b{fill:#073164;}</style></defs><g transform="translate(-188 -30)"><g transform="translate(188 30)"><path class="a" d="M70.773,30.193a14.194,14.194,0,0,1-4.987-.9.355.355,0,0,0-.368.188.346.346,0,0,0,.075.385,16.217,16.217,0,0,0,16.755-.094A16.091,16.091,0,0,0,65.55,2.262a.329.329,0,0,0,.283.591,14.208,14.208,0,0,1,19.1,12.282,14.07,14.07,0,0,1-3.794,10.59,14.212,14.212,0,0,1-10.366,4.469" transform="translate(-59.223 -0.011)"/><path class="a" d="M37.819,361.684a14.208,14.208,0,0,1,8.108-2.439,32.956,32.956,0,0,1,5.251.366l.4.047c2.065.31,4.129.647,6.213.8.566.047,2,.159,3.432.169a14.748,14.748,0,0,0,2.8-.319.349.349,0,0,1,.443.253h0s.085.235-.255.422a14.119,14.119,0,0,1-6.354,2.4c-.424.056-.858.094-1.282.122a30.858,30.858,0,0,1-5.874-.338l-.4-.047c-2.065-.31-4.129-.647-6.213-.8l-1.471-.1a14.048,14.048,0,0,0-4.761.235.357.357,0,0,1-.405-.225.371.371,0,0,1,.207-.422Z" transform="translate(-33.905 -325.534)"/><path class="a" d="M15.26,76.741A10.951,10.951,0,0,1,2.283,73.447a10.823,10.823,0,0,1-.006-13.328A10.951,10.951,0,0,1,15.25,56.813a.333.333,0,1,1-.189.638A9.629,9.629,0,0,0,5.035,61.409a9.522,9.522,0,0,0-.011,10.735,9.629,9.629,0,0,0,10.019,3.978.33.33,0,0,1,.424.244A.328.328,0,0,1,15.26,76.741Z" transform="translate(0.015 -50.669)"/><g transform="translate(37.044 5.703)"><path class="b" d="M817.773,60.8h-1a.273.273,0,0,0-.273.272v8.66a.273.273,0,0,0,.273.272h1a.273.273,0,0,0,.273-.272v-8.66A.273.273,0,0,0,817.773,60.8Z" transform="translate(-776.563 -60.8)"/><path class="b" d="M393.362,91.791l.066.113c1.1,1.717,3.847,1.6,3.847,1.6h1.593m0,0H401.2c.141.019,2.2.019,2.338.019h.5c2.5,0,2.329-2.712,2.329-2.712v-2.5a.273.273,0,0,0-.273-.272h-1a.273.273,0,0,0-.273.272v2.4a1.211,1.211,0,0,1-1.386,1.267l-3.545-.019a.254.254,0,0,1-.255-.253V90.083a3.363,3.363,0,1,0-6.27,1.708m3.177-3.509a1.863,1.863,0,0,1,1.556,1.858v1.379a.423.423,0,0,1-.424.422l-1.386-.028h-.009a1.821,1.821,0,1,1,.264-3.622Z" transform="translate(-392.9 -84.313)"/><path class="b" d="M666.787,62.611h.745a.386.386,0,0,0,.387-.385v-.741a.386.386,0,0,0-.387-.385h-.745a.386.386,0,0,0-.387.385v.741A.386.386,0,0,0,666.787,62.611Z" transform="translate(-640.615 -61.072)"/><path class="b" d="M406.686,62.611h.745a.386.386,0,0,0,.387-.385v-.741a.386.386,0,0,0-.387-.385h-.745a.386.386,0,0,0-.387.385v.741A.386.386,0,0,0,406.686,62.611Z" transform="translate(-405.037 -61.072)"/><path class="b" d="M431.887,62.611h.745a.386.386,0,0,0,.387-.385v-.741a.386.386,0,0,0-.387-.385h-.745a.386.386,0,0,0-.387.385v.741A.386.386,0,0,0,431.887,62.611Z" transform="translate(-427.861 -61.072)"/><path class="b" d="M598.131,177.2h-.745a.386.386,0,0,0-.386.385v.741a.386.386,0,0,0,.386.385h.745a.386.386,0,0,0,.387-.385v-.741A.386.386,0,0,0,598.131,177.2Z" transform="translate(-577.758 -166.279)"/><path class="b" d="M623.331,177.2h-.745a.386.386,0,0,0-.386.385v.741a.386.386,0,0,0,.386.385h.745a.386.386,0,0,0,.387-.385v-.741A.386.386,0,0,0,623.331,177.2Z" transform="translate(-600.582 -166.279)"/><path class="b" d="M469.131,177.2h-.745a.386.386,0,0,0-.387.385v.741a.386.386,0,0,0,.387.385h.745a.386.386,0,0,0,.387-.385v-.741A.386.386,0,0,0,469.131,177.2Z" transform="translate(-460.92 -166.279)"/><path class="b" d="M494.331,177.2h-.745a.386.386,0,0,0-.387.385v.741a.386.386,0,0,0,.387.385h.745a.386.386,0,0,0,.387-.385v-.741A.386.386,0,0,0,494.331,177.2Z" transform="translate(-483.744 -166.279)"/><g transform="translate(0.085 18.679)"><path class="b" d="M400.049,267.962l-.707-.638a.265.265,0,0,0-.292-.047,3.354,3.354,0,0,1-.66.235,4.051,4.051,0,0,1-.971.113,3.779,3.779,0,0,1-1.527-.291,3.329,3.329,0,0,1-1.131-.8,3.488,3.488,0,0,1-.717-1.191,4.29,4.29,0,0,1-.245-1.464,4.43,4.43,0,0,1,.245-1.492,3.573,3.573,0,0,1,.717-1.21,3.262,3.262,0,0,1,1.131-.807,4.129,4.129,0,0,1,3.055,0,3.269,3.269,0,0,1,1.131.807,3.571,3.571,0,0,1,.717,1.21,4.428,4.428,0,0,1,.245,1.492,4.233,4.233,0,0,1-.245,1.464,3.655,3.655,0,0,1-.566,1.013.252.252,0,0,0,.038.347l.528.469a.253.253,0,0,1,.009.375l-.387.4A.274.274,0,0,1,400.049,267.962Zm-1.725-3,.4.366a.274.274,0,0,0,.424-.075,2.55,2.55,0,0,0,.151-.385,3.382,3.382,0,0,0,.122-.976,3.863,3.863,0,0,0-.1-.919,2.415,2.415,0,0,0-.349-.8,1.742,1.742,0,0,0-.622-.554,2.187,2.187,0,0,0-1.857,0,1.742,1.742,0,0,0-.622.554,2.4,2.4,0,0,0-.349.8,3.86,3.86,0,0,0-.1.919,3.593,3.593,0,0,0,.1.873,2.358,2.358,0,0,0,.349.769,1.76,1.76,0,0,0,.622.554,1.922,1.922,0,0,0,.933.206h.368a.426.426,0,0,0,.283-.094l-.49-.441a.252.252,0,0,1-.019-.375l.387-.4a.274.274,0,0,1,.368-.009Z" transform="translate(-393.798 -260.06)"/><path class="b" d="M478.085,260h1.292a.264.264,0,0,1,.245.178l2.555,6.971a.272.272,0,0,1-.245.366h-1.112a.264.264,0,0,1-.255-.188l-.434-1.3a.264.264,0,0,0-.255-.188H477.51a.264.264,0,0,0-.255.178l-.453,1.314a.264.264,0,0,1-.255.178h-1.065a.274.274,0,0,1-.216-.121.271.271,0,0,1-.029-.245l2.593-6.971A.264.264,0,0,1,478.085,260Zm.038,4.616h1.16a.274.274,0,0,0,.218-.114.271.271,0,0,0,.037-.242l-.811-2.4h-.019l-.83,2.392a.272.272,0,0,0,.245.366Z" transform="translate(-467.545 -259.988)"/><path class="b" d="M544.942,261.557h-1.678a.273.273,0,0,1-.264-.272v-1.013a.273.273,0,0,1,.264-.272h5.506a.273.273,0,0,1,.264.272v1.013a.273.273,0,0,1-.264.272H547.1a.273.273,0,0,0-.264.272v5.423a.273.273,0,0,1-.264.272h-1.094a.273.273,0,0,1-.264-.272V261.83A.273.273,0,0,0,544.942,261.557Z" transform="translate(-528.933 -259.989)"/><path class="b" d="M603.776,260h1.292a.264.264,0,0,1,.245.178l2.555,6.971a.272.272,0,0,1-.245.366h-1.1a.263.263,0,0,1-.254-.188l-.434-1.295a.264.264,0,0,0-.255-.188H603.2a.264.264,0,0,0-.255.178l-.452,1.314a.264.264,0,0,1-.255.178h-1.056a.272.272,0,0,1-.245-.366l2.593-6.971A.264.264,0,0,1,603.776,260Zm.038,4.616h1.16a.274.274,0,0,0,.218-.114.271.271,0,0,0,.037-.242l-.811-2.4H604.4l-.83,2.392a.272.272,0,0,0,.245.366Z" transform="translate(-581.394 -259.989)"/><path class="b" d="M689.085,267.263v-.047a3.524,3.524,0,0,1-.085-.479q-.028-.244-.038-.488t-.019-.422a4.5,4.5,0,0,0-.075-.563,2.035,2.035,0,0,0-.179-.525,1.409,1.409,0,0,0-.321-.413,1.246,1.246,0,0,0-.5-.253v-.019a1.724,1.724,0,0,0,.9-.741,2.3,2.3,0,0,0,.273-1.145,2.157,2.157,0,0,0-.151-.8,1.931,1.931,0,0,0-.434-.666,2.055,2.055,0,0,0-.679-.45,2.329,2.329,0,0,0-.9-.16h-3.715a.273.273,0,0,0-.264.272v6.971a.273.273,0,0,0,.264.272h1.084a.273.273,0,0,0,.264-.272v-2.4a.273.273,0,0,1,.264-.272h1.358a1.185,1.185,0,0,1,.877.272,1.531,1.531,0,0,1,.349.863q.028.225.047.469l.038.488q.028.235.066.45t.047.2a.264.264,0,0,0,.255.2h1.018a.274.274,0,0,0,.208-.109A.271.271,0,0,0,689.085,267.263Zm-1.961-3.987a1.31,1.31,0,0,1-.83.225h-1.508a.254.254,0,0,1-.264-.235v-1.389a.254.254,0,0,1,.264-.235h1.508a1.351,1.351,0,0,1,.83.216.818.818,0,0,1,.283.694.807.807,0,0,1-.283.713Z" transform="translate(-655.644 -260.075)"/><path class="b" d="M794.438,262.484a.264.264,0,0,1-.255-.188,1.26,1.26,0,0,0-.141-.31,1.619,1.619,0,0,0-.358-.394,1.68,1.68,0,0,0-.49-.263,1.726,1.726,0,0,0-.575-.094,1.932,1.932,0,0,0-.933.206,1.742,1.742,0,0,0-.622.554,2.4,2.4,0,0,0-.349.788,3.844,3.844,0,0,0-.1.919,3.567,3.567,0,0,0,.1.882,2.35,2.35,0,0,0,.349.769,1.753,1.753,0,0,0,.622.544,1.931,1.931,0,0,0,.933.206,1.5,1.5,0,0,0,1.16-.45,1.959,1.959,0,0,0,.481-.957.264.264,0,0,1,.255-.206h1.037a.263.263,0,0,1,.264.3,3.434,3.434,0,0,1-.283.91,2.928,2.928,0,0,1-.679.929,2.972,2.972,0,0,1-.99.591,3.636,3.636,0,0,1-1.245.206,3.8,3.8,0,0,1-1.527-.291,3.328,3.328,0,0,1-1.131-.8,3.468,3.468,0,0,1-.716-1.192,4.256,4.256,0,0,1-.245-1.464,4.4,4.4,0,0,1,.245-1.492,3.562,3.562,0,0,1,.716-1.21,3.261,3.261,0,0,1,1.131-.807,4.063,4.063,0,0,1,2.678-.122,3.146,3.146,0,0,1,.971.5,2.71,2.71,0,0,1,1.009,1.6.262.262,0,0,1-.058.217.264.264,0,0,1-.206.093Z" transform="translate(-751.739 -259.884)"/><path class="b" d="M873.764,260h1.084a.273.273,0,0,1,.264.272v2.346a.273.273,0,0,0,.264.272h2.451a.273.273,0,0,0,.264-.272v-2.346a.273.273,0,0,1,.264-.272h1.084a.273.273,0,0,1,.264.272v6.971a.273.273,0,0,1-.264.272h-1.075a.273.273,0,0,1-.264-.272V264.55a.273.273,0,0,0-.264-.272h-2.451a.273.273,0,0,0-.264.272v2.7a.273.273,0,0,1-.264.272h-1.094a.273.273,0,0,1-.264-.272v-6.98A.273.273,0,0,1,873.764,260Z" transform="translate(-828.274 -259.989)"/><path class="b" d="M950.476,260h1.292a.264.264,0,0,1,.245.178l2.555,6.971a.272.272,0,0,1-.245.366h-1.1a.264.264,0,0,1-.255-.188l-.434-1.3a.264.264,0,0,0-.255-.188H949.9a.264.264,0,0,0-.255.178l-.452,1.314a.264.264,0,0,1-.255.178h-1.056a.272.272,0,0,1-.245-.366l2.593-6.971A.264.264,0,0,1,950.476,260Zm.038,4.616h1.16a.274.274,0,0,0,.218-.114.271.271,0,0,0,.037-.242l-.811-2.4H951.1l-.83,2.392a.272.272,0,0,0,.245.366Z" transform="translate(-895.407 -259.989)"/><path class="b" d="M1035.875,267.263v-.047a3.5,3.5,0,0,1-.085-.479q-.029-.244-.038-.488t-.019-.422a4.527,4.527,0,0,0-.075-.563,2.023,2.023,0,0,0-.179-.525,1.405,1.405,0,0,0-.321-.413,1.247,1.247,0,0,0-.5-.253v-.019a1.723,1.723,0,0,0,.9-.741,2.3,2.3,0,0,0,.273-1.145,2.157,2.157,0,0,0-.151-.8,1.932,1.932,0,0,0-.434-.666,2.055,2.055,0,0,0-.679-.45,2.327,2.327,0,0,0-.9-.16h-3.705a.273.273,0,0,0-.264.272v6.971a.272.272,0,0,0,.264.272h1.084a.273.273,0,0,0,.264-.272v-2.4a.273.273,0,0,1,.264-.272h1.358a1.186,1.186,0,0,1,.877.272,1.532,1.532,0,0,1,.349.863q.029.225.047.469t.038.488q.028.235.066.45c.025.144.041.21.047.2a.264.264,0,0,0,.255.2h1.018a.274.274,0,0,0,.2-.112A.271.271,0,0,0,1035.875,267.263Zm-1.961-3.987a1.31,1.31,0,0,1-.83.225h-1.508a.254.254,0,0,1-.264-.235v-1.389a.254.254,0,0,1,.264-.235h1.508a1.352,1.352,0,0,1,.83.216.818.818,0,0,1,.283.694.841.841,0,0,1-.283.713Z" transform="translate(-969.747 -260.075)"/><path class="b" d="M1108.954,260h1.094a.273.273,0,0,1,.264.272v6.971a.273.273,0,0,1-.264.272h-1.084a.272.272,0,0,1-.264-.272v-6.971A.273.273,0,0,1,1108.954,260Z" transform="translate(-1041.299 -259.989)"/><path class="b" d="M1136.742,261.557h-1.678a.272.272,0,0,1-.264-.272v-1.013a.273.273,0,0,1,.264-.272h5.506a.273.273,0,0,1,.264.272v1.013a.273.273,0,0,1-.264.272h-1.678a.273.273,0,0,0-.264.272v5.423a.273.273,0,0,1-.264.272h-1.094a.273.273,0,0,1-.264-.272V261.83A.273.273,0,0,0,1136.742,261.557Z" transform="translate(-1064.939 -259.989)"/><path class="b" d="M1203.853,264.622l-2.432-4.109a.272.272,0,0,1,.226-.413h1.207a.264.264,0,0,1,.226.131l1.414,2.439a.264.264,0,0,0,.462,0l1.4-2.439a.264.264,0,0,1,.226-.131h1.178a.272.272,0,0,1,.226.413l-2.451,4.156a.282.282,0,0,0-.038.141v2.533a.273.273,0,0,1-.264.272h-1.084a.273.273,0,0,1-.264-.272v-2.58A.282.282,0,0,0,1203.853,264.622Z" transform="translate(-1125.243 -260.08)"/></g><g transform="translate(43.349 0)"><path class="b" d="M888.533,63.477a3.356,3.356,0,0,0-2.451,5.16h-3.008a.473.473,0,0,1-.34-.144.468.468,0,0,1-.131-.344,3.905,3.905,0,0,0-.415-1.989,3.859,3.859,0,0,0-2.668-1.9,4.792,4.792,0,0,0-3.158.375,10.323,10.323,0,0,0-2.564,1.708c-.226.206-.443.4-.651.61V61.319a.32.32,0,0,0-.321-.319h-.905a.32.32,0,0,0-.321.319v7.056a.254.254,0,0,1-.254.253H857.713a.273.273,0,0,1-.273-.272V65.147a.273.273,0,0,0-.273-.272h-1a.273.273,0,0,0-.273.272v3.265h0a4.262,4.262,0,0,1-.971,2.768,2.784,2.784,0,0,1-2.036.751.16.16,0,0,0-.16.15L852.7,73.31a.151.151,0,0,0,.151.16h0a4.289,4.289,0,0,0,3.177-1.21,5.076,5.076,0,0,0,1.188-2.111h31.706l2.951.066a.433.433,0,0,0,.434-.432V66.817a3.361,3.361,0,0,0-1.134-2.51A3.4,3.4,0,0,0,888.533,63.477ZM881.066,68.1a.564.564,0,0,1-.575.544h-6.8a15.112,15.112,0,0,1,1.141-1.135c1.131-1,2.8-2.111,4.327-1.736a2.107,2.107,0,0,1,1.9,2.317Zm9.692.15a.423.423,0,0,1-.434.422l-1.386-.028h-.019a1.822,1.822,0,1,1,1.838-1.792Z" transform="translate(-852.697 -60.981)"/><rect class="b" width="1.527" height="1.52" rx="0.76" transform="translate(34.054)"/><rect class="b" width="1.527" height="1.52" rx="0.76" transform="translate(36.439)"/></g><path class="b" d="M548.532,65.572h1.65a3.514,3.514,0,0,1,2.677.779,3.127,3.127,0,0,1,.754,1.182,7.013,7.013,0,0,0,.537,1.023h-8.608a.3.3,0,0,1-.3-.3V64.963a.3.3,0,0,0-.3-.3H544a.3.3,0,0,0-.3.3v3.331a.263.263,0,0,1-.264.263H540.6a.273.273,0,0,1-.273-.272V65.075a.273.273,0,0,0-.273-.272h-.99a.273.273,0,0,0-.273.272V68.34h0a4.262,4.262,0,0,1-.971,2.768,2.785,2.785,0,0,1-2.036.751.16.16,0,0,0-.16.15l-.028,1.229a.15.15,0,0,0,.151.16h0a4.288,4.288,0,0,0,3.177-1.21,5.078,5.078,0,0,0,1.188-2.111H560.2a.3.3,0,0,0,.3-.3V61.2a.3.3,0,0,0-.3-.3h-.943a.3.3,0,0,0-.3.3v7.056a.3.3,0,0,1-.3.3h-1.952a1.9,1.9,0,0,1-.9-.4,3.248,3.248,0,0,1-.783-1.238,4.53,4.53,0,0,0-1.216-1.773,5.322,5.322,0,0,0-2.9-1.051,20.463,20.463,0,0,0-2.63-.038.282.282,0,0,0-.264.291v.882S547.948,65.61,548.532,65.572Z" transform="translate(-522.144 -60.891)"/></g></g></g></svg>