<svg xmlns="http://www.w3.org/2000/svg" xmlns:xlink="http://www.w3.org/1999/xlink" width="59" height="59" viewBox="0 0 59 59"><defs><filter id="a" x="0" y="0" width="59" height="59" filterUnits="userSpaceOnUse"><feOffset dy="2" input="SourceAlpha"/><feGaussianBlur stdDeviation="2.5" result="b"/><feFlood flood-opacity="0.2"/><feComposite operator="in" in2="b"/><feComposite in="SourceGraphic"/></filter></defs><g transform="translate(7.677 5.5)"><g transform="matrix(1, 0, 0, 1, -7.68, -5.5)" filter="url(#a)"><circle cx="22" cy="22" r="22" transform="translate(7.5 5.5)" fill="#fff"/></g><path d="M16.393,59.016a6.715,6.715,0,0,1-1.931.53,3.377,3.377,0,0,0,1.478-1.859A6.779,6.779,0,0,1,13.8,58.5a3.365,3.365,0,0,0-5.73,3.066,9.547,9.547,0,0,1-6.93-3.513,3.367,3.367,0,0,0,1.041,4.488,3.363,3.363,0,0,1-1.523-.422v.042a3.366,3.366,0,0,0,2.7,3.3,3.406,3.406,0,0,1-.886.118,3.228,3.228,0,0,1-.633-.062,3.364,3.364,0,0,0,3.14,2.335A6.747,6.747,0,0,1,.8,69.289a7.145,7.145,0,0,1-.8-.046,9.5,9.5,0,0,0,5.154,1.513,9.5,9.5,0,0,0,9.567-9.567l-.011-.435A6.715,6.715,0,0,0,16.393,59.016Z" transform="translate(14.212 -41.963)"/></g></svg>