<svg xmlns="http://www.w3.org/2000/svg" width="48" height="42.677" viewBox="0 0 48 42.677">
  <path id="money" d="M43.355,37.661H29.419a1.548,1.548,0,0,0,0,3.1h6.3A10.863,10.863,0,0,0,44.9,49.937V57.9a10.863,10.863,0,0,0-9.179,9.179H12.276A10.863,10.863,0,0,0,3.1,57.9V49.937a10.863,10.863,0,0,0,9.179-9.179h6.3a1.548,1.548,0,0,0,0-3.1H4.645A4.65,4.65,0,0,0,0,42.306V65.532a4.65,4.65,0,0,0,4.645,4.645h38.71A4.65,4.65,0,0,0,48,65.532V42.306A4.65,4.65,0,0,0,43.355,37.661Zm-4.489,3.1h4.489A1.55,1.55,0,0,1,44.9,42.306V46.8A7.765,7.765,0,0,1,38.865,40.758Zm-34.22,0H9.135A7.765,7.765,0,0,1,3.1,46.8V42.306A1.55,1.55,0,0,1,4.645,40.758ZM3.1,65.532V61.043a7.765,7.765,0,0,1,6.038,6.038H4.645A1.55,1.55,0,0,1,3.1,65.532Zm40.258,1.548H38.865A7.765,7.765,0,0,1,44.9,61.043v4.489A1.55,1.55,0,0,1,43.355,67.081ZM15.484,53.919A8.516,8.516,0,1,0,24,45.4,8.526,8.526,0,0,0,15.484,53.919Zm13.935,0A5.419,5.419,0,1,1,24,48.5,5.425,5.425,0,0,1,29.419,53.919ZM11.613,52.371a1.548,1.548,0,1,1,0,3.1h-.774a1.548,1.548,0,1,1,0-3.1Zm24.774,3.1a1.548,1.548,0,1,1,0-3.1h.774a1.548,1.548,0,0,1,0,3.1ZM19.712,33.337a1.548,1.548,0,0,1,0-2.19l3.194-3.194a1.548,1.548,0,0,1,2.19,0l3.194,3.194a1.548,1.548,0,0,1-2.19,2.19l-.55-.55v7.391a1.548,1.548,0,1,1-3.1,0V32.786l-.55.55A1.548,1.548,0,0,1,19.712,33.337Z" transform="translate(0 -27.5)" fill="#121212"/>
</svg>
