<svg xmlns="http://www.w3.org/2000/svg" width="48.316" height="48.307" viewBox="0 0 48.316 48.307">
  <path id="food-and-drink" d="M48,20.235l-4.7-2.3a17.164,17.164,0,0,0-2.342-8.088L40.8,9.582A9.747,9.747,0,0,1,39.465,4.66V4.249H41.34V.5h-16.4V4.249h1.874v.215a9.727,9.727,0,0,1-1.493,5.182,17.127,17.127,0,0,0-2.607,8.219l-.556.308A51.533,51.533,0,0,0,15.736,5.831C11.612.317,8.235.055,6.129.807a6.262,6.262,0,0,0-3.562,3.35C1.043,7.385,1.3,12.5,3.281,18.675L0,20.211,1.395,37,.008,42.636v.227a5.63,5.63,0,0,0,5.624,5.624H42.371a5.63,5.63,0,0,0,5.624-5.624v-.227L46.607,37ZM28.493,11.641a13.469,13.469,0,0,0,2.068-7.177V4.249h5.155V4.66a13.5,13.5,0,0,0,1.849,6.816l.156.266A13.411,13.411,0,0,1,39.557,18.4l-2.172,1.2-4.592-2.441-4.386,2.431L26.443,18.5A13.384,13.384,0,0,1,28.493,11.641ZM5.957,5.759A2.536,2.536,0,0,1,7.388,4.338c1.26-.45,3.258.948,5.345,3.739.408.545.817,1.141,1.224,1.78a12.935,12.935,0,0,0-4.622.311l.979,3.619a10.234,10.234,0,0,1,6.1.5c.716,1.469,1.4,3.04,2.032,4.67l-3.25-1.8-4.405,2.441L6.805,17.386C5.2,12.31,4.879,8.041,5.957,5.759ZM42.371,44.738H5.631a1.878,1.878,0,0,1-1.865-1.686l.991-4.032H16.69V35.272H5.013L3.952,22.5l2.357-1.1,4.477,2.481,4.405-2.441,4.4,2.441L24,21.437l4.4,2.441,4.424-2.451,4.592,2.441,4.441-2.461,2.189,1.07L42.82,37.3l1.415,5.756A1.877,1.877,0,0,1,42.371,44.738Zm0,0" transform="translate(0.158 -0.33)" fill="#121212" stroke="#fff" stroke-width="0.3"/>
</svg>
