<svg xmlns="http://www.w3.org/2000/svg" width="26" height="26" viewBox="0 0 26 26"><defs><style>.a{fill:#b10c5f;}</style></defs><path class="a" d="M24.861,7.219,26,6.08,19.92,0,18.781,1.139l2.47,2.47-2.28,2.28L15.362,2.28,14.222,3.419l1.329,1.329L1.745,18.555l2.28,2.28L0,24.861,1.139,26l4.026-4.026,2.28,2.28L21.251,10.448l1.329,1.329,1.139-1.139L20.11,7.029l2.28-2.28ZM7.445,21.976,4.024,18.555l2.312-2.312,1.711,1.711,1.139-1.139L7.476,15.1l2.312-2.312L11.5,14.5l1.139-1.139-1.711-1.711L13.239,9.34,14.95,11.05l1.139-1.139L14.379,8.2l2.312-2.312,3.421,3.421Z"/></svg>