<svg xmlns="http://www.w3.org/2000/svg" width="24.476" height="26.238" viewBox="0 0 24.476 26.238">
  <path id="Union_39" data-name="Union 39" d="M1422.351,512.594a2.6,2.6,0,0,1,.176-2.7l1.516-2.166a.762.762,0,0,1,1.248,0l1.516,2.166a2.612,2.612,0,1,1-4.457,2.7Zm1.425-1.831a1.089,1.089,0,1,0,1.785,0l-.893-1.275Zm-2.155-3.736a.762.762,0,0,1,0-1.524h.254v-3.016h-2.553a2.289,2.289,0,0,1-2.271,2.031h-6.094a2.288,2.288,0,0,1-2.271-2.031h-3.163V503a.762.762,0,0,1-1.524,0v-8.125a.762.762,0,0,1,1.524,0V496.9h3.163a2.288,2.288,0,0,1,2.271-2.031h.761v-2.539h-2.285a.762.762,0,0,1-.761-.762v-3.046a.761.761,0,0,1,.761-.761h9.141a.761.761,0,0,1,.761.761v3.046a.762.762,0,0,1-.761.762h-2.286v2.539h.762a2.289,2.289,0,0,1,2.271,2.031h3.315a4.83,4.83,0,0,1,4.825,4.824V505.5h.254a.762.762,0,0,1,0,1.524Zm-2.285-6.062h3.3a.762.762,0,0,1,.762.761V505.5h2.539v-3.777a3.3,3.3,0,0,0-3.3-3.3h-3.3Zm-9.14-3.809v5.078a.762.762,0,0,0,.761.762h6.094a.763.763,0,0,0,.761-.762v-5.078a.762.762,0,0,0-.761-.761h-6.094A.762.762,0,0,0,1410.2,497.156Zm-4.672,3.809h3.148v-2.539h-3.148Zm7.719-6.094h1.524v-2.539h-1.524Zm-3.047-4.063h7.617v-1.524H1410.2Z" transform="translate(-1404 -487.762)" fill="#b10c5f"/>
</svg>
