<svg xmlns="http://www.w3.org/2000/svg" width="26" height="26" viewBox="0 0 26 26"><defs><style>.a{fill:#b10c5f;}</style></defs><path class="a" d="M1418.523,513a.762.762,0,0,1-.762-.762V507.1a3.322,3.322,0,0,1,.977-2.344l3.048-3.022a3.938,3.938,0,0,1,3.593-1.052v-5.177a2.311,2.311,0,0,1,4.621,0v8.34a4.344,4.344,0,0,1-1.285,3.072l-3.6,3.557v1.763a.762.762,0,0,1-.762.762Zm4.335-10.183-3.048,3.022a1.789,1.789,0,0,0-.526,1.262v4.376h4.3v-1.32a.762.762,0,0,1,.227-.542l3.831-3.781a2.81,2.81,0,0,0,.831-1.988v-8.34a.787.787,0,0,0-1.574,0v5.863a3.942,3.942,0,0,1,.437.377.762.762,0,0,1,0,1.077l-3.428,3.428a.762.762,0,0,1-1.077-1.077l2.8-2.8a2.42,2.42,0,0,0-2.777.444ZM1409.651,513a.762.762,0,0,1-.762-.762v-1.763l-3.6-3.557a4.343,4.343,0,0,1-1.285-3.072v-8.34a2.311,2.311,0,0,1,4.621,0v5.177a3.937,3.937,0,0,1,3.593,1.052l3.048,3.022a3.322,3.322,0,0,1,.977,2.344v5.137a.762.762,0,0,1-.762.762Zm-4.127-17.494v8.34a2.81,2.81,0,0,0,.831,1.988l3.831,3.781a.761.761,0,0,1,.227.542v1.32h4.3V507.1a1.789,1.789,0,0,0-.526-1.262l-3.048-3.022a2.419,2.419,0,0,0-2.777-.444l2.8,2.8a.762.762,0,0,1-1.077,1.077l-3.428-3.428a.762.762,0,0,1,0-1.077,3.928,3.928,0,0,1,.437-.377v-5.863a.787.787,0,0,0-1.574,0Zm7.668,4.443a.762.762,0,0,1-.762-.762V496.9a4.578,4.578,0,0,1,2.954-4.275,3.047,3.047,0,1,1,3.233,0,4.578,4.578,0,0,1,2.954,4.275v2.285a.762.762,0,0,1-.762.762Zm.762-3.047v1.523h6.094V496.9a3.047,3.047,0,0,0-6.094,0Zm1.523-6.855a1.523,1.523,0,1,0,1.523-1.523A1.525,1.525,0,0,0,1415.477,490.047Z" transform="translate(-1404 -487)"/></svg>