<svg xmlns="http://www.w3.org/2000/svg" width="48" height="50.672" viewBox="0 0 48 50.672">
  <path id="siren" d="M58.284,39.934V33.5H54.931L52.123,4.252A4.683,4.683,0,0,0,47.444,0H27.556a4.683,4.683,0,0,0-4.68,4.252L20.069,33.5H16.716v6.433H13.5V50.672h48V39.934ZM25.832,4.536a1.725,1.725,0,0,1,1.724-1.566H47.443a1.725,1.725,0,0,1,1.724,1.566L51.949,33.5H38.985V24.409a7.878,7.878,0,0,0,4.948,1.743h1.485V10.318H43.933a7.911,7.911,0,0,0-6.433,3.31,7.911,7.911,0,0,0-6.433-3.31H29.582V26.153h1.485a7.878,7.878,0,0,0,4.948-1.743V33.5H23.051Zm13.152,13.7a4.957,4.957,0,0,1,3.464-4.721v9.442A4.957,4.957,0,0,1,38.985,18.235Zm-2.969,0a4.957,4.957,0,0,1-3.464,4.721V13.514A4.957,4.957,0,0,1,36.015,18.235ZM19.686,36.47H55.314v3.464H19.686ZM58.531,47.7H16.469V42.9H58.531Z" transform="translate(-13.5)" fill="#121212"/>
</svg>
